<svg width="342" height="174" viewBox="0 0 342 174" fill="none" xmlns="http://www.w3.org/2000/svg">
<path d="M108.286 84.04V61.24C108.286 59.84 108.326 58.34 108.406 56.74C108.526 55.1 108.686 53.4 108.886 51.64L85.7859 84.04H108.286ZM133.486 84.04V94.48C133.486 95.4 133.166 96.2 132.526 96.88C131.926 97.56 131.046 97.9 129.886 97.9H124.486V118H108.286V97.9H73.1259C71.9659 97.9 70.9059 97.54 69.9459 96.82C69.0259 96.1 68.4459 95.2 68.2059 94.12L66.2859 84.94L106.726 30.58H124.486V84.04H133.486ZM203.395 74.26C203.395 81.9 202.575 88.52 200.935 94.12C199.295 99.72 197.015 104.36 194.095 108.04C191.215 111.72 187.775 114.46 183.775 116.26C179.815 118.06 175.515 118.96 170.875 118.96C166.235 118.96 161.935 118.06 157.975 116.26C154.055 114.46 150.655 111.72 147.775 108.04C144.895 104.36 142.635 99.72 140.995 94.12C139.395 88.52 138.595 81.9 138.595 74.26C138.595 66.62 139.395 60 140.995 54.4C142.635 48.8 144.895 44.16 147.775 40.48C150.655 36.8 154.055 34.08 157.975 32.32C161.935 30.52 166.235 29.62 170.875 29.62C175.515 29.62 179.815 30.52 183.775 32.32C187.775 34.08 191.215 36.8 194.095 40.48C197.015 44.16 199.295 48.8 200.935 54.4C202.575 60 203.395 66.62 203.395 74.26ZM184.195 74.26C184.195 68.22 183.815 63.28 183.055 59.44C182.295 55.56 181.275 52.52 179.995 50.32C178.755 48.12 177.335 46.62 175.735 45.82C174.135 44.98 172.515 44.56 170.875 44.56C169.235 44.56 167.615 44.98 166.015 45.82C164.455 46.62 163.055 48.12 161.815 50.32C160.615 52.52 159.635 55.56 158.875 59.44C158.155 63.28 157.795 68.22 157.795 74.26C157.795 80.34 158.155 85.3 158.875 89.14C159.635 92.98 160.615 96.02 161.815 98.26C163.055 100.46 164.455 101.98 166.015 102.82C167.615 103.62 169.235 104.02 170.875 104.02C172.515 104.02 174.135 103.62 175.735 102.82C177.335 101.98 178.755 100.46 179.995 98.26C181.275 96.02 182.295 92.98 183.055 89.14C183.815 85.3 184.195 80.34 184.195 74.26ZM247.505 84.04V61.24C247.505 59.84 247.545 58.34 247.625 56.74C247.745 55.1 247.905 53.4 248.105 51.64L225.005 84.04H247.505ZM272.705 84.04V94.48C272.705 95.4 272.385 96.2 271.745 96.88C271.145 97.56 270.265 97.9 269.105 97.9H263.705V118H247.505V97.9H212.345C211.185 97.9 210.125 97.54 209.165 96.82C208.245 96.1 207.665 95.2 207.425 94.12L205.505 84.94L245.945 30.58H263.705V84.04H272.705Z" fill="#263069"/>
<path d="M289.95 101.716C289.343 101.716 288.756 101.777 288.148 101.899C287.703 99.6593 286.246 97.725 284.201 96.707C282.156 95.6889 279.788 95.6278 277.702 96.5848C275.84 91.3927 270.131 88.7254 264.989 90.5986C259.847 92.4719 257.175 98.2137 259.037 103.385C254.523 103.528 250.96 107.295 251 111.815C251.061 116.355 254.766 120 259.26 120H289.889C294.91 120 298.999 115.887 298.999 110.838C299.06 105.829 294.971 101.716 289.95 101.716Z" fill="white"/>
<path d="M78.698 136.87C80.018 136.87 80.968 136.555 81.548 135.925C82.128 135.295 82.418 134.415 82.418 133.285C82.418 132.785 82.343 132.33 82.193 131.92C82.043 131.51 81.813 131.16 81.503 130.87C81.203 130.57 80.818 130.34 80.348 130.18C79.888 130.02 79.338 129.94 78.698 129.94H76.058V136.87H78.698ZM78.698 126.145C80.238 126.145 81.558 126.33 82.658 126.7C83.768 127.06 84.678 127.56 85.388 128.2C86.108 128.84 86.638 129.595 86.978 130.465C87.318 131.335 87.488 132.275 87.488 133.285C87.488 134.375 87.313 135.375 86.963 136.285C86.613 137.195 86.078 137.975 85.358 138.625C84.638 139.275 83.723 139.785 82.613 140.155C81.513 140.515 80.208 140.695 78.698 140.695H76.058V148H70.988V126.145H78.698ZM97.1059 141.67C96.1759 141.71 95.4109 141.79 94.8109 141.91C94.2109 142.03 93.7359 142.18 93.3859 142.36C93.0359 142.54 92.7909 142.745 92.6509 142.975C92.5209 143.205 92.4559 143.455 92.4559 143.725C92.4559 144.255 92.6009 144.63 92.8909 144.85C93.1809 145.06 93.6059 145.165 94.1659 145.165C94.7659 145.165 95.2909 145.06 95.7409 144.85C96.1909 144.64 96.6459 144.3 97.1059 143.83V141.67ZM88.7359 134.605C89.6759 133.775 90.7159 133.16 91.8559 132.76C93.0059 132.35 94.2359 132.145 95.5459 132.145C96.4859 132.145 97.3309 132.3 98.0809 132.61C98.8409 132.91 99.4809 133.335 100.001 133.885C100.531 134.425 100.936 135.07 101.216 135.82C101.496 136.57 101.636 137.39 101.636 138.28V148H99.5059C99.0659 148 98.7309 147.94 98.5009 147.82C98.2809 147.7 98.0959 147.45 97.9459 147.07L97.6159 146.215C97.2259 146.545 96.8509 146.835 96.4909 147.085C96.1309 147.335 95.7559 147.55 95.3659 147.73C94.9859 147.9 94.5759 148.025 94.1359 148.105C93.7059 148.195 93.2259 148.24 92.6959 148.24C91.9859 148.24 91.3409 148.15 90.7609 147.97C90.1809 147.78 89.6859 147.505 89.2759 147.145C88.8759 146.785 88.5659 146.34 88.3459 145.81C88.1259 145.27 88.0159 144.65 88.0159 143.95C88.0159 143.39 88.1559 142.825 88.4359 142.255C88.7159 141.675 89.2009 141.15 89.8909 140.68C90.5809 140.2 91.5109 139.8 92.6809 139.48C93.8509 139.16 95.3259 138.98 97.1059 138.94V138.28C97.1059 137.37 96.9159 136.715 96.5359 136.315C96.1659 135.905 95.6359 135.7 94.9459 135.7C94.3959 135.7 93.9459 135.76 93.5959 135.88C93.2459 136 92.9309 136.135 92.6509 136.285C92.3809 136.435 92.1159 136.57 91.8559 136.69C91.5959 136.81 91.2859 136.87 90.9259 136.87C90.6059 136.87 90.3359 136.79 90.1159 136.63C89.8959 136.47 89.7159 136.28 89.5759 136.06L88.7359 134.605ZM110.533 139.405C111.303 139.405 111.858 139.215 112.198 138.835C112.548 138.445 112.723 137.945 112.723 137.335C112.723 136.705 112.548 136.21 112.198 135.85C111.858 135.49 111.303 135.31 110.533 135.31C109.763 135.31 109.203 135.49 108.853 135.85C108.513 136.21 108.343 136.705 108.343 137.335C108.343 137.635 108.383 137.91 108.463 138.16C108.553 138.41 108.688 138.63 108.868 138.82C109.048 139 109.273 139.145 109.543 139.255C109.823 139.355 110.153 139.405 110.533 139.405ZM114.133 148.57C114.133 148.2 113.968 147.935 113.638 147.775C113.308 147.605 112.878 147.485 112.348 147.415C111.818 147.345 111.223 147.305 110.563 147.295C109.913 147.275 109.263 147.235 108.613 147.175C108.323 147.375 108.083 147.6 107.893 147.85C107.713 148.09 107.623 148.365 107.623 148.675C107.623 148.895 107.668 149.095 107.758 149.275C107.858 149.455 108.028 149.61 108.268 149.74C108.508 149.87 108.828 149.97 109.228 150.04C109.638 150.12 110.153 150.16 110.773 150.16C111.443 150.16 111.993 150.12 112.423 150.04C112.853 149.96 113.193 149.85 113.443 149.71C113.703 149.57 113.883 149.4 113.983 149.2C114.083 149.01 114.133 148.8 114.133 148.57ZM118.723 132.925V134.62C118.723 134.88 118.648 135.085 118.498 135.235C118.358 135.385 118.113 135.5 117.763 135.58L116.638 135.835C116.698 136.055 116.743 136.28 116.773 136.51C116.813 136.74 116.833 136.98 116.833 137.23C116.833 138.01 116.668 138.71 116.338 139.33C116.018 139.95 115.573 140.48 115.003 140.92C114.443 141.35 113.778 141.685 113.008 141.925C112.238 142.155 111.413 142.27 110.533 142.27C110.293 142.27 110.058 142.265 109.828 142.255C109.598 142.235 109.373 142.205 109.153 142.165C108.813 142.375 108.643 142.61 108.643 142.87C108.643 143.13 108.783 143.32 109.063 143.44C109.343 143.55 109.713 143.63 110.173 143.68C110.633 143.72 111.153 143.75 111.733 143.77C112.323 143.78 112.923 143.815 113.533 143.875C114.143 143.925 114.738 144.015 115.318 144.145C115.908 144.275 116.433 144.485 116.893 144.775C117.353 145.065 117.723 145.455 118.003 145.945C118.283 146.425 118.423 147.04 118.423 147.79C118.423 148.49 118.253 149.175 117.913 149.845C117.573 150.515 117.073 151.11 116.413 151.63C115.753 152.15 114.943 152.565 113.983 152.875C113.023 153.195 111.923 153.355 110.683 153.355C109.463 153.355 108.408 153.24 107.518 153.01C106.638 152.78 105.903 152.475 105.313 152.095C104.733 151.725 104.303 151.295 104.023 150.805C103.743 150.315 103.603 149.805 103.603 149.275C103.603 148.585 103.803 148.01 104.203 147.55C104.603 147.09 105.163 146.72 105.883 146.44C105.503 146.21 105.203 145.915 104.983 145.555C104.763 145.195 104.653 144.73 104.653 144.16C104.653 143.93 104.693 143.69 104.773 143.44C104.853 143.18 104.978 142.93 105.148 142.69C105.328 142.44 105.548 142.205 105.808 141.985C106.068 141.765 106.378 141.57 106.738 141.4C105.928 140.97 105.288 140.405 104.818 139.705C104.348 138.995 104.113 138.17 104.113 137.23C104.113 136.45 104.278 135.75 104.608 135.13C104.938 134.5 105.388 133.97 105.958 133.54C106.538 133.1 107.218 132.765 107.998 132.535C108.778 132.295 109.623 132.175 110.533 132.175C111.853 132.175 113.023 132.425 114.043 132.925H118.723ZM130.045 138.355C130.045 137.985 129.995 137.625 129.895 137.275C129.805 136.925 129.65 136.615 129.43 136.345C129.22 136.065 128.94 135.84 128.59 135.67C128.24 135.5 127.815 135.415 127.315 135.415C126.435 135.415 125.745 135.67 125.245 136.18C124.745 136.68 124.415 137.405 124.255 138.355H130.045ZM124.195 141.055C124.345 142.355 124.74 143.3 125.38 143.89C126.02 144.47 126.845 144.76 127.855 144.76C128.395 144.76 128.86 144.695 129.25 144.565C129.64 144.435 129.985 144.29 130.285 144.13C130.595 143.97 130.875 143.825 131.125 143.695C131.385 143.565 131.655 143.5 131.935 143.5C132.305 143.5 132.585 143.635 132.775 143.905L134.125 145.57C133.645 146.12 133.125 146.57 132.565 146.92C132.015 147.26 131.445 147.53 130.855 147.73C130.275 147.92 129.69 148.05 129.1 148.12C128.52 148.2 127.965 148.24 127.435 148.24C126.345 148.24 125.32 148.065 124.36 147.715C123.41 147.355 122.575 146.825 121.855 146.125C121.145 145.425 120.58 144.555 120.16 143.515C119.75 142.475 119.545 141.265 119.545 139.885C119.545 138.845 119.72 137.86 120.07 136.93C120.43 136 120.94 135.185 121.6 134.485C122.27 133.785 123.075 133.23 124.015 132.82C124.965 132.41 126.035 132.205 127.225 132.205C128.255 132.205 129.195 132.365 130.045 132.685C130.905 133.005 131.64 133.47 132.25 134.08C132.87 134.69 133.35 135.44 133.69 136.33C134.04 137.21 134.215 138.21 134.215 139.33C134.215 139.68 134.2 139.965 134.17 140.185C134.14 140.405 134.085 140.58 134.005 140.71C133.925 140.84 133.815 140.93 133.675 140.98C133.545 141.03 133.375 141.055 133.165 141.055H124.195ZM147.775 134.125C148.075 133.845 148.385 133.585 148.705 133.345C149.025 133.105 149.365 132.905 149.725 132.745C150.095 132.575 150.49 132.445 150.91 132.355C151.34 132.255 151.805 132.205 152.305 132.205C153.155 132.205 153.905 132.355 154.555 132.655C155.215 132.945 155.77 133.355 156.22 133.885C156.67 134.405 157.01 135.03 157.24 135.76C157.47 136.48 157.585 137.265 157.585 138.115V148H152.935V138.115C152.935 137.355 152.76 136.765 152.41 136.345C152.06 135.915 151.545 135.7 150.865 135.7C150.355 135.7 149.875 135.81 149.425 136.03C148.985 136.24 148.555 136.53 148.135 136.9V148H143.485V132.445H146.365C146.945 132.445 147.325 132.705 147.505 133.225L147.775 134.125ZM167.765 132.205C168.945 132.205 170.02 132.39 170.99 132.76C171.96 133.13 172.79 133.66 173.48 134.35C174.18 135.04 174.72 135.88 175.1 136.87C175.49 137.85 175.685 138.955 175.685 140.185C175.685 141.425 175.49 142.545 175.1 143.545C174.72 144.535 174.18 145.38 173.48 146.08C172.79 146.77 171.96 147.305 170.99 147.685C170.02 148.055 168.945 148.24 167.765 148.24C166.575 148.24 165.49 148.055 164.51 147.685C163.54 147.305 162.7 146.77 161.99 146.08C161.29 145.38 160.745 144.535 160.355 143.545C159.975 142.545 159.785 141.425 159.785 140.185C159.785 138.955 159.975 137.85 160.355 136.87C160.745 135.88 161.29 135.04 161.99 134.35C162.7 133.66 163.54 133.13 164.51 132.76C165.49 132.39 166.575 132.205 167.765 132.205ZM167.765 144.79C168.835 144.79 169.62 144.415 170.12 143.665C170.63 142.905 170.885 141.755 170.885 140.215C170.885 138.675 170.63 137.53 170.12 136.78C169.62 136.03 168.835 135.655 167.765 135.655C166.665 135.655 165.86 136.03 165.35 136.78C164.84 137.53 164.585 138.675 164.585 140.215C164.585 141.755 164.84 142.905 165.35 143.665C165.86 144.415 166.665 144.79 167.765 144.79ZM183.269 148.24C182.529 148.24 181.874 148.135 181.304 147.925C180.744 147.705 180.269 147.4 179.879 147.01C179.499 146.61 179.209 146.13 179.009 145.57C178.809 145.01 178.709 144.385 178.709 143.695V135.655H177.389C177.149 135.655 176.944 135.58 176.774 135.43C176.604 135.27 176.519 135.04 176.519 134.74V132.925L178.994 132.445L179.909 128.65C180.029 128.17 180.369 127.93 180.929 127.93H183.359V132.475H187.214V135.655H183.359V143.38C183.359 143.74 183.444 144.04 183.614 144.28C183.794 144.51 184.049 144.625 184.379 144.625C184.549 144.625 184.689 144.61 184.799 144.58C184.919 144.54 185.019 144.5 185.099 144.46C185.189 144.41 185.269 144.37 185.339 144.34C185.419 144.3 185.509 144.28 185.609 144.28C185.749 144.28 185.859 144.315 185.939 144.385C186.029 144.445 186.119 144.545 186.209 144.685L187.619 146.89C187.019 147.34 186.344 147.68 185.594 147.91C184.844 148.13 184.069 148.24 183.269 148.24ZM197.316 148V135.64L196.296 135.43C195.946 135.35 195.661 135.225 195.441 135.055C195.231 134.885 195.126 134.635 195.126 134.305V132.475H197.316V131.59C197.316 130.7 197.456 129.895 197.736 129.175C198.026 128.455 198.436 127.84 198.966 127.33C199.506 126.82 200.161 126.425 200.931 126.145C201.701 125.865 202.576 125.725 203.556 125.725C203.936 125.725 204.286 125.75 204.606 125.8C204.926 125.84 205.261 125.91 205.611 126.01L205.521 128.275C205.511 128.435 205.471 128.57 205.401 128.68C205.331 128.78 205.236 128.865 205.116 128.935C205.006 128.995 204.886 129.04 204.756 129.07C204.626 129.1 204.496 129.115 204.366 129.115C203.956 129.115 203.591 129.155 203.271 129.235C202.951 129.315 202.681 129.46 202.461 129.67C202.251 129.87 202.091 130.14 201.981 130.48C201.871 130.81 201.816 131.23 201.816 131.74V132.475H205.461V135.655H201.966V148H197.316ZM213.995 132.205C215.175 132.205 216.25 132.39 217.22 132.76C218.19 133.13 219.02 133.66 219.71 134.35C220.41 135.04 220.95 135.88 221.33 136.87C221.72 137.85 221.915 138.955 221.915 140.185C221.915 141.425 221.72 142.545 221.33 143.545C220.95 144.535 220.41 145.38 219.71 146.08C219.02 146.77 218.19 147.305 217.22 147.685C216.25 148.055 215.175 148.24 213.995 148.24C212.805 148.24 211.72 148.055 210.74 147.685C209.77 147.305 208.93 146.77 208.22 146.08C207.52 145.38 206.975 144.535 206.585 143.545C206.205 142.545 206.015 141.425 206.015 140.185C206.015 138.955 206.205 137.85 206.585 136.87C206.975 135.88 207.52 135.04 208.22 134.35C208.93 133.66 209.77 133.13 210.74 132.76C211.72 132.39 212.805 132.205 213.995 132.205ZM213.995 144.79C215.065 144.79 215.85 144.415 216.35 143.665C216.86 142.905 217.115 141.755 217.115 140.215C217.115 138.675 216.86 137.53 216.35 136.78C215.85 136.03 215.065 135.655 213.995 135.655C212.895 135.655 212.09 136.03 211.58 136.78C211.07 137.53 210.815 138.675 210.815 140.215C210.815 141.755 211.07 142.905 211.58 143.665C212.09 144.415 212.895 144.79 213.995 144.79ZM238.207 132.445V148H235.327C234.747 148 234.367 147.74 234.187 147.22L233.917 146.32C233.617 146.61 233.307 146.875 232.987 147.115C232.667 147.345 232.322 147.545 231.952 147.715C231.592 147.875 231.197 148 230.767 148.09C230.347 148.19 229.887 148.24 229.387 148.24C228.537 148.24 227.782 148.095 227.122 147.805C226.472 147.505 225.922 147.09 225.472 146.56C225.022 146.03 224.682 145.405 224.452 144.685C224.222 143.965 224.107 143.175 224.107 142.315V132.445H228.757V142.315C228.757 143.085 228.932 143.68 229.282 144.1C229.632 144.52 230.147 144.73 230.827 144.73C231.337 144.73 231.812 144.625 232.252 144.415C232.702 144.195 233.137 143.9 233.557 143.53V132.445H238.207ZM245.656 134.125C245.956 133.845 246.266 133.585 246.586 133.345C246.906 133.105 247.246 132.905 247.606 132.745C247.976 132.575 248.371 132.445 248.791 132.355C249.221 132.255 249.686 132.205 250.186 132.205C251.036 132.205 251.786 132.355 252.436 132.655C253.096 132.945 253.651 133.355 254.101 133.885C254.551 134.405 254.891 135.03 255.121 135.76C255.351 136.48 255.466 137.265 255.466 138.115V148H250.816V138.115C250.816 137.355 250.641 136.765 250.291 136.345C249.941 135.915 249.426 135.7 248.746 135.7C248.236 135.7 247.756 135.81 247.306 136.03C246.866 136.24 246.436 136.53 246.016 136.9V148H241.366V132.445H244.246C244.826 132.445 245.206 132.705 245.386 133.225L245.656 134.125ZM267.91 136.615C267.56 136.225 267.18 135.955 266.77 135.805C266.36 135.645 265.93 135.565 265.48 135.565C265.05 135.565 264.655 135.65 264.295 135.82C263.935 135.99 263.62 136.265 263.35 136.645C263.09 137.015 262.885 137.5 262.735 138.1C262.585 138.7 262.51 139.425 262.51 140.275C262.51 141.095 262.57 141.785 262.69 142.345C262.81 142.905 262.975 143.36 263.185 143.71C263.405 144.05 263.665 144.295 263.965 144.445C264.265 144.595 264.6 144.67 264.97 144.67C265.31 144.67 265.615 144.64 265.885 144.58C266.165 144.51 266.42 144.415 266.65 144.295C266.88 144.175 267.095 144.025 267.295 143.845C267.505 143.655 267.71 143.44 267.91 143.2V136.615ZM272.56 125.545V148H269.68C269.1 148 268.72 147.74 268.54 147.22L268.18 146.035C267.87 146.365 267.545 146.665 267.205 146.935C266.865 147.205 266.495 147.44 266.095 147.64C265.705 147.83 265.28 147.975 264.82 148.075C264.37 148.185 263.88 148.24 263.35 148.24C262.54 148.24 261.79 148.06 261.1 147.7C260.41 147.34 259.815 146.82 259.315 146.14C258.815 145.46 258.42 144.63 258.13 143.65C257.85 142.66 257.71 141.535 257.71 140.275C257.71 139.115 257.87 138.04 258.19 137.05C258.51 136.05 258.96 135.19 259.54 134.47C260.13 133.74 260.835 133.17 261.655 132.76C262.475 132.35 263.38 132.145 264.37 132.145C265.18 132.145 265.86 132.26 266.41 132.49C266.96 132.72 267.46 133.03 267.91 133.42V125.545H272.56Z" fill="#263069"/>
</svg>
