<svg width="321" height="496" viewBox="0 0 321 496" fill="none" xmlns="http://www.w3.org/2000/svg">
<g clip-path="url(#clip0)">
<path d="M410 -4H-389V559H410V-4Z" fill="#D7F5FF"/>
<path d="M410.472 380.061L39.5495 374.731L-389 374.731V522.694L410.472 541.626V380.061Z" fill="#FFC088"/>
<path d="M410.472 397.55L91.0055 406.406L-389 391.693V542.209L410.472 559.115V397.55Z" fill="#FFA69F"/>
<path d="M410.472 452.876L377.335 437.303L-115.486 381.755H410.472V452.876Z" fill="#ADDEF0"/>
<path d="M410.472 386.168H-11.406L370.386 438.941L410.472 453.182V386.168Z" fill="#72CBEB"/>
<path d="M-389 420.119V381.394L68.9053 430.918L110.354 552.924L-389 554.174V420.119Z" fill="#FFB288"/>
<path d="M410.472 438.635L76.272 418.648L-389 457.929V565.722L410.472 556.228V438.635Z" fill="#FFC088"/>
<path d="M410.472 435.304L55.3394 415.65L-389 450.905V558.699L410.472 562.724V435.304Z" fill="#E88469"/>
<path d="M398.713 463.259H-389V554.396L391.179 560.697L398.713 463.259Z" fill="#D3754C"/>
<path d="M410.472 476.667L-147.371 492.768L-389 460.677L-388.388 569.803L411 575.05L410.472 476.667Z" fill="#B55C3E"/>
<path d="M199.589 467.062L345.255 476.861L410.472 466.257V453.182L376.335 456.458L199.589 467.062Z" fill="#C46A3D"/>
<path d="M-183.426 450.933L5.30122 487.965L124.225 484.717L219.131 478.166L34.2122 473.28L-183.426 450.933Z" fill="#C46A3D"/>
<path d="M109.659 462.926C109.686 463.342 109.686 463.758 109.686 464.175C135.123 463.398 153.72 460.982 153.72 458.095C153.72 455.208 135.067 452.765 109.547 452.016C109.464 456.069 109.52 459.733 109.659 462.926Z" fill="#3A3A36"/>
<path d="M78.5515 451.933C51.3085 452.571 31.0153 455.097 31.0153 458.123C31.0153 461.121 51.1695 463.62 78.2179 464.286C78.2179 462.787 78.2458 461.232 78.2458 459.65C78.3014 457.04 78.4126 454.486 78.5515 451.933Z" fill="#3A3A36"/>
<path d="M164.534 293.199C153.081 303.554 83.7222 363.516 78.5516 451.933C78.4126 454.486 78.3014 457.04 78.2736 459.622C78.2458 461.204 78.2458 462.759 78.2458 464.258C82.7771 464.369 87.5307 464.425 92.3955 464.425C98.4279 464.425 104.238 464.341 109.714 464.175C109.714 463.758 109.687 463.342 109.687 462.926C109.548 459.733 109.492 456.069 109.575 452.016C110.326 416.427 121.418 350.968 168.593 306.413C221.077 256.805 164.534 293.199 164.534 293.199Z" fill="#E2BEDB"/>
<path d="M231.446 337.283C231.446 337.283 245.485 362.267 246.93 404.99C247.959 435.221 226.442 461.871 226.442 461.871H235.227C235.227 461.871 253.852 427.559 259.301 408.099C264.527 389.444 263.776 351.052 252.24 332.147C240.703 313.242 231.446 337.283 231.446 337.283Z" fill="#E2BEDB"/>
<path d="M247.375 334.479C247.375 334.479 264.054 352.606 260.385 386.502C255.631 430.585 231.919 462.398 231.919 462.398L236.228 463.592C236.228 463.592 268.836 412.013 263.971 371.039C259.106 330.065 251.851 327.15 251.851 327.15L247.375 334.479Z" fill="#DC90BA"/>
<path d="M244.206 357.52C244.206 357.964 243.845 358.325 243.4 358.325C242.955 358.325 242.594 357.964 242.594 357.52C242.594 357.076 242.955 356.715 243.4 356.715C243.845 356.715 244.206 357.076 244.206 357.52Z" fill="#BA6E9C"/>
<path d="M255.548 370.539C255.763 370.539 255.937 370.365 255.937 370.151C255.937 369.936 255.763 369.762 255.548 369.762C255.333 369.762 255.159 369.936 255.159 370.151C255.159 370.365 255.333 370.539 255.548 370.539Z" fill="#BA6E9C"/>
<path d="M246.986 366.931C247.201 366.931 247.375 366.757 247.375 366.542C247.375 366.327 247.201 366.153 246.986 366.153C246.771 366.153 246.597 366.327 246.597 366.542C246.597 366.757 246.771 366.931 246.986 366.931Z" fill="#BA6E9C"/>
<path d="M248.459 379.589C248.674 379.589 248.848 379.415 248.848 379.201C248.848 378.986 248.674 378.812 248.459 378.812C248.244 378.812 248.07 378.986 248.07 379.201C248.07 379.415 248.244 379.589 248.459 379.589Z" fill="#BA6E9C"/>
<path d="M251.378 404.962C251.593 404.962 251.767 404.788 251.767 404.573C251.767 404.359 251.593 404.185 251.378 404.185C251.163 404.185 250.989 404.359 250.989 404.573C250.989 404.788 251.163 404.962 251.378 404.962Z" fill="#BA6E9C"/>
<path d="M258.689 387.418C259.134 387.418 259.495 387.057 259.495 386.613C259.495 386.168 259.134 385.808 258.689 385.808C258.244 385.808 257.883 386.168 257.883 386.613C257.883 387.057 258.244 387.418 258.689 387.418Z" fill="#BA6E9C"/>
<path d="M253.38 420.786C253.825 420.786 254.186 420.425 254.186 419.98C254.186 419.536 253.825 419.175 253.38 419.175C252.934 419.175 252.573 419.536 252.573 419.98C252.573 420.425 252.934 420.786 253.38 420.786Z" fill="#BA6E9C"/>
<path d="M246.986 434.471C247.431 434.471 247.792 434.111 247.792 433.666C247.792 433.222 247.431 432.861 246.986 432.861C246.541 432.861 246.18 433.222 246.18 433.666C246.18 434.111 246.541 434.471 246.986 434.471Z" fill="#BA6E9C"/>
<path d="M241.926 448.74C242.372 448.74 242.733 448.38 242.733 447.935C242.733 447.49 242.372 447.13 241.926 447.13C241.481 447.13 241.12 447.49 241.12 447.935C241.12 448.38 241.481 448.74 241.926 448.74Z" fill="#BA6E9C"/>
<path d="M257.911 357.076C258.356 357.076 258.717 356.715 258.717 356.271C258.717 355.826 258.356 355.465 257.911 355.465C257.466 355.465 257.105 355.826 257.105 356.271C257.105 356.715 257.466 357.076 257.911 357.076Z" fill="#BA6E9C"/>
<path d="M250.989 415.122C251.204 415.122 251.378 414.948 251.378 414.734C251.378 414.519 251.204 414.345 250.989 414.345C250.774 414.345 250.6 414.519 250.6 414.734C250.6 414.948 250.774 415.122 250.989 415.122Z" fill="#BA6E9C"/>
<path d="M248.876 425.144C249.091 425.144 249.265 424.97 249.265 424.755C249.265 424.541 249.091 424.367 248.876 424.367C248.661 424.367 248.487 424.541 248.487 424.755C248.487 424.97 248.661 425.144 248.876 425.144Z" fill="#BA6E9C"/>
<path d="M257.105 401.27C257.55 401.27 257.911 400.91 257.911 400.465C257.911 400.02 257.55 399.66 257.105 399.66C256.659 399.66 256.298 400.02 256.298 400.465C256.298 400.91 256.659 401.27 257.105 401.27Z" fill="#BA6E9C"/>
<path d="M250.572 392.831C251.017 392.831 251.378 392.471 251.378 392.026C251.378 391.581 251.017 391.221 250.572 391.221C250.127 391.221 249.766 391.581 249.766 392.026C249.766 392.471 250.127 392.831 250.572 392.831Z" fill="#BA6E9C"/>
<path d="M236.533 348.553C236.533 348.553 250.989 349.192 252.796 346.443C254.603 343.723 252.796 342.335 252.796 342.335C252.796 342.335 256.41 340.669 255.075 337.255C253.074 332.175 233.503 341.113 233.503 341.113L236.533 348.553Z" fill="#BA6E9C"/>
<path d="M226.137 347.72L215.712 345.694C215.712 345.694 215.295 348.942 212.654 349.219C210.013 349.497 204.231 345.972 204.231 345.972L210.152 341.558L226.164 344.861L226.859 347.831L226.137 347.72Z" fill="#DC90BA"/>
<path d="M198.755 338.421C198.755 338.421 212.793 363.405 214.239 406.128C215.267 436.359 193.751 463.009 193.751 463.009H202.535C202.535 463.009 221.161 428.697 226.609 409.237C231.835 390.582 231.085 352.19 219.548 333.285C208.039 314.38 198.755 338.421 198.755 338.421Z" fill="#D3A9CF"/>
<path d="M214.683 335.617C214.683 335.617 231.363 353.744 227.693 387.64C222.94 431.723 199.227 463.536 199.227 463.536L203.536 464.73C203.536 464.73 236.144 413.151 231.279 372.177C226.415 331.203 219.159 328.288 219.159 328.288L214.683 335.617Z" fill="#DC90BA"/>
<path d="M211.514 358.658C211.514 359.102 211.153 359.463 210.708 359.463C210.263 359.463 209.902 359.102 209.902 358.658C209.902 358.214 210.263 357.853 210.708 357.853C211.153 357.853 211.514 358.214 211.514 358.658Z" fill="#BA6E9C"/>
<path d="M222.856 371.677C223.071 371.677 223.245 371.503 223.245 371.289C223.245 371.074 223.071 370.9 222.856 370.9C222.641 370.9 222.467 371.074 222.467 371.289C222.467 371.503 222.641 371.677 222.856 371.677Z" fill="#BA6E9C"/>
<path d="M214.266 368.069C214.481 368.069 214.656 367.895 214.656 367.68C214.656 367.465 214.481 367.291 214.266 367.291C214.051 367.291 213.877 367.465 213.877 367.68C213.877 367.895 214.051 368.069 214.266 368.069Z" fill="#BA6E9C"/>
<path d="M215.768 380.727C215.982 380.727 216.157 380.553 216.157 380.339C216.157 380.124 215.982 379.95 215.768 379.95C215.553 379.95 215.378 380.124 215.378 380.339C215.378 380.553 215.553 380.727 215.768 380.727Z" fill="#BA6E9C"/>
<path d="M218.687 406.1C218.901 406.1 219.076 405.926 219.076 405.712C219.076 405.497 218.901 405.323 218.687 405.323C218.472 405.323 218.297 405.497 218.297 405.712C218.297 405.926 218.472 406.1 218.687 406.1Z" fill="#BA6E9C"/>
<path d="M225.998 388.556C226.443 388.556 226.804 388.195 226.804 387.751C226.804 387.306 226.443 386.946 225.998 386.946C225.552 386.946 225.191 387.306 225.191 387.751C225.191 388.195 225.552 388.556 225.998 388.556Z" fill="#BA6E9C"/>
<path d="M220.688 421.951C221.133 421.951 221.494 421.591 221.494 421.146C221.494 420.702 221.133 420.341 220.688 420.341C220.243 420.341 219.882 420.702 219.882 421.146C219.882 421.591 220.243 421.951 220.688 421.951Z" fill="#BA6E9C"/>
<path d="M214.266 435.609C214.712 435.609 215.073 435.249 215.073 434.804C215.073 434.36 214.712 433.999 214.266 433.999C213.821 433.999 213.46 434.36 213.46 434.804C213.46 435.249 213.821 435.609 214.266 435.609Z" fill="#BA6E9C"/>
<path d="M209.235 449.878C209.68 449.878 210.041 449.518 210.041 449.073C210.041 448.629 209.68 448.268 209.235 448.268C208.79 448.268 208.429 448.629 208.429 449.073C208.429 449.518 208.79 449.878 209.235 449.878Z" fill="#BA6E9C"/>
<path d="M225.191 358.214C225.637 358.214 225.998 357.853 225.998 357.409C225.998 356.964 225.637 356.604 225.191 356.604C224.746 356.604 224.385 356.964 224.385 357.409C224.385 357.853 224.746 358.214 225.191 358.214Z" fill="#BA6E9C"/>
<path d="M218.27 416.288C218.484 416.288 218.659 416.114 218.659 415.9C218.659 415.685 218.484 415.511 218.27 415.511C218.055 415.511 217.88 415.685 217.88 415.9C217.88 416.114 218.055 416.288 218.27 416.288Z" fill="#BA6E9C"/>
<path d="M216.185 426.31C216.4 426.31 216.574 426.136 216.574 425.921C216.574 425.706 216.4 425.532 216.185 425.532C215.97 425.532 215.795 425.706 215.795 425.921C215.795 426.136 215.97 426.31 216.185 426.31Z" fill="#BA6E9C"/>
<path d="M224.413 402.436C224.858 402.436 225.219 402.075 225.219 401.631C225.219 401.186 224.858 400.826 224.413 400.826C223.968 400.826 223.607 401.186 223.607 401.631C223.607 402.075 223.968 402.436 224.413 402.436Z" fill="#BA6E9C"/>
<path d="M217.88 393.997C218.326 393.997 218.687 393.636 218.687 393.192C218.687 392.747 218.326 392.387 217.88 392.387C217.435 392.387 217.074 392.747 217.074 393.192C217.074 393.636 217.435 393.997 217.88 393.997Z" fill="#BA6E9C"/>
<path d="M203.842 349.691C203.842 349.691 218.297 350.33 220.104 347.581C221.911 344.833 220.104 343.473 220.104 343.473C220.104 343.473 223.718 341.807 222.384 338.393C220.382 333.313 200.812 342.251 200.812 342.251L203.842 349.691Z" fill="#BA6E9C"/>
<path d="M208.929 467.09L209.624 463.897H162.81C161.782 465.591 161.448 467.09 161.448 467.09H208.929Z" fill="#FFF5B0"/>
<path d="M171.928 462.62C171.901 463.092 171.901 463.509 171.873 463.897H209.624L213.349 447.158C213.349 447.158 207.372 447.685 204.787 449.739C202.202 451.794 201.173 456.624 201.173 456.624C201.173 456.624 199.783 456.957 201.507 451.821C203.23 446.686 200.645 447.185 200.645 447.185L195.474 457.151C195.474 457.151 177.405 458.123 170.233 459.122C171.261 459.816 171.984 460.927 171.928 462.62Z" fill="#E63A32"/>
<path d="M162.811 463.925H171.901C171.901 463.536 171.928 463.12 171.956 462.648C172.012 460.927 171.289 459.844 170.288 459.122C170.094 459.15 169.899 459.178 169.705 459.206C166.091 459.733 163.978 461.954 162.811 463.925Z" fill="#FFF5B0"/>
<path d="M191.304 460.316C191.304 460.316 191.277 459.317 190.637 458.373C190.081 457.596 189.442 457.457 188.942 457.485C189.72 456.68 190.665 457.096 191.221 457.596C192.277 458.539 192.361 460.177 192.361 460.261L191.304 460.316L191.833 460.288L191.304 460.316Z" fill="white"/>
<path d="M188.302 460.51C188.302 460.51 188.274 459.511 187.635 458.567C187.079 457.79 186.44 457.651 185.939 457.679C186.718 456.874 187.663 457.29 188.219 457.79C189.275 458.734 189.358 460.372 189.358 460.455L188.302 460.51L188.83 460.483L188.302 460.51Z" fill="white"/>
<path d="M197.198 459.955C197.198 459.955 197.17 458.956 196.531 458.012C195.975 457.235 195.335 457.096 194.835 457.124C195.613 456.319 196.558 456.735 197.114 457.235C198.171 458.179 198.254 459.816 198.254 459.9L197.198 459.955L197.726 459.927L197.198 459.955Z" fill="white"/>
<path d="M194.195 460.15C194.195 460.15 194.168 459.15 193.528 458.206C192.972 457.429 192.333 457.29 191.833 457.318C192.611 456.513 193.556 456.929 194.112 457.429C195.168 458.373 195.252 460.011 195.252 460.094L194.195 460.15L194.724 460.122L194.195 460.15Z" fill="white"/>
<path d="M200.256 458.789C200.228 458.678 199.172 456.041 196.142 455.874C196.142 455.874 195.78 455.514 196.42 455.014C200.478 455.042 201.229 458.456 201.229 458.484L200.256 458.789Z" fill="white"/>
<path d="M169.176 274.544C160.809 284.899 160.753 293.366 160.753 293.366C160.753 293.366 166.424 346.582 226.109 341.585C276.23 337.394 250.377 329.065 250.377 329.065C250.377 329.065 258.133 331.12 260.19 326.734C262.247 322.347 254.769 320.543 254.769 320.543C254.769 320.543 268.975 320.793 269.475 310.244C282.124 309.717 290.13 307.163 290.38 304.053C290.63 300.972 284.181 300.195 284.181 300.195C284.181 300.195 290.658 299.417 290.38 297.363C290.102 295.309 287.267 294.781 287.267 294.781C287.267 294.781 288.323 294.532 290.38 290.645C292.437 286.759 284.681 287.758 285.988 287.814C302.695 288.619 306.476 266.05 306.476 266.05C306.476 266.05 274.201 262.802 243.149 259.97C195.168 255.639 176.126 265.938 169.176 274.544Z" fill="#20264A"/>
<path d="M192.833 284.899C192.833 284.899 220.271 294.976 236.061 311.549C241.593 314.963 254.658 322.153 254.964 325.845C255.27 329.537 250.405 329.093 250.405 329.093C250.405 329.093 253.408 332.119 252.407 334.951C251.406 337.782 248.598 338.532 248.598 338.532L185.3 317.489C185.3 317.489 172.485 284.76 173.596 284.899C174.708 285.038 178.878 281.817 192.833 284.899Z" fill="#1F2141"/>
<path d="M209.874 314.991C218.686 321.848 222.523 326.512 220.466 329.343C218.408 332.175 215.045 331.397 215.045 331.397C215.045 331.397 218.13 335.006 216.601 337.06C215.045 339.115 209.902 337.838 209.902 337.838C209.902 337.838 215.573 342.724 213.266 346.332C210.93 349.941 203.202 345.555 198.81 343.251C194.418 340.919 183.576 330.87 174.041 319.794C164.506 308.717 161.921 297.363 161.921 297.363C161.921 297.363 166.007 280.79 209.874 314.991Z" fill="#20264A"/>
<path d="M160.781 297.558C160.781 297.558 172.762 341.585 213.766 344.278C248.237 346.554 250.155 343.001 249.905 340.142C249.654 337.31 237.006 336.006 237.006 336.006C237.006 336.006 249.182 338.06 249.932 334.201C250.683 330.342 247.069 331.12 237.256 326.206C247.319 328.26 248.848 329.815 250.016 326.206C251.183 322.597 243.705 321.82 238.813 318.211C233.92 314.602 209.179 296.281 182.298 286.259C154.61 275.988 160.781 297.558 160.781 297.558Z" fill="#282F54"/>
<path d="M234.365 314.269C234.365 314.269 247.069 325.096 243.733 327.733C248.487 328.843 251.962 330.148 252.379 326.678C252.796 323.208 236.895 314.353 234.365 314.269Z" fill="white"/>
<path d="M241.843 328.371C242.121 328.483 245.735 333.313 243.372 334.951C241.009 336.589 240.37 336.45 240.37 336.45C240.37 336.45 248.765 339.253 249.877 334.229C250.989 329.204 241.843 328.371 241.843 328.371Z" fill="white"/>
<path d="M233.086 345C233.086 345 242.983 344.667 245.179 341.419C247.403 338.171 245.179 337.477 245.179 337.477C245.179 337.477 250.711 338.615 250.377 340.475C250.044 342.307 251.211 345.5 233.086 345Z" fill="white"/>
<path d="M240.759 468.672L241.454 465.48H194.64C193.612 467.173 193.278 468.672 193.278 468.672H240.759Z" fill="#FFF5B0"/>
<path d="M203.758 464.203C203.73 464.675 203.73 465.091 203.703 465.48H241.454L245.179 448.74C245.179 448.74 239.202 449.268 236.617 451.322C234.031 453.376 233.003 458.206 233.003 458.206C233.003 458.206 231.613 458.539 233.336 453.404C235.06 448.268 232.475 448.768 232.475 448.768L227.304 458.734C227.304 458.734 209.235 459.705 202.062 460.705C203.091 461.399 203.842 462.509 203.758 464.203Z" fill="#E63A32"/>
<path d="M194.64 465.507H203.73C203.73 465.119 203.758 464.702 203.786 464.23C203.842 462.509 203.119 461.427 202.118 460.705C201.923 460.733 201.729 460.76 201.534 460.788C197.948 461.316 195.835 463.564 194.64 465.507Z" fill="#FFF5B0"/>
<path d="M223.134 461.926C223.134 461.926 223.106 460.927 222.467 459.983C221.911 459.206 221.272 459.067 220.771 459.095C221.55 458.29 222.495 458.706 223.051 459.206C224.107 460.15 224.19 461.787 224.19 461.871L223.134 461.926L223.662 461.899L223.134 461.926Z" fill="white"/>
<path d="M220.132 462.121C220.132 462.121 220.104 461.121 219.465 460.177C218.909 459.4 218.269 459.261 217.769 459.289C218.547 458.484 219.493 458.9 220.048 459.4C221.105 460.344 221.188 461.982 221.188 462.065L220.132 462.121L220.66 462.093L220.132 462.121Z" fill="white"/>
<path d="M229.027 461.538C229.027 461.538 229 460.538 228.36 459.594C227.804 458.817 227.165 458.678 226.665 458.706C227.443 457.901 228.388 458.317 228.944 458.817C230 459.761 230.084 461.399 230.084 461.482L229.027 461.538L229.556 461.51L229.027 461.538Z" fill="white"/>
<path d="M226.025 461.732C226.025 461.732 225.998 460.733 225.358 459.789C224.802 459.011 224.163 458.873 223.662 458.9C224.441 458.095 225.386 458.512 225.942 459.011C226.998 459.955 227.082 461.593 227.082 461.676L226.025 461.732L226.554 461.704L226.025 461.732Z" fill="white"/>
<path d="M232.085 460.4C232.058 460.288 231.001 457.651 227.971 457.485C227.971 457.485 227.61 457.124 228.249 456.624C232.308 456.652 233.058 460.066 233.058 460.094L232.085 460.4Z" fill="white"/>
<path d="M17.8386 472.253L25.0108 416.066L22.5644 472.781L40.3557 413.929L29.0972 474.085L44.4422 430.862L35.3797 473.613L17.8386 472.253Z" fill="#98C87D"/>
<path d="M17.8386 475.807L20.146 464.702L35.3798 455.403L51.6144 461.538V469.422L60.2877 472.67V476.528C60.2877 476.528 60.2877 479.193 30.5706 480.304C22.4533 477.278 17.8386 475.807 17.8386 475.807Z" fill="#8C8C8C"/>
<path d="M20.1459 464.702L35.3797 455.43L39.8831 457.124L35.2963 469.449L20.1459 464.702Z" fill="#AFAFAF"/>
<path d="M119.055 369.068C119.623 369.068 120.083 368.608 120.083 368.041C120.083 367.474 119.623 367.014 119.055 367.014C118.487 367.014 118.026 367.474 118.026 368.041C118.026 368.608 118.487 369.068 119.055 369.068Z" fill="#D3A9CF"/>
<path d="M134.039 331.12C134.607 331.12 135.067 330.66 135.067 330.093C135.067 329.525 134.607 329.065 134.039 329.065C133.47 329.065 133.01 329.525 133.01 330.093C133.01 330.66 133.47 331.12 134.039 331.12Z" fill="#D3A9CF"/>
<path d="M155.527 311.965C156.095 311.965 156.556 311.505 156.556 310.938C156.556 310.371 156.095 309.911 155.527 309.911C154.959 309.911 154.499 310.371 154.499 310.938C154.499 311.505 154.959 311.965 155.527 311.965Z" fill="#D3A9CF"/>
<path d="M95.3978 410.042C96.2422 410.042 96.9267 409.359 96.9267 408.515C96.9267 407.672 96.2422 406.989 95.3978 406.989C94.5533 406.989 93.8688 407.672 93.8688 408.515C93.8688 409.359 94.5533 410.042 95.3978 410.042Z" fill="#D3A9CF"/>
<path d="M100.068 445.687C100.912 445.687 101.597 445.003 101.597 444.16C101.597 443.316 100.912 442.633 100.068 442.633C99.2236 442.633 98.5391 443.316 98.5391 444.16C98.5391 445.003 99.2236 445.687 100.068 445.687Z" fill="#D3A9CF"/>
<path d="M81.665 460.622C82.5094 460.622 83.194 459.938 83.194 459.095C83.194 458.251 82.5094 457.568 81.665 457.568C80.8206 457.568 80.1361 458.251 80.1361 459.095C80.1361 459.938 80.8206 460.622 81.665 460.622Z" fill="#D3A9CF"/>
<path d="M-389 563.979V525.553L55.0892 545.984L410.472 492.879C410.472 492.879 408.137 566.499 410.472 570.247C412.779 574.022 -389 563.979 -389 563.979Z" fill="#964B33"/>
<path d="M40.1612 290.867C39.6608 290.867 39.1604 290.923 38.66 291.006C38.2987 289.174 37.1033 287.564 35.4075 286.731C33.7118 285.898 31.7381 285.843 30.0145 286.62C28.4578 282.345 23.7319 280.152 19.4787 281.706C15.2254 283.261 13.0015 287.98 14.5582 292.228C10.8332 292.339 7.85868 295.448 7.91428 299.168C7.96988 302.888 11.0278 305.913 14.7806 305.913H40.1612C44.3311 305.913 47.7225 302.527 47.7225 298.363C47.6947 294.254 44.3033 290.867 40.1612 290.867Z" fill="white"/>
<path d="M365.465 145.514C364.631 145.514 363.825 145.598 362.991 145.764C362.38 142.71 360.378 140.073 357.57 138.685C354.763 137.297 351.51 137.214 348.647 138.519C346.089 131.44 338.25 127.803 331.189 130.357C324.128 132.911 320.459 140.739 323.016 147.791C316.817 147.985 311.924 153.121 311.98 159.283C312.063 165.474 317.151 170.443 323.322 170.443H365.382C372.276 170.443 377.891 164.835 377.891 157.951C377.975 151.122 372.359 145.514 365.465 145.514Z" fill="white"/>
<path d="M142.434 214.471C142.1 214.471 141.767 214.499 141.433 214.582C141.183 213.333 140.377 212.278 139.237 211.695C138.097 211.14 136.763 211.084 135.623 211.639C134.594 208.752 131.398 207.281 128.534 208.336C125.671 209.363 124.17 212.555 125.226 215.415C122.724 215.498 120.723 217.58 120.751 220.078C120.778 222.577 122.835 224.603 125.365 224.603H142.434C145.241 224.603 147.493 222.327 147.493 219.551C147.493 216.747 145.214 214.471 142.434 214.471Z" fill="white"/>
<path d="M69.3223 133.966C68.9887 133.966 68.6551 133.994 68.3215 134.077C68.0713 132.828 67.2652 131.773 66.1254 131.19C64.9857 130.635 63.6513 130.579 62.5116 131.134C61.483 128.247 58.2861 126.776 55.4229 127.831C52.5596 128.858 51.0585 132.051 52.1148 134.91C49.6129 134.993 47.6114 137.075 47.6392 139.574C47.667 142.072 49.7241 144.098 52.2538 144.098H69.3223C72.13 144.098 74.3817 141.822 74.3817 139.046C74.3817 136.242 72.1022 133.966 69.3223 133.966Z" fill="white"/>
<path d="M276.95 126.716C276.343 126.716 275.756 126.777 275.148 126.899C274.703 124.659 273.246 122.725 271.201 121.707C269.156 120.689 266.788 120.628 264.702 121.585C262.84 116.393 257.131 113.725 251.989 115.599C246.847 117.472 244.175 123.214 246.037 128.385C241.523 128.528 237.96 132.295 238 136.815C238.061 141.355 241.766 145 246.26 145H276.889C281.91 145 285.999 140.887 285.999 135.838C286.06 130.829 281.971 126.716 276.95 126.716Z" fill="white"/>
</g>
<defs>
<clipPath id="clip0">
<rect x="-44" width="800" height="495.049" fill="white"/>
</clipPath>
</defs>
</svg>
