<svg width="135" height="40" viewBox="0 0 135 40" fill="none" xmlns="http://www.w3.org/2000/svg">
<path d="M124.249 0.00013H10.7566C10.3429 0.00013 9.9342 0.00013 9.5216 0.00213C9.17621 0.00413 8.83358 0.00994 8.48488 0.01483C7.72733 0.0227318 6.97157 0.0818063 6.22416 0.19154C5.4778 0.303663 4.75482 0.515046 4.07967 0.81854C3.40534 1.1246 2.7892 1.5223 2.25358 1.9972C1.71514 2.47077 1.26632 3.01815 0.924356 3.61829C0.581453 4.21724 0.343683 4.85907 0.219258 5.52161C0.0936495 6.18332 0.0260586 6.85265 0.0170916 7.52361C0.00662229 7.83021 0.00551669 8.13783 0 8.44447V31.5587C0.00551669 31.8692 0.00662229 32.17 0.0170916 32.4806C0.0260614 33.1516 0.0936522 33.8209 0.219258 34.4825C0.343339 35.1455 0.581124 35.7877 0.924356 36.3868C1.26616 36.985 1.71505 37.5302 2.25358 38.0011C2.78717 38.4781 3.40371 38.8761 4.07967 39.1798C4.75481 39.4841 5.47772 39.6968 6.22416 39.8106C6.9717 39.9195 7.72738 39.9786 8.48488 39.9874C8.83358 39.9942 9.17621 39.9981 9.5216 39.9981C9.93419 40.0001 10.343 40.0001 10.7566 40.0001H124.249C124.655 40.0001 125.067 40.0001 125.472 39.9981C125.816 39.9981 126.169 39.9942 126.512 39.9874C127.268 39.9791 128.023 39.92 128.769 39.8106C129.518 39.696 130.243 39.4834 130.921 39.1798C131.597 38.8759 132.213 38.478 132.746 38.0011C133.283 37.5284 133.733 36.9836 134.079 36.3868C134.42 35.7872 134.655 35.1451 134.777 34.4825C134.903 33.8208 134.973 33.1516 134.987 32.4806C134.991 32.17 134.991 31.8692 134.991 31.5587C135 31.1954 135 30.8341 135 30.4649V9.53626C135 9.17005 135 8.80677 134.991 8.44447C134.991 8.13783 134.991 7.83021 134.987 7.52357C134.973 6.85255 134.903 6.18337 134.777 5.52157C134.655 4.85941 134.419 4.21763 134.079 3.61825C133.383 2.41533 132.278 1.43616 130.921 0.81845C130.243 0.515697 129.518 0.30437 128.769 0.19145C128.023 0.0812328 127.269 0.0221378 126.512 0.01469C126.169 0.00981 125.816 0.00395 125.472 0.002C125.067 0 124.655 0 124.249 0V0.00013Z" fill="#A6A6A6"/>
<path d="M9.52756 39.125C9.18384 39.125 8.84841 39.1211 8.50738 39.1143C7.80091 39.1061 7.09609 39.0516 6.39869 38.9512C5.74841 38.8519 5.11847 38.6673 4.52963 38.4033C3.94619 38.1415 3.41405 37.7983 2.95359 37.3867C2.48647 36.98 2.09757 36.5082 1.8023 35.9902C1.50377 35.4688 1.29718 34.9099 1.18971 34.333C1.07365 33.7131 1.01085 33.0863 1.00187 32.458C0.994715 32.2471 0.985352 31.5449 0.985352 31.5449V8.44434C0.985352 8.44434 0.995325 7.75293 1.00192 7.5498C1.01053 6.92248 1.07296 6.29665 1.18867 5.67773C1.29634 5.09925 1.50309 4.53875 1.80178 4.01563C2.09596 3.49794 2.4827 3.02586 2.94702 2.61768C3.4108 2.20562 3.94465 1.8606 4.52908 1.59521C5.11656 1.33209 5.74532 1.14873 6.39428 1.05127C7.09396 0.949836 7.80123 0.894996 8.51016 0.88721L9.52812 0.875H125.467L126.497 0.8877C127.2 0.895099 127.901 0.94945 128.594 1.05029C129.25 1.14898 129.885 1.33362 130.479 1.59814C131.65 2.13299 132.603 2.97916 133.204 4.01807C133.497 4.53758 133.701 5.09351 133.807 5.66699C133.924 6.29099 133.99 6.92174 134.003 7.5542C134.007 7.8374 134.007 8.1416 134.007 8.44434C134.016 8.81934 134.016 9.17627 134.016 9.53613V30.4648C134.016 30.8281 134.016 31.1826 134.007 31.54C134.007 31.8652 134.007 32.1631 134.002 32.4697C133.989 33.0909 133.925 33.7104 133.809 34.3232C133.704 34.9043 133.499 35.4675 133.2 35.9932C132.903 36.5056 132.516 36.9733 132.055 37.3789C131.594 37.7927 131.061 38.1379 130.476 38.4014C129.883 38.6674 129.249 38.8527 128.594 38.9512C127.897 39.0522 127.192 39.1067 126.485 39.1143C126.155 39.1211 125.809 39.125 125.473 39.125L124.25 39.127L9.52756 39.125Z" fill="black"/>
<path d="M25.8149 19.4152C25.8264 18.5231 26.0634 17.6485 26.5037 16.8726C26.9441 16.0967 27.5736 15.4448 28.3335 14.9776C27.8507 14.288 27.2138 13.7206 26.4733 13.3203C25.7329 12.92 24.9093 12.6978 24.0679 12.6715C22.2732 12.4831 20.5333 13.7454 19.6187 13.7454C18.6865 13.7454 17.2784 12.6902 15.7621 12.7214C14.7813 12.7531 13.8254 13.0383 12.9877 13.5492C12.1499 14.0602 11.4587 14.7794 10.9816 15.6369C8.91455 19.2156 10.4563 24.475 12.4364 27.3678C13.427 28.7843 14.5848 30.3665 16.0997 30.3104C17.5822 30.2489 18.1358 29.3651 19.9253 29.3651C21.6981 29.3651 22.2176 30.3104 23.7632 30.2748C25.354 30.2489 26.3562 28.852 27.3121 27.4221C28.0239 26.4128 28.5716 25.2973 28.9349 24.1169C28.0107 23.726 27.2221 23.0717 26.6673 22.2356C26.1124 21.3995 25.816 20.4186 25.8149 19.4152Z" fill="white"/>
<path d="M22.8956 10.7688C23.7629 9.72755 24.1902 8.38926 24.0868 7.03809C22.7617 7.17726 21.5377 7.81057 20.6586 8.81183C20.2288 9.30097 19.8996 9.87002 19.6899 10.4865C19.4801 11.1029 19.394 11.7546 19.4362 12.4044C20.099 12.4112 20.7547 12.2675 21.3539 11.9842C21.9532 11.7009 22.4803 11.2853 22.8956 10.7688Z" fill="white"/>
<path d="M44.5543 26.7238H39.4953L38.2805 30.311H36.1377L40.9294 17.0391H43.1557L47.9474 30.311H45.7681L44.5543 26.7238ZM40.0193 25.0684H44.0293L42.0525 19.2466H41.9972L40.0193 25.0684Z" fill="white"/>
<path d="M58.2955 25.473C58.2955 28.4799 56.6861 30.4119 54.2574 30.4119C53.6421 30.444 53.0302 30.3023 52.4918 30.0029C51.9534 29.7035 51.5101 29.2585 51.2128 28.7189H51.1669V33.5117H49.1807V20.6343H51.1032V22.2437H51.1398C51.4507 21.7067 51.9015 21.264 52.444 20.9628C52.9865 20.6615 53.6006 20.513 54.2208 20.533C56.6767 20.533 58.2955 22.4744 58.2955 25.473ZM56.254 25.473C56.254 23.5139 55.2416 22.226 53.6969 22.226C52.1793 22.226 51.1585 23.541 51.1585 25.473C51.1585 27.4226 52.1793 28.7283 53.6969 28.7283C55.2416 28.7283 56.254 27.4498 56.254 25.473Z" fill="white"/>
<path d="M68.9459 25.473C68.9459 28.4799 67.3365 30.4118 64.9077 30.4118C64.2925 30.444 63.6806 30.3023 63.1422 30.0029C62.6038 29.7035 62.1605 29.2585 61.8632 28.7189H61.8173V33.5117H59.8311V20.6343H61.7536V22.2437H61.7901C62.1011 21.7067 62.5518 21.264 63.0943 20.9628C63.6369 20.6615 64.2509 20.513 64.8712 20.533C67.3271 20.533 68.9459 22.4743 68.9459 25.473ZM66.9044 25.473C66.9044 23.5139 65.892 22.2259 64.3473 22.2259C62.8297 22.2259 61.8089 23.541 61.8089 25.473C61.8089 27.4226 62.8297 28.7283 64.3473 28.7283C65.892 28.7283 66.9044 27.4498 66.9044 25.473H66.9044Z" fill="white"/>
<path d="M75.9853 26.6132C76.1325 27.9294 77.4111 28.7935 79.1583 28.7935C80.8324 28.7935 82.0368 27.9293 82.0368 26.7426C82.0368 25.7125 81.3104 25.0956 79.5904 24.6729L77.8703 24.2586C75.4332 23.6699 74.3018 22.5302 74.3018 20.6807C74.3018 18.3908 76.2974 16.8179 79.1311 16.8179C81.9356 16.8179 83.8581 18.3908 83.9228 20.6807H81.9178C81.7978 19.3562 80.7029 18.5567 79.1029 18.5567C77.5029 18.5567 76.408 19.3656 76.408 20.5429C76.408 21.4812 77.1073 22.0334 78.818 22.456L80.2802 22.8151C83.0033 23.459 84.1347 24.5529 84.1347 26.4942C84.1347 28.9772 82.1568 30.5323 79.0111 30.5323C76.0678 30.5323 74.0805 29.0137 73.9521 26.6131L75.9853 26.6132Z" fill="white"/>
<path d="M88.4211 18.3447V20.6347H90.2612V22.2075H88.4211V27.542C88.4211 28.3707 88.7895 28.7569 89.5984 28.7569C89.8168 28.7531 90.0349 28.7377 90.2518 28.7109V30.2744C89.8881 30.3424 89.5185 30.3731 89.1485 30.3663C87.1895 30.3663 86.4255 29.6304 86.4255 27.7538V22.2075H85.0186V20.6347H86.4255V18.3447H88.4211Z" fill="white"/>
<path d="M91.3262 25.4733C91.3262 22.4288 93.1193 20.5156 95.9154 20.5156C98.7209 20.5156 100.506 22.4287 100.506 25.4733C100.506 28.5262 98.7303 30.431 95.9154 30.431C93.1015 30.431 91.3262 28.5262 91.3262 25.4733ZM98.4819 25.4733C98.4819 23.3848 97.5248 22.1522 95.9154 22.1522C94.306 22.1522 93.3499 23.3942 93.3499 25.4733C93.3499 27.5701 94.306 28.7934 95.9154 28.7934C97.5248 28.7934 98.4819 27.5701 98.4819 25.4733H98.4819Z" fill="white"/>
<path d="M102.144 20.6342H104.038V22.2812H104.084C104.212 21.7668 104.513 21.3122 104.937 20.9938C105.361 20.6755 105.882 20.5127 106.411 20.5329C106.64 20.5321 106.869 20.557 107.092 20.607V22.4649C106.803 22.3766 106.501 22.336 106.199 22.3448C105.911 22.3331 105.623 22.384 105.356 22.494C105.089 22.6039 104.849 22.7704 104.653 22.9819C104.456 23.1934 104.307 23.4449 104.217 23.7192C104.127 23.9936 104.097 24.2842 104.13 24.5711V30.3105H102.144L102.144 20.6342Z" fill="white"/>
<path d="M116.249 27.4689C115.982 29.2255 114.271 30.431 112.083 30.431C109.268 30.431 107.521 28.545 107.521 25.5192C107.521 22.4841 109.277 20.5156 111.999 20.5156C114.676 20.5156 116.36 22.3547 116.36 25.2886V25.9691H109.526V26.0891C109.494 26.4452 109.539 26.804 109.656 27.1415C109.774 27.4791 109.962 27.7877 110.208 28.0469C110.455 28.3062 110.753 28.5101 111.084 28.645C111.415 28.78 111.771 28.843 112.129 28.8299C112.598 28.8739 113.069 28.7652 113.472 28.5199C113.874 28.2747 114.187 27.9061 114.363 27.4689L116.249 27.4689ZM109.535 24.5809H114.373C114.39 24.2607 114.342 23.9403 114.23 23.6397C114.118 23.3392 113.945 23.065 113.722 22.8344C113.5 22.6038 113.231 22.4218 112.935 22.2997C112.638 22.1776 112.32 22.1182 111.999 22.125C111.676 22.1231 111.355 22.1853 111.056 22.3079C110.756 22.4305 110.484 22.6112 110.255 22.8395C110.026 23.0679 109.845 23.3393 109.721 23.6382C109.597 23.9371 109.534 24.2575 109.535 24.5809V24.5809Z" fill="white"/>
<path d="M39.74 7.75138C40.1564 7.7215 40.5743 7.7844 40.9634 7.93556C41.3526 8.08672 41.7033 8.32236 41.9904 8.62549C42.2774 8.92862 42.4936 9.29168 42.6234 9.68849C42.7531 10.0853 42.7932 10.5059 42.7407 10.9201C42.7407 12.9575 41.6396 14.1286 39.74 14.1286H37.4365V7.75138H39.74ZM38.427 13.2267H39.6294C39.9269 13.2445 40.2247 13.1957 40.501 13.0839C40.7773 12.9721 41.0252 12.8001 41.2267 12.5803C41.4282 12.3606 41.5781 12.0988 41.6656 11.8138C41.7531 11.5289 41.7759 11.228 41.7325 10.9331C41.7728 10.6394 41.7476 10.3404 41.6588 10.0575C41.5699 9.77463 41.4196 9.51492 41.2186 9.29696C41.0176 9.07901 40.7709 8.90821 40.4962 8.7968C40.2214 8.6854 39.9254 8.63615 39.6294 8.65257H38.427V13.2267Z" fill="white"/>
<path d="M43.8603 11.7202C43.8301 11.4039 43.8663 11.0848 43.9666 10.7834C44.0669 10.4819 44.229 10.2047 44.4427 9.9696C44.6564 9.73449 44.9169 9.54664 45.2075 9.41809C45.498 9.28955 45.8122 9.22314 46.1299 9.22314C46.4476 9.22314 46.7618 9.28955 47.0524 9.41809C47.3429 9.54664 47.6034 9.73449 47.8171 9.9696C48.0308 10.2047 48.193 10.4819 48.2933 10.7834C48.3936 11.0848 48.4297 11.4039 48.3995 11.7202C48.4303 12.0368 48.3946 12.3563 48.2945 12.6583C48.1945 12.9602 48.0324 13.2379 47.8187 13.4735C47.6049 13.7091 47.3443 13.8973 47.0534 14.0261C46.7626 14.155 46.448 14.2215 46.1299 14.2215C45.8118 14.2215 45.4973 14.155 45.2064 14.0261C44.9156 13.8973 44.6549 13.7091 44.4412 13.4735C44.2274 13.2379 44.0653 12.9602 43.9653 12.6583C43.8653 12.3563 43.8295 12.0368 43.8603 11.7202ZM47.4226 11.7202C47.4226 10.677 46.9539 10.0669 46.1315 10.0669C45.3059 10.0669 44.8415 10.677 44.8415 11.7202C44.8415 12.7718 45.3059 13.3771 46.1315 13.3771C46.9539 13.3771 47.4226 12.7676 47.4226 11.7202H47.4226Z" fill="white"/>
<path d="M54.432 14.129H53.4467L52.4521 10.5845H52.3769L51.3864 14.129H50.4106L49.084 9.31641H50.0473L50.9095 12.9887H50.9804L51.9699 9.31641H52.881L53.8705 12.9887H53.9456L54.8036 9.31641H55.7534L54.432 14.129Z" fill="white"/>
<path d="M56.8691 9.3159H57.7834V10.0804H57.8544C57.9748 9.80583 58.1779 9.57565 58.4353 9.42195C58.6928 9.26826 58.9917 9.19871 59.2906 9.223C59.5247 9.20539 59.7599 9.2407 59.9785 9.32631C60.1972 9.41191 60.3938 9.54562 60.5538 9.71752C60.7138 9.88943 60.833 10.0951 60.9027 10.3194C60.9724 10.5436 60.9907 10.7807 60.9564 11.013V14.1284H60.0066V11.2515C60.0066 10.4781 59.6705 10.0935 58.9681 10.0935C58.8091 10.0861 58.6504 10.1131 58.5028 10.1728C58.3553 10.2325 58.2224 10.3233 58.1132 10.4392C58.0041 10.555 57.9213 10.6931 57.8705 10.8439C57.8197 10.9948 57.8021 11.1548 57.8189 11.3131V14.1285H56.8691L56.8691 9.3159Z" fill="white"/>
<path d="M62.4697 7.4375H63.4195V14.1288H62.4697V7.4375Z" fill="white"/>
<path d="M64.7402 11.7203C64.71 11.404 64.7462 11.0849 64.8465 10.7834C64.9468 10.4819 65.109 10.2047 65.3227 9.96962C65.5365 9.7345 65.7969 9.54665 66.0875 9.4181C66.3781 9.28955 66.6923 9.22314 67.01 9.22314C67.3278 9.22314 67.642 9.28955 67.9326 9.4181C68.2231 9.54665 68.4836 9.7345 68.6973 9.96962C68.911 10.2047 69.0733 10.4819 69.1736 10.7834C69.2739 11.0849 69.3101 11.404 69.2799 11.7203C69.3107 12.0369 69.2749 12.3564 69.1748 12.6584C69.0748 12.9603 68.9126 13.238 68.6989 13.4736C68.4851 13.7092 68.2244 13.8974 67.9336 14.0262C67.6427 14.155 67.3281 14.2216 67.01 14.2216C66.6919 14.2216 66.3774 14.155 66.0865 14.0262C65.7957 13.8974 65.535 13.7092 65.3212 13.4736C65.1074 13.238 64.9453 12.9603 64.8453 12.6584C64.7452 12.3564 64.7094 12.0369 64.7402 11.7203ZM68.3024 11.7203C68.3024 10.6771 67.8338 10.067 67.0113 10.067C66.1858 10.067 65.7213 10.6771 65.7213 11.7203C65.7213 12.7718 66.1858 13.3772 67.0113 13.3772C67.8338 13.3772 68.3024 12.7677 68.3024 11.7203H68.3024Z" fill="white"/>
<path d="M70.2793 12.7676C70.2793 11.9013 70.9243 11.4019 72.0693 11.3309L73.3729 11.2558V10.8404C73.3729 10.3321 73.0368 10.0451 72.3876 10.0451C71.8574 10.0451 71.49 10.2397 71.3846 10.58H70.4651C70.5621 9.75335 71.3397 9.22314 72.4314 9.22314C73.638 9.22314 74.3185 9.82379 74.3185 10.8404V14.1286H73.4042V13.4523H73.329C73.1765 13.6949 72.9623 13.8927 72.7084 14.0254C72.4544 14.1582 72.1698 14.2212 71.8835 14.2079C71.6815 14.2289 71.4773 14.2074 71.2841 14.1446C71.0909 14.0819 70.913 13.9794 70.7618 13.8437C70.6107 13.708 70.4897 13.5421 70.4066 13.3568C70.3234 13.1714 70.2801 12.9707 70.2793 12.7676ZM73.3729 12.3564V11.954L72.1977 12.0292C71.5349 12.0735 71.2343 12.299 71.2343 12.7232C71.2343 13.1564 71.61 13.4084 72.1267 13.4084C72.2781 13.4238 72.431 13.4085 72.5764 13.3635C72.7217 13.3185 72.8566 13.2448 72.9728 13.1466C73.0891 13.0484 73.1844 12.9279 73.2532 12.7921C73.3219 12.6564 73.3626 12.5082 73.3729 12.3564Z" fill="white"/>
<path d="M75.5664 11.7204C75.5664 10.1997 76.3482 9.23637 77.5641 9.23637C77.8649 9.22251 78.1634 9.29455 78.4247 9.44406C78.686 9.59358 78.8994 9.81439 79.0399 10.0807H79.1109V7.4375H80.0607V14.1288H79.1506V13.3684H79.0754C78.9241 13.6329 78.7032 13.851 78.4368 13.999C78.1704 14.147 77.8686 14.2193 77.5641 14.2081C76.3398 14.2082 75.5664 13.2448 75.5664 11.7204ZM76.5475 11.7204C76.5475 12.7412 77.0287 13.3554 77.8334 13.3554C78.6339 13.3554 79.1287 12.7323 79.1287 11.7246C79.1287 10.7216 78.6287 10.0896 77.8334 10.0896C77.0339 10.0896 76.5475 10.708 76.5475 11.7204H76.5475Z" fill="white"/>
<path d="M83.9912 11.7202C83.9609 11.4039 83.9971 11.0848 84.0974 10.7834C84.1977 10.4819 84.3599 10.2047 84.5736 9.9696C84.7873 9.73449 85.0478 9.54664 85.3383 9.41809C85.6289 9.28955 85.9431 9.22314 86.2608 9.22314C86.5785 9.22314 86.8927 9.28955 87.1832 9.41809C87.4738 9.54664 87.7343 9.73449 87.9479 9.9696C88.1616 10.2047 88.3238 10.4819 88.4241 10.7834C88.5244 11.0848 88.5606 11.4039 88.5303 11.7202C88.5612 12.0368 88.5254 12.3563 88.4254 12.6583C88.3254 12.9602 88.1633 13.2379 87.9495 13.4735C87.7358 13.7091 87.4751 13.8973 87.1843 14.0261C86.8934 14.155 86.5789 14.2215 86.2608 14.2215C85.9427 14.2215 85.6281 14.155 85.3373 14.0261C85.0464 13.8973 84.7858 13.7091 84.572 13.4735C84.3583 13.2379 84.1962 12.9602 84.0961 12.6583C83.9961 12.3563 83.9604 12.0368 83.9912 11.7202ZM87.5534 11.7202C87.5534 10.677 87.0848 10.0669 86.2623 10.0669C85.4368 10.0669 84.9723 10.677 84.9723 11.7202C84.9723 12.7718 85.4368 13.3771 86.2623 13.3771C87.0848 13.3771 87.5534 12.7676 87.5534 11.7202Z" fill="white"/>
<path d="M89.8037 9.3159H90.718V10.0804H90.789C90.9094 9.80583 91.1125 9.57565 91.3699 9.42195C91.6273 9.26826 91.9263 9.19871 92.2252 9.223C92.4593 9.20539 92.6944 9.2407 92.9131 9.32631C93.1318 9.41191 93.3284 9.54562 93.4884 9.71752C93.6483 9.88943 93.7676 10.0951 93.8373 10.3194C93.907 10.5436 93.9253 10.7807 93.8909 11.013V14.1284H92.9411V11.2515C92.9411 10.4781 92.6051 10.0935 91.9026 10.0935C91.7437 10.0861 91.5849 10.1131 91.4374 10.1728C91.2898 10.2325 91.1569 10.3233 91.0478 10.4392C90.9386 10.555 90.8558 10.6931 90.805 10.8439C90.7542 10.9948 90.7367 11.1548 90.7535 11.3131V14.1285H89.8037V9.3159Z" fill="white"/>
<path d="M99.2578 8.11816V9.33827H100.3V10.1383H99.2578V12.613C99.2578 13.1171 99.4655 13.3378 99.9383 13.3378C100.059 13.3374 100.18 13.3301 100.3 13.3159V14.107C100.13 14.1375 99.9571 14.1538 99.7838 14.1556C98.7276 14.1556 98.307 13.784 98.307 12.8561V10.1382H97.543V9.33823H98.307V8.11816H99.2578Z" fill="white"/>
<path d="M101.6 7.4375H102.541V10.0896H102.616C102.742 9.81245 102.951 9.58096 103.214 9.42669C103.476 9.27241 103.78 9.20285 104.084 9.22749C104.317 9.21481 104.549 9.2537 104.766 9.34139C104.982 9.42907 105.176 9.56339 105.334 9.73475C105.493 9.90611 105.611 10.1103 105.681 10.3328C105.752 10.5552 105.772 10.7904 105.741 11.0216V14.1288H104.79V11.2559C104.79 10.4872 104.432 10.0979 103.761 10.0979C103.598 10.0845 103.434 10.107 103.28 10.1637C103.126 10.2204 102.987 10.31 102.872 10.4262C102.756 10.5424 102.668 10.6824 102.612 10.8365C102.556 10.9905 102.535 11.1549 102.549 11.318V14.1288H101.6L101.6 7.4375Z" fill="white"/>
<path d="M111.278 12.8293C111.149 13.2691 110.87 13.6496 110.488 13.9041C110.107 14.1586 109.649 14.271 109.193 14.2216C108.876 14.23 108.561 14.1692 108.269 14.0436C107.978 13.918 107.718 13.7305 107.506 13.4942C107.295 13.2578 107.137 12.9783 107.045 12.675C106.952 12.3716 106.926 12.0517 106.97 11.7375C106.928 11.4224 106.954 11.1018 107.046 10.7976C107.138 10.4933 107.295 10.2125 107.506 9.97408C107.716 9.73566 107.975 9.54524 108.265 9.41569C108.556 9.28615 108.871 9.22051 109.189 9.22323C110.528 9.22323 111.336 10.1381 111.336 11.6493V11.9807H107.937V12.034C107.922 12.2106 107.945 12.3884 108.002 12.5559C108.06 12.7234 108.152 12.877 108.273 13.0068C108.394 13.1366 108.54 13.2398 108.703 13.3097C108.866 13.3796 109.042 13.4147 109.219 13.4127C109.446 13.44 109.676 13.3991 109.88 13.2952C110.084 13.1913 110.252 13.0291 110.364 12.8292L111.278 12.8293ZM107.937 11.2783H110.368C110.38 11.1168 110.358 10.9545 110.304 10.802C110.249 10.6495 110.163 10.51 110.052 10.3926C109.94 10.2752 109.805 10.1824 109.656 10.1203C109.506 10.0581 109.345 10.0279 109.183 10.0316C109.019 10.0295 108.856 10.0604 108.704 10.1223C108.552 10.1842 108.414 10.276 108.297 10.3922C108.181 10.5084 108.09 10.6466 108.028 10.7988C107.966 10.951 107.935 11.114 107.937 11.2783H107.937Z" fill="white"/>
</svg>
