<svg width="29" height="29" viewBox="0 0 29 29" fill="none" xmlns="http://www.w3.org/2000/svg">
<path d="M24.4139 0H3.80222C1.70235 0 0 1.74956 0 3.90781V25.0921C0 27.2503 1.70228 28.9999 3.80222 28.9999H13.9678L13.9851 18.6369H11.3656C11.0252 18.6369 10.7489 18.354 10.7475 18.0041L10.735 14.6637C10.7337 14.3119 11.0108 14.026 11.3531 14.026H13.9679V10.7983C13.9679 7.05257 16.1937 5.013 19.4448 5.013H22.1126C22.454 5.013 22.7308 5.29741 22.7308 5.64829V8.46494C22.7308 8.81568 22.4542 9.10001 22.113 9.10022L20.4758 9.101C18.7077 9.101 18.3654 9.9645 18.3654 11.2317V14.026H22.2504C22.6206 14.026 22.9078 14.3583 22.8642 14.7361L22.479 18.0765C22.4421 18.3962 22.1784 18.637 21.8652 18.637H18.3827L18.3654 29H24.4141C26.5139 29 28.2162 27.2504 28.2162 25.0923V3.90781C28.2161 1.74956 26.5139 0 24.4139 0Z" fill="#92D2E8"/>
</svg>
