<?xml version="1.0" encoding="utf-8"?>
<!-- Generator: Adobe Illustrator 23.0.4, SVG Export Plug-In . SVG Version: 6.00 Build 0)  -->
<svg version="1.1" id="Capa_1" xmlns="http://www.w3.org/2000/svg" xmlns:xlink="http://www.w3.org/1999/xlink" x="0px" y="0px"
	 viewBox="0 0 1394 483" style="enable-background:new 0 0 1394 483;" xml:space="preserve">
<style type="text/css">
	.st0{fill:#92D2E8;}
	.st1{fill:#D9E7F9;}
	.st2{fill:#DAE7F9;}
	.st3{fill:#27306A;}
	.st4{fill:#263069;}
	.st5{fill:#26306A;}
	.st6{fill:#252F69;}
	.st7{fill:#F87060;}
	.st8{fill:#F86F60;}
	.st9{fill:#F86E5E;}
	.st10{fill:#2A336C;}
	.st11{fill:#2A346C;}
	.st12{fill:#F87061;}
	.st13{fill:#F87566;}
	.st14{fill:#F87263;}
	.st15{fill:#252E68;}
	.st16{fill:#F86F5F;}
	.st17{fill:#28316B;}
	.st18{fill:#F86E5F;}
	.st19{fill:#28326B;}
	.st20{fill:#F86C5C;}
	.st21{fill:#F87364;}
	.st22{fill:#F87162;}
	.st23{fill:#F86D5E;}
	.st24{fill:#F97B6D;}
</style>
<path class="st0" d="M782.9,114.6C880.1-37.6,1170.8,6,1170.8,6c80.8,7.5,223.2,34.6,223.2,34.6v442.5H0
	c20.7-109.8,189.4-151.4,271.1-158.5c174.7-19,262.9,66.6,372.5,38C732.3,332.4,685.7,266.7,782.9,114.6z"/>
<path class="st1" d="M603.9,419.3c-1.5-1.1-3.1-2-4.2-3.6c-0.7-1-0.7-2,0.2-2.5c0.8-0.5,1.7-0.2,2.3,0.8c0.5,0.8,0.9,1.4,1.7,2
	c1,0.6,1.6,1.6,1.6,2.2C605.5,418.6,605,419.5,603.9,419.3z"/>
<path class="st1" d="M385.7,346.7c-1.5-1.1-3.1-2-4.2-3.6c-0.7-1-0.7-2,0.2-2.5c0.8-0.5,1.7-0.2,2.3,0.8c0.4,0.8,0.9,1.4,1.7,2
	c1,0.6,1.6,1.6,1.6,2.2C387.3,346,386.9,346.8,385.7,346.7z"/>
<path class="st1" d="M248.2,350.3c-0.3,1-1.1,1.8-1.9,2.2c-0.8,0.4-1.2-0.5-1.7-1c-2-2.4-4.3-4.5-6.1-7c-0.4-0.5-0.7-1.1-1.1-1.7
	c-0.6-0.7-0.4-1.4,0.1-2c0.7-0.7,1.4-0.3,2,0.2c2,1.9,4,3.8,5.8,5.9c0.7,0.9,1.6,1.7,2.3,2.5C247.9,349.7,248.3,349.9,248.2,350.3z"
	/>
<path class="st1" d="M477.1,387.3c0.4-0.2,0.9-0.5,1.5-0.7c3.2-1.1,6.6-1.3,9.9-2c0.7-0.2,1.4,0,1.6,0.8c0.2,0.8-0.3,1.2-1,1.5
	c-2.9,1-5.8,2.5-9,2.5c-0.7,0-1.3,0.3-1.9,0.4c-0.7,0.1-1.1-0.2-1.3-0.8C476.5,388.5,476.6,388,477.1,387.3z"/>
<path class="st1" d="M251.7,412.6c0.4-0.2,0.9-0.5,1.5-0.7c3.2-1.1,6.6-1.3,9.9-2c0.7-0.2,1.4,0,1.6,0.8c0.2,0.8-0.3,1.2-1,1.5
	c-2.9,1-5.8,2.5-9,2.5c-0.7,0-1.3,0.3-1.9,0.4c-0.7,0.1-1.1-0.2-1.3-0.8C251.1,413.8,251.3,413.3,251.7,412.6z"/>
<path class="st1" d="M62.9,433.5c-0.9,0-1.5,0-2-0.4c-3.5-2.7-6.8-5.6-9.5-9.2c-0.8-1.1-1.1-2-0.1-3c0.9-1,1.9-0.5,2.9,0
	c3.6,1.9,7.3,3.6,9.9,6.9c0.9,1.1,1.8,2.2,1.1,3.7C64.6,432.6,64.2,433.7,62.9,433.5z"/>
<path class="st2" d="M158.8,418.3c0.6,0.2,1.4-0.3,1.7,0.4c0.3,0.7-0.4,1.1-0.8,1.6c-0.5,0.8-1.3,1.3-1.8,2.1
	c-1.1,1.6-2.9,1.5-4.4,1.8c-0.4,0.1-0.8,0-1.1-0.4c-0.3-0.4,0-0.7,0.2-1.1c1.3-1.8,3.2-2.9,4.8-4.3
	C157.7,418.3,158.4,418.4,158.8,418.3z"/>
<path class="st2" d="M37.8,468.8c0.6,0.2,1.4-0.3,1.7,0.4c0.3,0.7-0.4,1.1-0.8,1.6c-0.5,0.8-1.3,1.3-1.8,2.1
	c-1.1,1.6-2.9,1.5-4.4,1.8c-0.4,0.1-0.8,0-1.1-0.4c-0.3-0.4,0-0.7,0.2-1.1c1.3-1.8,3.2-2.9,4.8-4.3
	C36.7,468.8,37.3,468.9,37.8,468.8z"/>
<path class="st2" d="M187.8,340.4c0.6,0.2,1.4-0.3,1.7,0.4c0.3,0.7-0.4,1.1-0.8,1.6c-0.5,0.8-1.3,1.3-1.8,2.1
	c-1.1,1.6-2.9,1.5-4.4,1.8c-0.4,0.1-0.8,0-1.1-0.4c-0.3-0.4,0-0.7,0.2-1.1c1.3-1.8,3.2-2.9,4.8-4.3
	C186.8,340.4,187.5,340.5,187.8,340.4z"/>
<path class="st2" d="M680.8,407.2c0.6,0.2,1.4-0.3,1.7,0.4c0.3,0.7-0.4,1.1-0.8,1.6c-0.5,0.8-1.3,1.3-1.8,2.1
	c-1.1,1.6-2.9,1.5-4.4,1.8c-0.4,0.1-0.8,0-1.1-0.4c-0.3-0.4,0-0.7,0.2-1.1c1.3-1.8,3.2-2.9,4.8-4.3
	C679.8,407.1,680.4,407.2,680.8,407.2z"/>
<path class="st3" d="M514.1,367.6c1,0.2,1.8,0.7,2.5,1.4c1.9,1.8,3.1,4.2,4.5,6.3c0.6,0.9,0.4,1.7-0.3,2.3c-0.7,0.7-1.8,0.8-2.4,0.1
	c-2-2.6-4-5.2-5.7-8C512.1,368.8,512.8,367.7,514.1,367.6z"/>
<path class="st3" d="M439.1,375.3c0.4,0.7,0.5,1.4,0.5,2.2c0,2.1-0.7,4.1-1.1,6.1c-0.2,0.9-0.8,1.1-1.5,1.1c-0.8,0-1.4-0.6-1.3-1.3
	c0.4-2.6,0.8-5.2,1.5-7.7C437.3,374.7,438.3,374.5,439.1,375.3z"/>
<path class="st3" d="M630.5,387.5c0.8,0.1,1.4,0.6,2,1.1c1.6,1.5,2.5,3.4,3.7,5.1c0.5,0.8,0.3,1.3-0.2,1.9c-0.6,0.6-1.5,0.6-1.9,0.1
	c-1.6-2.1-3.2-4.2-4.6-6.5C628.8,388.5,629.4,387.6,630.5,387.5z"/>
<path class="st4" d="M367,393.8c-0.5,1.5-1.6,1.8-2.9,1.1c-1.6-0.9-2.5-2.4-3.6-3.7c-1.3-1.5-2.5-3.1-3.7-4.7
	c-0.4-0.6-0.4-1.3,0.2-1.8c0.5-0.4,1.1-0.6,1.6,0c2.6,2.6,5.4,4.8,7.6,7.8C366.7,392.7,366.8,393.3,367,393.8z"/>
<path class="st4" d="M207.4,411.6c-0.5,1.5-1.6,1.8-2.9,1.1c-1.6-0.9-2.5-2.4-3.6-3.7c-1.3-1.5-2.5-3.1-3.7-4.7
	c-0.4-0.6-0.4-1.3,0.2-1.8c0.5-0.4,1.1-0.6,1.6,0c2.6,2.6,5.4,4.8,7.6,7.8C207,410.6,207.2,411.1,207.4,411.6z"/>
<path class="st4" d="M36.5,449.9c-0.5,1.5-1.6,1.8-2.9,1.1c-1.6-0.9-2.5-2.4-3.6-3.7c-1.3-1.5-2.5-3.1-3.7-4.7
	c-0.4-0.6-0.4-1.3,0.2-1.8c0.5-0.4,1.1-0.6,1.6,0c2.6,2.6,5.4,4.8,7.6,7.8C36.1,448.9,36.3,449.4,36.5,449.9z"/>
<path class="st3" d="M610.3,475c0.1,1.4-1.3,2.5-2.7,1.8c-2.2-1.3-4.3-2.6-6.3-4.2c-1.4-1.1-0.7-3.2,1-3.6
	C604.3,468.5,610.2,473,610.3,475z"/>
<path class="st5" d="M210.8,364c0-0.9,0.3-1.8,1.5-2c1.1-0.2,1.8,0.2,2.2,1.3c0.8,2.1,1.6,4.2,2.3,6.3c0.3,1,0.2,2.1-1,2.6
	c-1.3,0.5-2.2,0.2-2.9-0.9C211.2,369.1,211.2,366.6,210.8,364z"/>
<path class="st5" d="M501.8,423.2c0-0.9,0.3-1.8,1.5-2c1.1-0.2,1.8,0.2,2.2,1.3c0.8,2.1,1.6,4.2,2.3,6.3c0.3,1,0.2,2.1-1,2.6
	s-2.2,0.2-2.9-0.9C502.3,428.4,502.3,425.8,501.8,423.2z"/>
<path class="st5" d="M545.3,413.5c0-0.7,0.2-1.4,1.2-1.6c0.9-0.2,1.5,0.2,1.8,1c0.6,1.7,1.3,3.3,1.8,5c0.2,0.8,0.2,1.6-0.8,2.1
	c-1,0.4-1.7,0.1-2.3-0.7C545.7,417.5,545.7,415.5,545.3,413.5z"/>
<path class="st6" d="M77.3,398.4c-0.2,1.6-0.1,2.9-0.4,4.3c-0.2,1.2-0.4,1.8-1.8,1.8c-1.6,0.1-1.9-0.8-2-2c-0.4-2.7,0.4-5.3,1-7.9
	c0.2-0.9,0.7-1.5,1.6-1.5c0.9,0,1.3,0.9,1.5,1.6C77.5,396,77.4,397.4,77.3,398.4z"/>
<path class="st4" d="M291.9,429.1c1.2-2.7,3-5.4,5.2-7.6c0.7-0.7,1.4,0.2,2.1,0.6c0.7,0.4,0.9,0.9,0.6,1.7c-1.1,3.1-3.4,5.1-5.6,7.4
	c-0.4,0.4-1.1,0.5-1.7,0.1C291.8,430.8,291.9,430.1,291.9,429.1z"/>
<path class="st7" d="M588,438.5c-0.3,2.8-2,4.5-3.7,4.3c-1.8-0.2-3.4-2.4-3-4.2c0.4-2,2-2.9,3.8-2.9
	C586.8,435.8,587.9,437.2,588,438.5z"/>
<path class="st8" d="M276.2,371.7c0,2.2-1.6,4.2-3.4,4.2c-1.6,0-3.4-1.9-3.5-3.6c0-1.6,1.8-3.5,3.6-3.4
	C275,368.9,276,369.9,276.2,371.7z"/>
<path class="st9" d="M437.7,420.4c0.2-1.8,1.7-2.7,3.6-2.7c1.8,0,3.1,1.1,3.2,3.1c0.1,2-1.8,4-3.5,3.9
	C439.2,424.4,437.7,422.6,437.7,420.4z"/>
<path class="st10" d="M149.3,369.6c-0.9-0.2-1.6-0.8-0.9-1.6c1.8-2.3,3.7-4.6,5.6-6.9c0.4-0.5,1-0.6,1.6-0.3c0.8,0.4,1,1.2,0.6,1.8
	c-1.6,2.6-3.2,5.4-6.2,6.8C149.8,369.6,149.6,369.6,149.3,369.6z"/>
<path class="st11" d="M345.4,343c-0.2,0.9,1.1,3.3-1.1,3.6c-2,0.2-2.3-2.2-2.6-3.8c-0.3-1.4-0.9-2.9,0.7-4c0.6-0.4,1.1-1.2,2-0.9
	c0.9,0.3,1,1.1,1,1.9C345.4,340.7,345.4,341.5,345.4,343z"/>
<path class="st12" d="M129.8,393.1c0.4-2.8,2-4.8,3.8-4.3c1.5,0.4,2.7,1.3,2.4,3.1c-0.2,1.2-4,3.4-5.3,3.1
	C129.7,394.8,129.6,394.1,129.8,393.1z"/>
<path class="st11" d="M278.7,344.2c-0.9-0.2-1.8-0.7-1.1-1.7c1.4-2,2.9-3.9,4.6-5.7c0.7-0.7,1.7-0.7,2,0.4
	C284.8,339.2,280.9,344.2,278.7,344.2z"/>
<path class="st13" d="M391.6,384c-1.9-0.2-2.9-1.2-2.9-3.1c0-1.7,1.3-2.5,2.8-2.5c1.9,0,2.7,1.5,2.8,3.1
	C394.4,383.4,393,383.8,391.6,384z"/>
<path class="st7" d="M581.2,377.5c0.1,2.5-0.9,3.7-2.5,3.7c-1.7,0-2.7-1.3-2.8-3.1c-0.1-1.7,0.8-2.7,2.4-2.8
	C580.3,375.1,581.1,376.4,581.2,377.5z"/>
<path class="st7" d="M465.2,352.5c0.1,2.2-0.7,3.2-2.2,3.2c-1.5,0-2.4-1.1-2.5-2.7c-0.1-1.5,0.7-2.3,2.1-2.4
	C464.4,350.5,465.1,351.6,465.2,352.5z"/>
<path class="st7" d="M349.8,418.8c0.1,1.6-0.5,2.4-1.6,2.4c-1.1,0-1.8-0.9-1.8-2c0-1.1,0.5-1.7,1.6-1.8
	C349.2,417.3,349.7,418.2,349.8,418.8z"/>
<path class="st7" d="M329.3,475.4c0.1,1.6-0.5,2.4-1.6,2.4c-1.1,0-1.8-0.9-1.8-2c0-1.1,0.5-1.7,1.6-1.8
	C328.7,473.9,329.3,474.7,329.3,475.4z"/>
<path class="st14" d="M328.8,327.3c-0.2,1.8-1.2,2.8-2.8,2.7c-1.9-0.1-3.1-1.4-3.1-3.2c0-1.3,0.8-2.5,2.5-2.4
	C327.5,324.6,328.4,325.7,328.8,327.3z"/>
<path class="st8" d="M675.4,384.8c-2.4-0.1-3.3-1.1-3.2-2.9c0-1.5,1-2.4,2.3-2.2c1.3,0.2,3.1,0.7,3,2.3
	C677.3,383.2,676.8,385,675.4,384.8z"/>
<path class="st11" d="M101.9,424.1c-0.9-0.2-1.8-0.7-1.1-1.7c1.4-2,2.9-3.9,4.6-5.7c0.7-0.7,1.7-0.7,2,0.5
	C108.1,419.1,104.1,424.1,101.9,424.1z"/>
<path class="st1" d="M1113.3,395.8c0,0-0.9,1.5-1.1,2.5c-0.4,1.8-0.8,3.5-1.4,5.2c-0.4,1.4-1.3,2.2-3,1.9c-1.4-0.3-1.9-1.6-1.7-2.7
	c0.8-4.2,1.9-8.4,3.8-12.3C1112.1,388,1114.4,387.9,1113.3,395.8z"/>
<path class="st1" d="M724.6,263.8c1.9,1.9,4.1,3.4,5.4,6.1c0.9,1.7,0.9,3.3-0.3,4.2c-1,0.9-2.2,0.3-3-1.3c-0.6-1.3-1.2-2.4-2.2-3.3
	c-1.3-1-2.1-2.7-2.1-3.7C722.4,264.9,723,263.5,724.6,263.8z"/>
<path class="st1" d="M763.4,330.4c1.5,1.3,3.1,2.4,4.2,4.3c0.7,1.2,0.7,2.3-0.2,3c-0.8,0.6-1.8,0.2-2.3-1c-0.4-0.9-0.9-1.7-1.7-2.3
	c-1-0.7-1.6-2-1.6-2.6C761.8,331.2,762.2,330.2,763.4,330.4z"/>
<path class="st1" d="M782.2,123.4c1.5,1.3,3.1,2.4,4.2,4.3c0.7,1.2,0.7,2.3-0.2,3c-0.8,0.6-1.8,0.2-2.3-1c-0.5-0.9-0.9-1.7-1.7-2.3
	c-1-0.7-1.6-2-1.6-2.6C780.6,124.2,781,123.2,782.2,123.4z"/>
<path class="st1" d="M1003.4,118.3c1.5,1.1,3.1,2,4.2,3.6c0.7,1,0.7,2-0.2,2.5c-0.8,0.5-1.7,0.2-2.3-0.8c-0.5-0.8-0.9-1.4-1.7-2
	c-1-0.6-1.6-1.6-1.6-2.2C1001.8,119,1002.2,118.1,1003.4,118.3z"/>
<path class="st1" d="M1250.7,220.3c2.2,1.7,4.8,3.1,6.4,5.6c1,1.6,1,3-0.3,3.9c-1.2,0.8-2.7,0.2-3.5-1.3c-0.7-1.2-1.4-2.2-2.6-3
	c-1.5-0.9-2.4-2.5-2.4-3.4S1248.8,219.9,1250.7,220.3z"/>
<path class="st1" d="M938.4,192.7c1.7,1.3,3.6,2.3,4.7,4.2c0.7,1.1,0.7,2.2-0.2,2.9c-0.9,0.6-2,0.2-2.6-0.9
	c-0.5-0.9-1.1-1.7-1.9-2.2c-1.1-0.7-1.8-1.9-1.8-2.5C936.5,193.4,937,192.4,938.4,192.7z"/>
<path class="st15" d="M1137.1,388.9c1.3-1.4,1.8-2.7,3.1-4.1c0.5-0.6,1.2-0.9,1.9-1.1c1.1-0.3,1.5,0.4,1.9,1.1
	c0.4,0.8,0,1.6-0.6,1.8c-1.6,0.5-2.4,2-3.8,2.8c-1.1,0.7-1.8,1.9-2.6,0.9C1136.8,390,1137.1,389.4,1137.1,388.9z"/>
<path class="st15" d="M707.3,374.6c1.3-1.4,1.8-2.7,3.1-4.1c0.5-0.6,1.1-0.9,1.9-1.1c1.1-0.3,1.5,0.4,1.9,1.1c0.4,0.8,0,1.6-0.6,1.8
	c-1.6,0.5-2.4,2-3.8,2.8c-1.1,0.7-1.8,1.9-2.6,0.9C707,375.7,707.3,375.1,707.3,374.6z"/>
<path class="st15" d="M791.9,175.6c-0.5-1.6-1.2-2.6-1.7-4.2c-0.2-0.7-0.2-1.3,0-2c0.3-0.9,0.9-0.9,1.7-0.9c0.8,0,1.2,0.7,1.1,1.2
	c-0.4,1.4,0.4,2.7,0.5,4.1c0,1.1,0.7,2.2-0.5,2.3C792.6,176.4,792.3,175.9,791.9,175.6z"/>
<path class="st15" d="M783.8,297.8c1.1-1.2,1.6-2.3,2.7-3.6c0.5-0.5,1-0.8,1.7-1c0.9-0.2,1.3,0.3,1.6,1c0.4,0.7,0,1.4-0.5,1.6
	c-1.4,0.4-2.1,1.7-3.2,2.5c-0.9,0.5-1.5,1.6-2.2,0.8C783.6,298.7,783.8,298.2,783.8,297.8z"/>
<path class="st1" d="M1286.9,99.3c0.3-1,1.1-1.8,1.9-2.2c0.8-0.4,1.2,0.4,1.7,1c2,2.4,4.3,4.5,6.1,7c0.4,0.5,0.7,1.1,1.1,1.7
	c0.6,0.7,0.4,1.4-0.1,2c-0.7,0.7-1.4,0.3-2-0.2c-2-1.9-4-3.8-5.8-5.9c-0.7-0.9-1.6-1.7-2.3-2.5C1287.2,99.9,1286.9,99.8,1286.9,99.3
	z"/>
<path class="st1" d="M718.6,406.2c0.4-1.2,1.3-2.1,2.1-2.7c0.6-0.5,1.2,0.4,1.8,1c2.3,2.5,5.2,4.2,7.4,6.9c0.5,0.7,1.1,1.3,1.7,2
	c0.7,0.8,0.7,1.7,0,2.4c-0.8,0.8-1.7,0.3-2.3-0.2c-1.9-1.4-3.8-2.9-5.6-4.5c-1.4-1.3-2.7-2.7-4.3-3.9
	C719.1,406.9,718.8,406.5,718.6,406.2z"/>
<path class="st1" d="M1066.8,306.3c0.4-1.1,1.2-1.9,1.9-2.5c0.6-0.4,1.1,0.4,1.6,0.9c2.1,2.2,4.7,3.8,6.7,6.2c0.5,0.6,1,1.2,1.5,1.8
	c0.6,0.7,0.6,1.5,0,2.2c-0.7,0.7-1.5,0.3-2.1-0.2c-1.7-1.3-3.4-2.7-5-4c-1.3-1.1-2.4-2.5-3.8-3.5
	C1067.3,306.9,1067.1,306.6,1066.8,306.3z"/>
<path class="st1" d="M1378.3,389c-0.7-0.3-1.4-0.9-1.7-1.6c-1.1-2.7-3.6-4.2-5.2-6.5c-0.6-0.9-1.6-1.8-0.7-3.1
	c0.8-1.1,2.4-1,3.7,0.4c1.3,1.4,3.1,2.3,4.2,3.7c1.1,1.3,2.5,2.7,2.2,4.8C1380.7,387.5,1379.2,389,1378.3,389z"/>
<path class="st1" d="M874.4,371.2c-0.3-0.7-0.4-1.5-0.2-2.1c0.9-2.6,0.1-5.2,0.4-7.7c0.1-1,0-2.2,1.4-2.5c1.2-0.2,2.3,0.8,2.3,2.5
	c0,1.8,0.7,3.4,0.7,5.1c-0.1,1.6,0.1,3.4-1.4,4.7C877,371.7,875,371.8,874.4,371.2z"/>
<path class="st1" d="M912.2,77.6c-0.4,0.2-0.9,0.5-1.5,0.7c-3.2,1.1-6.6,1.3-9.9,2c-0.7,0.2-1.4,0-1.6-0.8c-0.2-0.8,0.3-1.2,1-1.5
	c2.9-1,5.8-2.5,9-2.5c0.7,0,1.3-0.3,1.9-0.4c0.7-0.1,1.1,0.2,1.3,0.8C912.7,76.5,912.6,77,912.2,77.6z"/>
<path class="st1" d="M1137.5,52.3c-0.4,0.2-0.9,0.5-1.5,0.7c-3.2,1.1-6.6,1.3-9.9,2c-0.7,0.2-1.4,0-1.5-0.8c-0.2-0.8,0.3-1.2,1-1.5
	c2.9-1,5.8-2.5,8.9-2.5c0.7,0,1.3-0.3,1.9-0.4c0.7-0.1,1.1,0.2,1.3,0.8C1138,51.2,1137.9,51.7,1137.5,52.3z"/>
<path class="st1" d="M808.5,249.4c-0.4,0.1-1.1,0.4-1.8,0.4c-3.7,0.5-7.4,0-11,0.1c-0.8,0-1.5-0.2-1.5-1.2c0-0.9,0.6-1.3,1.4-1.4
	c3.4-0.5,6.7-1.6,10.2-0.9c0.7,0.1,1.4,0,2.2,0s1.1,0.4,1.3,1.1C809.4,248.2,809.1,248.8,808.5,249.4z"/>
<path class="st1" d="M1346.2,183.7c0.5,2.6-0.8,5.1-0.7,7.8c0,0.7-0.4,1.5-1.2,1.5c-0.8,0-1.1-0.7-1.3-1.4c-0.6-1.7-0.1-3.4-0.3-5.1
	c-0.2-2.1,0.1-4.2,0.3-6.3c0.1-1.1,0.7-1.6,1.6-1.7s1.5,0.7,1.6,1.5C1346.3,181.2,1346.2,182.4,1346.2,183.7z"/>
<path class="st1" d="M1126.5,154.5c-0.7,0.4-1.3,0.3-1.8-0.2c-0.6-0.5-0.3-1.2,0-1.8c0.9-1.8,2.5-3,3.6-4.6c1.8-2.4,4.2-4.1,6.5-6
	c0.9-0.8,1.9-0.5,2.7,0c0.9,0.7,0.6,1.6,0,2.5c-1.9,2.7-4.5,4.7-6.9,6.8C1129.3,152.3,1127.9,153.4,1126.5,154.5z"/>
<path class="st1" d="M1166.4,224.1c-0.7,0.1-1.2-0.2-1.4-0.8c-0.3-0.6,0.2-1.1,0.6-1.5c1.3-1.1,3-1.6,4.4-2.5c2.2-1.4,4.8-2,7.3-2.8
	c1-0.3,1.8,0.2,2.2,0.9c0.5,0.9-0.1,1.6-0.8,2c-2.4,1.6-5.2,2.4-7.9,3.3C1169.3,223.2,1167.8,223.6,1166.4,224.1z"/>
<path class="st1" d="M869.1,243.3c0,0.7-0.3,1.2-0.6,1.8c-0.9,1.5-1.9,3-3,4.4c-0.7,0.9-1.6,1.4-2.4,2.3c-0.4,0.4-1.1,0.4-1.6,0
	c-0.4-0.4-0.5-1-0.2-1.6c0.9-1.8,2.3-3.2,3.6-4.7c0.7-0.8,1.6-1.5,2.3-2.5c0.3-0.4,0.7-0.8,1.3-0.5
	C869.1,242.6,869.2,243,869.1,243.3z"/>
<path class="st1" d="M965.7,410.1c0,0.7-0.3,1.2-0.6,1.8c-0.9,1.5-1.9,3-3,4.4c-0.7,0.9-1.6,1.4-2.4,2.3c-0.4,0.4-1.1,0.4-1.6,0
	c-0.5-0.4-0.5-1-0.2-1.6c0.9-1.8,2.3-3.2,3.6-4.7c0.7-0.8,1.6-1.5,2.3-2.5c0.3-0.4,0.7-0.8,1.3-0.5
	C965.7,409.4,965.7,409.7,965.7,410.1z"/>
<path class="st1" d="M963.1,324.1c1-0.2,1.6,0.3,2.2,0.9c0.5,0.6,0.5,1.3,0.2,2c-1.3,2.5-2.8,4.9-4.7,6.9c-0.5,0.6-1,1.5-2,0.9
	c-1.1-0.6-1-1.6-0.6-2.5c0.5-1,0.6-2.2,0.9-3.2C959.9,327,961.4,325.4,963.1,324.1z"/>
<path class="st1" d="M1349.4,51c0.9,0,1.5,0,2,0.4c3.5,2.7,6.8,5.6,9.5,9.2c0.8,1.1,1.1,2,0.1,3c-0.9,1-1.9,0.5-2.9,0
	c-3.6-1.9-7.3-3.6-9.8-6.9c-0.9-1.1-1.8-2.2-1.1-3.7C1347.8,51.9,1348.2,50.8,1349.4,51z"/>
<path class="st2" d="M1010.9,289.1c-0.6-0.2-1.4,0.3-1.7-0.4c-0.3-0.7,0.5-1.1,0.8-1.6c0.5-0.8,1.3-1.3,1.8-2.1
	c1.1-1.6,2.9-1.5,4.4-1.8c0.4-0.1,0.8,0,1.1,0.4c0.3,0.4,0,0.7-0.2,1.1c-1.3,1.8-3.2,2.9-4.8,4.3
	C1012,289.2,1011.3,289.1,1010.9,289.1z"/>
<path class="st2" d="M1034.6,382.2c-0.6-0.2-1.4,0.3-1.7-0.4c-0.3-0.7,0.5-1.1,0.8-1.6c0.5-0.8,1.3-1.3,1.8-2.1
	c1.1-1.6,2.9-1.5,4.4-1.8c0.4-0.1,0.8,0,1.1,0.4c0.3,0.4,0,0.7-0.2,1.1c-1.3,1.8-3.2,2.9-4.8,4.3
	C1035.6,382.3,1035,382.2,1034.6,382.2z"/>
<path class="st2" d="M1083.8,213c0.5-0.2,1.1,0.3,1.3-0.4c0.2-0.9-0.4-1.3-0.6-1.8c-0.4-0.9-1-1.6-1.4-2.5c-0.8-1.8-2.2-1.7-3.3-2.1
	c-0.3-0.1-0.6,0-0.8,0.4c-0.2,0.5,0,0.9,0.2,1.2c0.9,2.1,2.4,3.4,3.6,5C1083.1,213,1083.6,212.9,1083.8,213z"/>
<path class="st2" d="M1230.4,46.6c-0.6-0.2-1.4,0.3-1.7-0.4c-0.3-0.7,0.5-1.1,0.8-1.6c0.5-0.8,1.3-1.3,1.8-2.1
	c1.1-1.6,2.9-1.5,4.4-1.8c0.4-0.1,0.8,0,1.1,0.4c0.3,0.4,0,0.7-0.2,1.1c-1.3,1.8-3.2,2.9-4.8,4.3
	C1231.4,46.7,1230.8,46.6,1230.4,46.6z"/>
<path class="st2" d="M1201.4,124.5c-0.6-0.2-1.4,0.3-1.7-0.4c-0.3-0.7,0.4-1.1,0.8-1.6c0.5-0.8,1.3-1.3,1.8-2.1
	c1.1-1.6,2.9-1.5,4.4-1.8c0.4-0.1,0.8,0,1.1,0.4c0.3,0.4,0,0.7-0.2,1.1c-1.3,1.8-3.2,2.9-4.8,4.3
	C1202.4,124.6,1201.7,124.5,1201.4,124.5z"/>
<path class="st2" d="M995.4,27c-0.6-0.2-1.4,0.3-1.7-0.4c-0.3-0.7,0.4-1.1,0.8-1.6c0.5-0.8,1.3-1.3,1.8-2.1c1.1-1.6,2.9-1.5,4.4-1.8
	c0.4-0.1,0.8,0,1.1,0.4c0.3,0.4,0,0.7-0.2,1.1c-1.3,1.8-3.2,2.9-4.8,4.3C996.4,27,995.7,26.9,995.4,27z"/>
<path class="st16" d="M927.5,414.8c1.9,0,4.1,1.9,4,3.7c0,1.9-1.8,3.5-3.8,3.6c-2.4,0-3.8-1.4-4-3.9
	C923.8,416,925.1,414.8,927.5,414.8z"/>
<path class="st3" d="M884.1,118.4c-1-0.2-1.8-0.7-2.5-1.4c-1.9-1.8-3.1-4.2-4.5-6.3c-0.6-0.9-0.4-1.7,0.3-2.3
	c0.7-0.7,1.8-0.8,2.4-0.1c2,2.6,4,5.2,5.7,8C886.1,117.2,885.5,118.3,884.1,118.4z"/>
<path class="st3" d="M950.1,89.7c-0.5-0.7-0.5-1.4-0.5-2.2c0-2.1,0.7-4.1,1.1-6.1c0.2-0.9,0.8-1.1,1.5-1.1c0.8,0,1.4,0.6,1.3,1.3
	c-0.4,2.6-0.8,5.2-1.5,7.7C951.9,90.2,950.9,90.5,950.1,89.7z"/>
<path class="st4" d="M1212.8,175.7c0.2-0.8,0.4-1.3,0.9-1.7c0.7-0.4,1.7-0.5,2.2,0.1c2,2.6,3.9,5.3,5.8,8c0.4,0.5,0.2,1.4-0.5,1.8
	c-0.7,0.4-1.3,0.4-2,0c-1.9-1.2-3.2-2.9-4.3-4.8C1214.1,178,1213.5,176.8,1212.8,175.7z"/>
<path class="st4" d="M1022.2,71.2c0.5-1.5,1.6-1.8,2.9-1.1c1.6,0.9,2.5,2.4,3.6,3.7c1.3,1.5,2.5,3.1,3.7,4.7
	c0.4,0.6,0.4,1.3-0.2,1.8c-0.5,0.4-1.2,0.6-1.6,0c-2.6-2.6-5.4-4.8-7.6-7.8C1022.5,72.2,1022.4,71.7,1022.2,71.2z"/>
<path class="st4" d="M1181.8,53.4c0.5-1.5,1.5-1.8,2.9-1.1c1.6,0.9,2.5,2.4,3.6,3.7c1.3,1.5,2.5,3.1,3.7,4.7
	c0.4,0.6,0.4,1.3-0.2,1.8c-0.5,0.4-1.2,0.6-1.6,0c-2.6-2.6-5.4-4.8-7.6-7.8C1182.1,54.4,1182,53.9,1181.8,53.4z"/>
<path class="st4" d="M846.8,420.7c-1-0.1-1.7-0.7-2.5-1.4c-1.9-1.8-3.1-4.2-4.5-6.3c-0.6-0.9-0.4-1.7,0.3-2.3c0.7-0.7,1.8-0.8,2.4,0
	c2,2.6,4,5.2,5.7,8C848.9,419.6,848.1,420.6,846.8,420.7z"/>
<path class="st4" d="M1003.2,386c-1-0.1-1.7-0.7-2.4-1.4c-1.9-1.8-3.1-4.2-4.5-6.3c-0.6-0.9-0.4-1.7,0.3-2.3c0.7-0.7,1.8-0.8,2.4,0
	c2,2.6,4,5.2,5.7,8C1005.3,384.9,1004.6,386,1003.2,386z"/>
<path class="st3" d="M1353.8,129.3c-0.1-1.4,1.3-2.5,2.6-1.8c2.2,1.3,4.3,2.6,6.3,4.2c1.4,1.1,0.7,3.2-1,3.6
	C1359.8,135.8,1353.9,131.3,1353.8,129.3z"/>
<path class="st3" d="M1380.9,200.2c0-1.4,0.9-2.5,1.8-1.8c1.5,1.3,3,2.6,4.3,4.2c1,1.1,0.5,3.2-0.7,3.6
	C1385.1,206.7,1381,202.2,1380.9,200.2z"/>
<path class="st3" d="M830,269.8c0-1.4,0.1-2.2,1.1-2.6c1-0.4,1.9-0.3,2.6,0.5c1.9,2.5,2.2,5.4,2.2,8.3c0,0.7-0.7,1.2-1.3,1.4
	c-0.8,0.2-1.6,0-2-0.9C831.4,274.3,831.2,271.6,830,269.8z"/>
<path class="st3" d="M979.6,199.6c0-1.4,0.1-2.2,1.1-2.6c1-0.4,1.9-0.3,2.6,0.5c1.9,2.5,2.2,5.4,2.2,8.3c0,0.7-0.7,1.2-1.3,1.4
	c-0.8,0.2-1.6,0-2-0.9C981,204.2,980.8,201.5,979.6,199.6z"/>
<path class="st5" d="M1178.4,101c0,0.9-0.3,1.8-1.5,2c-1.1,0.2-1.8-0.2-2.2-1.3c-0.8-2.1-1.6-4.2-2.3-6.3c-0.3-1-0.2-2.1,1-2.6
	c1.3-0.5,2.2-0.2,2.9,0.9C1177.9,95.9,1177.9,98.4,1178.4,101z"/>
<path class="st5" d="M887.4,41.7c0,0.9-0.3,1.8-1.5,2c-1.1,0.2-1.8-0.2-2.2-1.3c-0.8-2.1-1.6-4.2-2.3-6.3c-0.3-1-0.2-2.1,1-2.6
	c1.3-0.5,2.2-0.2,2.9,0.9C886.9,36.6,886.9,39.2,887.4,41.7z"/>
<path class="st5" d="M1196.5,277c0,0.9-0.3,1.8-1.5,2c-1.1,0.2-1.8-0.2-2.2-1.3c-0.8-2.1-3.3-6.3-3.9-8.4c-0.3-1-0.2-2.1,1-2.6
	s2.2-0.2,2.9,0.9C1194.4,269.8,1196,274.5,1196.5,277z"/>
<path class="st5" d="M1366.4,294.7c0,0.9-0.3,1.8-1.5,2c-1.1,0.2-1.8-0.2-2.2-1.3c-0.8-2.1-1.6-4.2-2.3-6.3c-0.3-1-0.2-2.1,1-2.6
	c1.3-0.5,2.2-0.2,2.9,0.9C1365.9,289.5,1365.9,292.1,1366.4,294.7z"/>
<path class="st5" d="M914,310.2c0.2-1.5,0.2-2.9,0.4-4.4c0.2-1.5,0.7-1.9,2.1-1.9c1.5,0,1.6,0.8,1.8,2c0.4,2.7-0.4,5.3-1,7.9
	c-0.2,0.9-0.6,1.5-1.5,1.5c-0.9,0-1.3-0.9-1.6-1.6C913.8,312.6,914,311.4,914,310.2z"/>
<path class="st6" d="M1311.9,66.6c0.2-1.6,0.1-2.9,0.4-4.3c0.2-1.2,0.4-1.8,1.8-1.8c1.6-0.1,1.9,0.8,2.1,2c0.4,2.7-0.5,5.3-1,7.9
	c-0.2,0.9-0.7,1.5-1.6,1.5c-0.9,0-1.3-0.9-1.5-1.6C1311.6,68.9,1311.8,67.6,1311.9,66.6z"/>
<path class="st4" d="M831.1,327.7c-1.2,2.7-3,5.4-5.2,7.6c-0.7,0.7-1.4-0.2-2.1-0.6c-0.7-0.4-0.9-0.9-0.6-1.7
	c1.1-3.1,3.4-5.1,5.6-7.4c0.4-0.4,1.1-0.5,1.7-0.1C831.2,326,831.1,326.7,831.1,327.7z"/>
<path class="st4" d="M1097.3,35.8c-1.2,2.7-3,5.4-5.2,7.6c-0.7,0.7-1.4-0.2-2.1-0.6c-0.7-0.4-0.9-0.9-0.6-1.7
	c1.1-3.1,3.4-5.1,5.6-7.4c0.5-0.4,1.1-0.5,1.7-0.1C1097.4,34.2,1097.3,34.9,1097.3,35.8z"/>
<path class="st3" d="M1049.5,419.2c2.5,0.2,4.9,1.1,7.3,1.9c0.8,0.3,1.4,0.8,1.3,1.7c-0.1,0.7-0.8,1.2-1.5,1.3
	c-3.1,0.3-6.2-0.4-9.2-1.3c-1.2-0.4-0.8-1.7-0.6-2.5C1047.2,418.7,1048.6,419.5,1049.5,419.2z"/>
<path class="st17" d="M1109.3,430.8c-0.6,0.2-1.8,0.7-2.6-0.4c-0.9-1.1,0.1-1.9,0.8-2.7c1.3-1.5,2.8-2.9,4.1-4.4
	c0.7-0.9,1.8-1.1,2.7-1.4c0.5-0.2,1-0.1,1.4,0.3c0.4,0.5,0.4,1,0,1.5C1114,426.2,1112.5,428.9,1109.3,430.8z"/>
<path class="st17" d="M1207,422.9c-0.6,0.2-1.8,0.7-2.6-0.4c-0.9-1.1,0.1-1.9,0.8-2.7c1.4-1.5,2.8-2.9,4.1-4.4
	c0.7-0.9,1.8-1.1,2.7-1.4c0.5-0.2,1-0.1,1.4,0.3c0.4,0.4,0.4,1,0,1.5C1211.7,418.4,1210.2,421.1,1207,422.9z"/>
<path class="st18" d="M1179.7,178.7c0,1.6-1.8,3.6-3.6,3.5c-1.9-0.1-3.2-1.2-3.2-3.1c0.1-1.9,0.9-3.6,3.1-4
	C1177.7,174.7,1179.7,176.8,1179.7,178.7z"/>
<path class="st8" d="M995.5,424.9c0,1.6-2,3.6-3.6,3.4c-1.8-0.2-3.1-1.3-3.1-3.2c0-2,1.8-4,3.5-3.9
	C993.9,421.1,995.5,423,995.5,424.9z"/>
<path class="st8" d="M1016.5,341.9c0,1.6-2,3.6-3.6,3.4c-1.8-0.2-3.1-1.3-3.1-3.2c0-2,1.8-4,3.5-3.9
	C1014.9,338.2,1016.5,340.1,1016.5,341.9z"/>
<path class="st7" d="M1379.4,53.2c0.3-2.8,2-4.5,3.7-4.3c1.8,0.2,3.4,2.4,3,4.2c-0.4,2-2,2.9-3.8,2.9
	C1380.6,55.9,1379.5,54.6,1379.4,53.2z"/>
<path class="st7" d="M1281.7,27.7c0.3-2.8,2-4.5,3.7-4.3c1.8,0.2,3.4,2.4,3,4.2c-0.4,2-2,2.9-3.8,2.9
	C1282.9,30.4,1281.8,29.1,1281.7,27.7z"/>
<path class="st8" d="M1112.9,93.3c0-2.2,1.6-4.2,3.4-4.2c1.6,0,3.4,1.9,3.5,3.6c0,1.6-1.8,3.5-3.6,3.4
	C1114.2,96.1,1113.1,95,1112.9,93.3z"/>
<path class="st9" d="M717.8,334.3c-0.2,1.8-1.7,2.7-3.6,2.7c-1.8,0-3.1-1.1-3.2-3.1c-0.1-2,1.8-4,3.5-3.9
	C716.3,330.3,717.8,332.1,717.8,334.3z"/>
<path class="st9" d="M951.4,44.6c-0.2,1.8-1.7,2.7-3.6,2.7c-1.8,0-3.1-1.1-3.2-3.1c-0.1-2,1.8-4,3.5-3.9
	C950,40.5,951.5,42.3,951.4,44.6z"/>
<path class="st19" d="M770.2,425.3c0-0.7,0.1-1.5,0.7-1.9c1.6-1.5,3.2-2.9,4.9-4.3c0.5-0.4,1.2-0.8,1.9-0.1c0.7,0.6,0.7,1.3,0.3,2.1
	c-1.3,2.7-3.7,4.1-5.9,5.6C770.8,427.4,770.3,426.4,770.2,425.3z"/>
<path class="st10" d="M1247.1,131.3c0.9,0.2,1.5,0.8,0.9,1.6c-1.8,2.3-3.7,4.6-5.6,6.9c-0.5,0.5-1,0.6-1.6,0.3
	c-0.8-0.4-1-1.2-0.6-1.8c1.6-2.6,3.2-5.4,6.2-6.8C1246.5,131.4,1246.8,131.3,1247.1,131.3z"/>
<path class="st10" d="M1219.7,234.7c0.8,0.2,1.3,0.6,0.7,1.3c-1.5,1.9-3,3.7-4.5,5.6c-0.4,0.5-0.8,0.5-1.3,0.2
	c-0.6-0.3-0.8-0.9-0.5-1.4c1.3-2.1,2.6-4.3,5-5.5C1219.3,234.8,1219.5,234.7,1219.7,234.7z"/>
<path class="st20" d="M1099.6,171.7c0.2,2.1-0.7,3.4-2.8,3.6c-1.6,0.2-3.4-1.6-3.3-3.4c0.1-2.5,2.2-2.7,3.9-2.9
	C1099.3,168.9,1099.8,170.1,1099.6,171.7z"/>
<path class="st11" d="M1064.9,129.9c0.2-0.9-1.1-3.3,1.1-3.6c2-0.2,2.3,2.2,2.6,3.8c0.3,1.4,0.9,2.9-0.7,4c-0.6,0.4-1.1,1.2-2,0.9
	c-0.9-0.3-1-1.1-1-1.9C1064.9,132.3,1064.9,131.4,1064.9,129.9z"/>
<path class="st11" d="M1029,13.9c0.2-0.9-1.1-3.3,1.1-3.6c2-0.2,2.3,2.2,2.6,3.8c0.3,1.4,0.9,2.9-0.7,4c-0.6,0.4-1.1,1.2-2,0.9
	c-0.9-0.3-1-1.1-1-1.9C1029,16.2,1029,15.4,1029,13.9z"/>
<path class="st11" d="M1154.2,15.7c0.2-0.9-1.1-3.3,1.1-3.6c2-0.2,2.3,2.2,2.6,3.8c0.3,1.4,0.9,2.9-0.7,4c-0.6,0.4-1.1,1.2-2,0.9
	c-0.9-0.3-1-1.1-1-1.9C1154.2,18.1,1154.2,17.2,1154.2,15.7z"/>
<path class="st17" d="M1030.9,212.3c0.1-1.8,4.9-6.9,6.7-7.2c0.6-0.1,1,0,1.3,0.5c0.3,0.4,0.1,0.9-0.2,1.2c-1.8,2.2-3.5,4.3-5.2,6.5
	c-0.4,0.6-1.1,0.9-1.8,0.6C1031.1,213.5,1030.9,213,1030.9,212.3z"/>
<path class="st10" d="M907.9,393.4c0.1-0.2,0.3-0.6,0.5-0.9c2-2.3,4-4.6,6.4-6.5c0.6-0.5,1.3-1.1,2-0.4c0.7,0.7,0,1.2-0.4,1.8
	c-1.8,2.5-3.8,4.8-6.3,6.6c-0.6,0.4-1.2,0.7-1.9,0.4C907.9,394.3,907.7,394,907.9,393.4z"/>
<path class="st12" d="M1259.4,71.8c-0.4,2.8-2,4.8-3.8,4.3c-1.5-0.4-2.7-1.3-2.4-3.1c0.2-1.2,4-3.4,5.3-3.1
	C1259.4,70.2,1259.6,70.9,1259.4,71.8z"/>
<path class="st8" d="M749.7,370.1c0-1.1,0.8-1.9,2.4-1.8c1.9,0,4,1.7,3.8,3.2c-0.1,1.1,0.1,2.7-2,2.5
	C751.3,373.8,749.6,372.6,749.7,370.1z"/>
<path class="st1" d="M1230.3,319c2.4,1.9,5.2,3.4,7,6.1c1.1,1.7,1.1,3.3-0.3,4.2c-1.3,0.9-2.9,0.3-3.8-1.3c-0.7-1.3-1.6-2.4-2.8-3.3
	c-1.7-1-2.7-2.7-2.7-3.7S1228.2,318.7,1230.3,319z"/>
<path class="st1" d="M1284.7,376.5c0.2,2.4,0.7,4.8,0.1,7.3c-0.4,1.5-1.4,2.4-2.7,2c-1.2-0.3-1.7-1.6-1.2-3c0.4-1.1,0.6-2.2,0.5-3.4
	c-0.3-1.5,0.2-3,0.8-3.5C1282.7,375.4,1283.9,375.1,1284.7,376.5z"/>
<path class="st1" d="M1170.6,378.9c0.4-1.1,1.2-1.9,2-2.6c0.6-0.4,1.1,0.4,1.6,0.9c2.1,2.3,4.9,4,6.9,6.4c0.5,0.6,1,1.3,1.6,1.9
	c0.6,0.7,0.6,1.6,0,2.2c-0.7,0.8-1.6,0.3-2.2-0.2c-1.8-1.3-3.5-2.7-5.2-4.2c-1.3-1.2-2.5-2.6-4-3.6
	C1171.1,379.5,1170.9,379.2,1170.6,378.9z"/>
<path class="st1" d="M884.3,155c0,0.6-0.2,1.3-0.5,1.7c-1.6,1.7-1.7,4-2.8,6c-0.4,0.8-0.7,1.8-1.9,1.6c-1.1-0.2-1.6-1.4-1-2.7
	c0.6-1.4,0.5-2.9,1.1-4.2c0.6-1.2,1-2.7,2.6-3.2C882.4,153.9,884,154.4,884.3,155z"/>
<path class="st1" d="M1309.2,307.3c-0.2-0.7-0.3-1.7,0.1-2.5c1.4-3.2,0.8-6.1,1.5-9.1c0.3-1.2,0.3-2.6,1.9-3.2
	c1.4-0.5,2.5,0.5,2.2,2.6c-0.2,2.1,0.3,3.9,0,5.9c-0.3,1.9-0.3,4-2.2,5.7C1312.1,307.3,1309.8,307.8,1309.2,307.3z"/>
<path class="st16" d="M1311.9,398.5c1.9,0,4.1,1.9,4,3.7c0,1.9-1.8,3.5-3.8,3.6c-2.4,0-3.8-1.4-4-3.9
	C1308.1,399.8,1309.4,398.6,1311.9,398.5z"/>
<path class="st4" d="M1281.2,353.2c-1-0.1-1.7-0.7-2.4-1.4c-1.9-1.8-3.1-4.2-4.5-6.3c-0.6-0.9-0.4-1.7,0.3-2.3
	c0.7-0.7,1.8-0.8,2.4,0c2,2.6,4,5.2,5.7,8C1283.3,352.1,1282.6,353.1,1281.2,353.2z"/>
<path class="st4" d="M1270.4,287.5c1.2-2.7,3-5.4,5.2-7.6c0.7-0.7,1.4,0.2,2.1,0.6c0.7,0.4,0.9,0.9,0.6,1.7
	c-1.1,3.1-3.4,5.1-5.6,7.4c-0.4,0.5-1.1,0.5-1.7,0.1C1270.2,289.2,1270.4,288.4,1270.4,287.5z"/>
<path class="st9" d="M1165.1,288.7c-0.2,1.8-1.7,2.7-3.6,2.7c-1.8,0-3.2-1.1-3.2-3.1c-0.1-2,1.8-4,3.5-3.9
	C1163.6,284.6,1165.2,286.4,1165.1,288.7z"/>
<path class="st9" d="M1350.5,245.1c-0.2,1.8-1.7,2.7-3.5,2.7c-1.8,0-3.2-1.1-3.2-3.1c-0.1-2,1.8-4,3.5-3.9
	C1349,241,1350.5,242.8,1350.5,245.1z"/>
<path class="st19" d="M1217.5,379.6c0-0.7,0.1-1.5,0.7-1.9c1.6-1.5,3.2-2.9,4.9-4.3c0.5-0.4,1.2-0.8,1.9-0.1
	c0.7,0.6,0.7,1.3,0.3,2.1c-1.3,2.7-3.7,4.1-5.9,5.6C1218.2,381.8,1217.6,380.7,1217.5,379.6z"/>
<path class="st8" d="M1180.8,326.2c0-1.1,0.8-1.9,2.4-1.8c1.9,0,4,1.7,3.8,3.2c-0.1,1.1,0.1,2.7-2.1,2.5
	C1182.3,329.9,1180.7,328.7,1180.8,326.2z"/>
<path class="st8" d="M1239.8,271.4c0-1-0.4-1.7-1.3-1.7c-1,0-2.2,1.6-2.1,3c0.1,1.1,0,2.5,1.1,2.3
	C1238.9,274.8,1239.8,273.7,1239.8,271.4z"/>
<path class="st8" d="M1250,409.1c0-1.1,0.8-1.9,2.4-1.8c1.9,0,4,1.7,3.8,3.2c-0.1,1.1,0.1,2.7-2,2.5
	C1251.7,412.8,1250,411.7,1250,409.1z"/>
<path class="st21" d="M759.6,278.3c1.8-0.1,2.9,1,3,2.6c0.1,2.2-1.6,2.8-3.4,2.8c-1.7,0-2.8-0.9-2.9-2.7
	C756.5,278.9,757.9,278.3,759.6,278.3z"/>
<path class="st21" d="M786.9,222.6c1.8-0.1,2.9,1,3,2.6c0.1,2.2-1.6,2.8-3.4,2.8c-1.7,0-2.8-0.9-2.9-2.7
	C783.7,223.3,785.2,222.7,786.9,222.6z"/>
<path class="st11" d="M841.7,137.9c0.9,0.2,1.8,0.7,1.1,1.7c-1.4,2-2.9,3.9-4.6,5.7c-0.7,0.7-1.7,0.7-2-0.4
	C835.6,142.9,839.5,137.9,841.7,137.9z"/>
<path class="st11" d="M924,247.4c0.9,0.2,1.8,0.7,1.1,1.7c-1.4,2-2.9,3.9-4.6,5.7c-0.7,0.7-1.7,0.7-2-0.4
	C917.9,252.4,921.9,247.4,924,247.4z"/>
<path class="st11" d="M1041.3,300c0.9,0.2,1.8,0.7,1.1,1.7c-1.4,2-2.9,3.9-4.6,5.7c-0.7,0.7-1.7,0.7-2.1-0.4
	C1035.2,304.9,1039.1,299.9,1041.3,300z"/>
<path class="st11" d="M898.2,192.5c-0.8,0.8-1.9,1.3-2.4,0c-1.1-2.7-1.9-5.4-2.7-8.2c-0.3-1.1,0.4-2.1,1.8-1.7
	C897.3,183.3,899.7,190.4,898.2,192.5z"/>
<path class="st16" d="M940.3,279.7c0-2,0.7-3.2,2.4-3.2c2,0,2.9,1.4,2.9,3.3c0,1.6-0.7,2.9-2.3,2.9
	C941.4,282.6,940.4,281.2,940.3,279.7z"/>
<path class="st13" d="M997.6,81c1.9,0.2,2.9,1.2,2.9,3.1c0,1.7-1.3,2.5-2.8,2.5c-1.9,0-2.7-1.5-2.8-3.1
	C994.8,81.6,996.2,81.2,997.6,81z"/>
<path class="st7" d="M820.1,98.1c-0.1-2.5,0.9-3.7,2.5-3.7c1.7,0,2.7,1.3,2.8,3.1c0.1,1.7-0.8,2.7-2.4,2.8
	C821,100.4,820.2,99.2,820.1,98.1z"/>
<path class="st3" d="M967.1,152.5c-1-0.2-1.8-0.7-2.5-1.4c-1.9-1.8-3.1-4.2-4.5-6.3c-0.6-0.9-0.4-1.7,0.3-2.3
	c0.7-0.7,1.8-0.8,2.4-0.1c2,2.6,4,5.2,5.7,8C969.2,151.3,968.6,152.4,967.1,152.5z"/>
<path class="st7" d="M921.4,128.8c-0.1-2.2,0.7-3.2,2.2-3.2c1.5,0,2.4,1.1,2.5,2.7c0.1,1.5-0.7,2.3-2.1,2.4
	C922.2,130.9,921.5,129.7,921.4,128.8z"/>
<path class="st7" d="M803.4,370.3c0-1,0.3-1.4,1-1.4c0.7,0,1.1,0.5,1.1,1.2c0,0.7-0.3,1-0.9,1.1
	C803.8,371.2,803.5,370.7,803.4,370.3z"/>
<path class="st7" d="M1039.4,46.1c-0.1-1.6,0.5-2.4,1.6-2.4c1.1,0,1.8,0.9,1.8,2c0,1.1-0.5,1.7-1.6,1.8
	C1040,47.6,1039.4,46.8,1039.4,46.1z"/>
<path class="st7" d="M1014.8,171.1c-0.1-2.5,0.9-3.7,2.5-3.7c1.7,0,2.7,1.3,2.8,3.1c0.1,1.7-0.8,2.7-2.4,2.8
	C1015.8,173.4,1015,172.1,1014.8,171.1z"/>
<path class="st14" d="M1319.1,142.1c0.2-1.8,1.2-2.8,2.8-2.7c1.9,0.1,3.1,1.4,3.1,3.2c0,1.3-0.8,2.5-2.5,2.4
	C1320.5,144.9,1319.5,143.7,1319.1,142.1z"/>
<path class="st19" d="M1134.3,343.9c1.9-0.4,4.1-0.7,6.3,0.2c0.5,0.2,1.2,0.5,1.1,1.3c-0.1,0.6-0.6,0.8-1.1,1
	c-2.3,1-4.6,0.5-6.9,0.2c-0.5-0.1-1-0.4-0.9-1.1C1132.8,344.8,1133.5,344.4,1134.3,343.9z"/>
<path class="st22" d="M871.6,285.5c0.1,1.6-1.1,2.5-2.6,2.5c-1.8,0-2.7-1.3-2.7-3.1c0-1.8,1.1-2.9,2.7-2.8
	C870.7,282.2,871.6,283.5,871.6,285.5z"/>
<path class="st8" d="M907.2,335.5c2.4,0.1,3.3,1.1,3.2,2.9c0,1.5-1,2.4-2.3,2.2c-1.3-0.2-3.1-0.7-3-2.3
	C905.3,337.1,905.8,335.3,907.2,335.5z"/>
<path class="st23" d="M989.3,241.4c1.6,0,3.5,2.1,3.3,3.7c-0.2,1.8-1.3,3.1-3.3,3c-1.9-0.2-3.6-1-3.8-3.2
	C985.3,243.2,987.4,241.4,989.3,241.4z"/>
<path class="st11" d="M1124.3,231.9c0.2,0.7,0,1.5-0.9,1.3c-1.9-0.4-3.8-1-5.6-1.7c-0.7-0.2-1.1-1-0.3-1.6
	C1118.8,228.9,1123.7,230.3,1124.3,231.9z"/>
<path class="st11" d="M1298.1,233.8c0.9,0.2,1.8,0.7,1.1,1.7c-1.4,2-2.9,3.9-4.6,5.7c-0.7,0.7-1.7,0.7-2-0.4
	C1291.9,238.8,1295.9,233.8,1298.1,233.8z"/>
<path class="st11" d="M1113.4,303.4c0.9,0.2,1.8,0.7,1.1,1.7c-1.4,2-2.9,3.9-4.6,5.7c-0.7,0.7-1.7,0.7-2.1-0.4
	C1107.3,308.4,1111.3,303.4,1113.4,303.4z"/>
<path class="st8" d="M1105.6,273c1.9,0.1,2.5,0.9,2.5,2.2c0,1.2-0.8,1.8-1.8,1.7c-1-0.1-2.5-0.5-2.3-1.8
	C1104.1,274.3,1104.4,272.9,1105.6,273z"/>
<path class="st8" d="M1324.6,339c2.4,0.1,3.3,1.1,3.2,2.9c0,1.5-1,2.4-2.3,2.2c-1.3-0.2-3.2-0.7-3-2.3
	C1322.7,340.5,1323.2,338.8,1324.6,339z"/>
<path class="st8" d="M1286.3,185.2c2.4,0.1,3.3,1.1,3.2,2.9c0,1.5-1,2.4-2.3,2.2c-1.3-0.2-3.1-0.7-3-2.3
	C1284.3,186.8,1284.8,185,1286.3,185.2z"/>
<path class="st8" d="M1078.4,9.6c2.4,0.1,3.3,1.1,3.2,2.9c0,1.5-1,2.4-2.3,2.2c-1.3-0.2-3.1-0.7-3-2.3
	C1076.4,11.2,1076.9,9.4,1078.4,9.6z"/>
<path class="st11" d="M1370,351.8c-0.9-0.2-1.8-0.7-1.1-1.7c1.4-2,2.9-3.9,4.6-5.7c0.7-0.7,1.7-0.7,2,0.4
	C1376.1,346.9,1372.2,351.9,1370,351.8z"/>
<path class="st8" d="M1081.8,372.1c1.3-0.7,2.5-0.8,3.2,0.6c0.7,1.4,0.7,2.8-0.8,3.6c-1.3,0.8-2.6,0.4-3.3-1
	C1080.2,374,1080.4,372.8,1081.8,372.1z"/>
<path class="st8" d="M1051.3,249.3c1.3-0.7,2.5-0.8,3.2,0.6c0.7,1.4,0.7,2.8-0.8,3.6c-1.4,0.8-2.6,0.4-3.3-1
	C1049.7,251.2,1049.9,249.9,1051.3,249.3z"/>
<path class="st24" d="M843.8,198.5c-1.7-0.2-2.6-0.9-2.5-2.4c0.1-1.1,0.7-2.3,2.1-2.2c1.4,0.1,2.4,0.9,2.3,2.6
	C845.7,198,844.8,198.3,843.8,198.5z"/>
<path class="st24" d="M899.4,216.2c-1.7-0.2-2.6-0.9-2.5-2.4c0.1-1.1,0.7-2.3,2.1-2.2c1.4,0.1,2.4,0.9,2.3,2.6
	C901.4,215.8,900.4,216.1,899.4,216.2z"/>
<path class="st22" d="M953.4,366.5c0-0.7,0.4-1.2,1.2-1.3c1.1-0.2,3.1,2.5,3.2,4c0,0.6-0.2,0.8-0.7,0.8
	C956,370.1,953.4,367.7,953.4,366.5z"/>
<path class="st1" d="M281.1,473.2c0,0,0.9-1.5,1.1-2.5c0.4-1.8,0.9-3.5,1.4-5.2c0.4-1.4,1.3-2.2,3-1.9c1.4,0.3,1.9,1.6,1.7,2.7
	c-0.8,4.2-1.9,8.4-3.8,12.3C282.3,481,280,481.2,281.1,473.2z"/>
<path class="st15" d="M257.4,480.1c-1.3,1.4-1.8,2.7-3.1,4.1c-0.5,0.6-1.1,0.9-1.9,1.1c-1.1,0.3-1.5-0.4-1.9-1.1
	c-0.4-0.8,0-1.6,0.6-1.8c1.6-0.5,2.4-2,3.8-2.8c1.1-0.7,1.8-1.9,2.6-0.9C257.7,479.1,257.4,479.6,257.4,480.1z"/>
<path class="st1" d="M675.9,462.9c-0.4,1.2-1.3,2.1-2.1,2.7c-0.6,0.5-1.2-0.5-1.8-1c-2.3-2.5-5.2-4.2-7.4-6.9
	c-0.5-0.7-1.1-1.3-1.7-2c-0.7-0.8-0.7-1.7,0-2.4c0.8-0.8,1.7-0.3,2.3,0.2c1.9,1.4,3.8,2.9,5.6,4.5c1.4,1.3,2.7,2.7,4.3,3.9
	C675.4,462.2,675.6,462.5,675.9,462.9z"/>
<path class="st1" d="M182.9,464.6c0.7,0.3,1.4,0.9,1.7,1.6c1.1,2.7,3.6,4.2,5.2,6.5c0.6,0.9,1.6,1.8,0.7,3.1c-0.8,1.1-2.5,1-3.7-0.4
	c-1.3-1.4-3.1-2.3-4.2-3.7c-1.1-1.3-2.5-2.7-2.2-4.8C180.4,466.1,182,464.6,182.9,464.6z"/>
<path class="st1" d="M428.7,459c0-0.7,0.3-1.2,0.6-1.8c0.9-1.5,1.9-3,3-4.4c0.7-0.9,1.6-1.4,2.4-2.3c0.4-0.4,1.1-0.4,1.6,0
	c0.4,0.4,0.5,1,0.2,1.6c-0.9,1.8-2.3,3.2-3.6,4.7c-0.7,0.8-1.6,1.5-2.3,2.5c-0.3,0.4-0.7,0.8-1.3,0.5
	C428.8,459.7,428.7,459.3,428.7,459z"/>
<path class="st16" d="M466.9,454.3c-1.9,0-4.1-1.9-4-3.7c0-1.9,1.8-3.5,3.8-3.6c2.4,0,3.8,1.4,4,3.9
	C470.6,453,469.4,454.2,466.9,454.3z"/>
<path class="st4" d="M547.7,448.4c1,0.1,1.7,0.7,2.5,1.4c1.9,1.8,3.1,4.2,4.5,6.3c0.6,0.9,0.4,1.7-0.3,2.3c-0.7,0.7-1.8,0.8-2.4,0
	c-2-2.6-4-5.2-5.7-8C545.6,449.5,546.3,448.5,547.7,448.4z"/>
<path class="st3" d="M344.9,449.9c-2.5-0.2-4.9-1.1-7.3-1.9c-0.8-0.3-1.4-0.8-1.3-1.7c0.1-0.7,0.8-1.2,1.5-1.3
	c3.1-0.3,6.2,0.4,9.2,1.3c1.1,0.4,0.8,1.7,0.6,2.5C347.2,450.4,345.8,449.5,344.9,449.9z"/>
<path class="st17" d="M249.3,438.6c0.6-0.2,1.8-0.7,2.6,0.4c0.9,1.1-0.1,1.9-0.8,2.7c-1.3,1.5-2.8,2.9-4.1,4.4
	c-0.7,0.9-1.8,1.1-2.7,1.4c-0.5,0.2-1,0.1-1.4-0.3c-0.4-0.5-0.4-1,0-1.5C244.6,443.2,246.2,440.5,249.3,438.6z"/>
<path class="st17" d="M187.5,446.1c0.6-0.2,1.8-0.7,2.6,0.4c0.9,1.1-0.1,1.9-0.8,2.7c-1.3,1.5-2.8,2.9-4.1,4.4
	c-0.7,0.9-1.8,1.1-2.7,1.4c-0.5,0.2-1,0.1-1.4-0.3c-0.4-0.5-0.4-1,0-1.5C182.8,450.7,184.3,448,187.5,446.1z"/>
<path class="st8" d="M398.9,444.2c0-1.6,2-3.6,3.6-3.3c1.8,0.2,3.1,1.3,3.1,3.2c0,2-1.8,4-3.5,3.9
	C400.5,448,398.9,446.1,398.9,444.2z"/>
<path class="st19" d="M624.3,443.8c0,0.7-0.1,1.5-0.7,1.9c-1.6,1.5-3.2,2.9-4.9,4.3c-0.5,0.4-1.2,0.8-1.9,0.1
	c-0.7-0.6-0.7-1.3-0.3-2.1c1.3-2.7,3.7-4.1,5.9-5.6C623.6,441.7,624.2,442.7,624.3,443.8z"/>
<path class="st10" d="M486.6,475.7c-0.1,0.2-0.3,0.6-0.5,0.9c-2,2.3-4,4.6-6.4,6.5c-0.6,0.5-1.3,1.1-2,0.4c-0.7-0.7,0-1.2,0.4-1.8
	c1.8-2.5,3.8-4.8,6.3-6.6c0.6-0.4,1.2-0.7,1.9-0.4C486.5,474.7,486.7,475.1,486.6,475.7z"/>
<path class="st8" d="M717.1,443.2c0,1.1-0.8,1.9-2.4,1.8c-1.9,0-4-1.7-3.8-3.2c0.1-1.1-0.1-2.7,2-2.5
	C715.5,439.5,717.2,440.7,717.1,443.2z"/>
<path class="st16" d="M82.6,470.5c-1.9,0-4.1-1.9-4-3.7c0-1.9,1.8-3.5,3.8-3.6c2.4,0,3.8,1.4,4,3.9
	C86.3,469.3,85.1,470.5,82.6,470.5z"/>
<path class="st8" d="M144.4,460c0,1.1-0.8,1.9-2.4,1.8c-1.9,0-4-1.7-3.8-3.2c0.1-1.1-0.1-2.7,2-2.5
	C142.8,456.2,144.5,457.4,144.4,460z"/>
<path class="st1" d="M790.6,449.8c1.5,1.1,3.1,2,4.2,3.6c0.7,1,0.7,2-0.2,2.5c-0.8,0.5-1.7,0.2-2.3-0.8c-0.4-0.8-0.9-1.4-1.7-2
	c-1-0.6-1.6-1.6-1.6-2.2S789.4,449.6,790.6,449.8z"/>
<path class="st1" d="M917.4,481.7c-0.4,0.2-0.9,0.5-1.5,0.7c-3.2,1.1-6.6,1.3-9.9,2c-0.7,0.2-1.4,0-1.6-0.8c-0.2-0.8,0.3-1.2,1-1.5
	c2.9-1,5.8-2.5,9-2.5c0.7,0,1.3-0.3,1.9-0.4c0.7-0.1,1.1,0.2,1.3,0.8C918,480.5,917.8,481.1,917.4,481.7z"/>
<path class="st1" d="M1142.7,456.4c-0.4,0.2-0.9,0.5-1.5,0.7c-3.2,1.1-6.6,1.3-9.9,2c-0.7,0.2-1.4,0-1.6-0.8c-0.2-0.8,0.3-1.2,1-1.5
	c2.9-1,5.8-2.5,9-2.5c0.7,0,1.3-0.3,1.9-0.4c0.6-0.1,1.1,0.2,1.3,0.8C1143.3,455.3,1143.2,455.8,1142.7,456.4z"/>
<path class="st1" d="M715.1,480.6c-0.6,0.2-1.3,0.5-2.1,0.6c-4.4,0.6-8.7,0.1-13.1,0.2c-0.9,0-1.8-0.3-1.8-1.4
	c0-1.1,0.7-1.5,1.6-1.7c4-0.6,7.9-1.8,12.1-1.1c0.8,0.2,1.7-0.1,2.6-0.1c0.9,0,1.3,0.5,1.5,1.3C716.2,479.2,715.9,479.9,715.1,480.6
	z"/>
<path class="st1" d="M1354.7,455.1c0.9,0,1.5,0,2,0.4c3.5,2.7,6.8,5.6,9.5,9.2c0.8,1.1,1.1,2,0.1,3c-0.9,1-1.9,0.5-2.9,0
	c-3.5-1.9-7.3-3.6-9.8-6.9c-0.9-1.1-1.8-2.2-1.1-3.7C1353.1,456,1353.5,454.8,1354.7,455.1z"/>
<path class="st2" d="M1235.7,450.7c-0.6-0.2-1.4,0.3-1.7-0.4c-0.3-0.7,0.5-1.1,0.8-1.6c0.5-0.8,1.3-1.3,1.8-2.1
	c1.1-1.6,2.9-1.5,4.4-1.8c0.4-0.1,0.8,0,1.1,0.4c0.3,0.4,0,0.7-0.2,1.1c-1.3,1.8-3.2,2.9-4.8,4.3
	C1236.7,450.8,1236.1,450.7,1235.7,450.7z"/>
<path class="st3" d="M764,481.6c-0.8-0.1-1.4-0.6-2-1.1c-1.6-1.5-2.5-3.4-3.7-5.1c-0.5-0.8-0.3-1.3,0.2-1.9c0.6-0.6,1.5-0.6,1.9-0.1
	c1.6,2.1,3.2,4.2,4.6,6.5C765.6,480.6,765.1,481.5,764,481.6z"/>
<path class="st4" d="M1027.4,475.3c0.5-1.5,1.5-1.8,2.9-1.1c1.6,0.9,2.5,2.4,3.6,3.7c1.3,1.5,2.5,3.1,3.7,4.7
	c0.4,0.6,0.4,1.3-0.2,1.8c-0.5,0.4-1.1,0.6-1.6,0c-2.6-2.6-5.4-4.8-7.6-7.8C1027.8,476.3,1027.6,475.8,1027.4,475.3z"/>
<path class="st4" d="M1187.1,457.5c0.5-1.5,1.5-1.8,2.9-1.1c1.6,0.9,2.5,2.4,3.6,3.7c1.3,1.5,2.5,3.1,3.7,4.7
	c0.5,0.6,0.5,1.3-0.2,1.8c-0.5,0.4-1.1,0.6-1.6,0c-2.6-2.6-5.4-4.8-7.6-7.8C1187.4,458.5,1187.2,458,1187.1,457.5z"/>
<path class="st5" d="M892.6,445.8c0,0.9-0.3,1.8-1.5,2c-1.1,0.2-1.8-0.2-2.2-1.3c-0.8-2.1-1.6-4.2-2.3-6.3c-0.3-1-0.2-2.1,1-2.6
	c1.3-0.5,2.2-0.2,2.9,0.9C892.1,440.7,892.1,443.2,892.6,445.8z"/>
<path class="st5" d="M849.1,455.6c0,0.7-0.2,1.4-1.2,1.6c-0.9,0.2-1.5-0.2-1.8-1c-0.6-1.7-1.3-3.3-1.8-5c-0.2-0.8-0.2-1.6,0.8-2.1
	c1-0.5,1.7-0.1,2.3,0.7C848.8,451.5,848.7,453.6,849.1,455.6z"/>
<path class="st6" d="M1317.2,470.7c0.2-1.6,0.1-2.9,0.4-4.3c0.2-1.2,0.4-1.8,1.8-1.8c1.6-0.1,1.9,0.8,2,2c0.4,2.7-0.5,5.3-1,7.9
	c-0.2,0.9-0.7,1.5-1.6,1.5c-0.9,0-1.3-0.9-1.5-1.6C1316.9,473,1317.1,471.7,1317.2,470.7z"/>
<path class="st4" d="M1102.6,439.9c-1.2,2.7-3,5.4-5.2,7.6c-0.7,0.7-1.4-0.2-2.1-0.6c-0.7-0.4-0.9-0.9-0.6-1.7
	c1.1-3.1,3.4-5.1,5.6-7.4c0.5-0.4,1.1-0.5,1.7-0.1C1102.6,438.3,1102.6,439,1102.6,439.9z"/>
<path class="st7" d="M1384.7,457.3c0.3-2.8,2-4.5,3.7-4.3c1.8,0.2,3.4,2.4,3,4.2c-0.4,2-2,2.9-3.8,2.9
	C1385.9,460,1384.8,458.6,1384.7,457.3z"/>
<path class="st9" d="M956.7,448.7c-0.2,1.8-1.7,2.7-3.6,2.7c-1.8,0-3.1-1.1-3.2-3.1c-0.1-2,1.8-4,3.5-3.9
	C955.2,444.6,956.8,446.4,956.7,448.7z"/>
<path class="st12" d="M1264.6,475.9c-0.4,2.8-2,4.8-3.8,4.3c-1.5-0.4-2.7-1.3-2.4-3.1c0.2-1.2,4-3.4,5.3-3.1
	C1264.7,474.3,1264.9,475,1264.6,475.9z"/>
<path class="st7" d="M1044.6,450.2c-0.1-1.6,0.5-2.4,1.6-2.4c1.1,0,1.8,0.9,1.8,2c0,1.1-0.5,1.7-1.6,1.8
	C1045.2,451.7,1044.7,450.9,1044.6,450.2z"/>
</svg>
