<svg width="29" height="29" viewBox="0 0 29 29" fill="none" xmlns="http://www.w3.org/2000/svg">
<path d="M20.2627 0H8.73314C4.04744 0 0.235352 3.8143 0.235352 8.50271V20.0389C0.235352 24.7273 4.04744 28.5416 8.73314 28.5416H20.2627C24.9484 28.5416 28.7605 24.7273 28.7605 20.0389V8.50271C28.7604 3.8143 24.9483 0 20.2627 0ZM25.8908 20.0389C25.8908 23.1491 23.371 25.6704 20.2627 25.6704H8.73314C5.62482 25.6704 3.10498 23.1491 3.10498 20.0389V8.50271C3.10498 5.39254 5.62482 2.87129 8.73314 2.87129H20.2627C23.371 2.87129 25.8908 5.39254 25.8908 8.50271V20.0389Z" fill="url(#paint0_linear)"/>
<path d="M14.4982 6.88965C10.4302 6.88965 7.12061 10.2011 7.12061 14.2714C7.12061 18.3417 10.4302 21.6532 14.4982 21.6532C18.5662 21.6532 21.8758 18.3417 21.8758 14.2714C21.8758 10.2011 18.5662 6.88965 14.4982 6.88965ZM14.4982 18.782C12.0085 18.782 9.99023 16.7626 9.99023 14.2715C9.99023 11.7803 12.0086 9.76091 14.4982 9.76091C16.9879 9.76091 19.0062 11.7803 19.0062 14.2715C19.0062 16.7625 16.9879 18.782 14.4982 18.782Z" fill="url(#paint1_linear)"/>
<path d="M21.8899 8.71443C22.8662 8.71443 23.6577 7.9225 23.6577 6.94559C23.6577 5.96869 22.8662 5.17676 21.8899 5.17676C20.9136 5.17676 20.1221 5.96869 20.1221 6.94559C20.1221 7.9225 20.9136 8.71443 21.8899 8.71443Z" fill="url(#paint2_linear)"/>
<defs>
<linearGradient id="paint0_linear" x1="14.4979" y1="28.4586" x2="14.4979" y2="0.221688" gradientUnits="userSpaceOnUse">
<stop stop-color="#92D2E8"/>
</linearGradient>
<linearGradient id="paint1_linear" x1="14.4982" y1="28.4591" x2="14.4982" y2="0.222467" gradientUnits="userSpaceOnUse">
<stop stop-color="#92D2E8"/>
</linearGradient>
<linearGradient id="paint2_linear" x1="21.8899" y1="28.4596" x2="21.8899" y2="0.222982" gradientUnits="userSpaceOnUse">
<stop stop-color="#92D2E8"/>
</linearGradient>
</defs>
</svg>
