<svg width="29" height="29" viewBox="0 0 29 29" fill="none" xmlns="http://www.w3.org/2000/svg">
<path d="M25.677 0H2.853C1.28385 0 0 1.28385 0 2.853V25.677C0 27.2462 1.28385 28.53 2.853 28.53H25.677C27.2462 28.53 28.53 27.2462 28.53 25.677V2.853C28.53 1.28385 27.2462 0 25.677 0ZM8.559 24.2505H4.2795V11.412H8.559V24.2505ZM6.41925 8.98695C4.99275 8.98695 3.85155 7.84575 3.85155 6.41925C3.85155 4.99275 4.99275 3.85155 6.41925 3.85155C7.84575 3.85155 8.98695 4.99275 8.98695 6.41925C8.98695 7.84575 7.84575 8.98695 6.41925 8.98695ZM24.2505 24.2505H19.971V16.6901C19.971 15.5489 18.9725 14.5503 17.8313 14.5503C16.6901 14.5503 15.6915 15.5489 15.6915 16.6901V24.2505H11.412V11.412H15.6915V13.1238C16.4048 11.9826 17.9739 11.1267 19.2578 11.1267C21.9681 11.1267 24.2505 13.4091 24.2505 16.1194V24.2505Z" fill="#92D2E8"/>
</svg>
