<svg width="800" height="496" viewBox="0 0 800 496" fill="none" xmlns="http://www.w3.org/2000/svg">
<path d="M799 0H0V479H799V0Z" fill="#D7F5FF"/>
<path d="M799.472 300.061L428.55 294.731L0 294.731V442.694L799.472 461.626V300.061Z" fill="#FFC088"/>
<path d="M799.472 317.55L480.005 326.406L0 311.693V462.209L799.472 479.115V317.55Z" fill="#FFA69F"/>
<path d="M799.472 372.876L766.335 357.303L273.514 301.755H799.472V372.876Z" fill="#ADDEF0"/>
<path d="M799.472 306.168H377.594L759.386 358.941L799.472 373.182V306.168Z" fill="#72CBEB"/>
<path d="M0 340.119V301.394L457.905 350.918L499.354 472.924L0 474.174V340.119Z" fill="#FFB288"/>
<path d="M799.472 358.635L465.272 338.648L0 377.929V485.722L799.472 476.228V358.635Z" fill="#FFC088"/>
<path d="M286.274 362.994L288.387 306.39L291.056 363.105L303.454 302.893L297.672 363.799L309.069 319.382L303.871 362.799L286.274 362.994Z" fill="#98C87D"/>
<path d="M249.441 366.936L223.143 316.745L253.61 364.659L234.54 306.224L259.698 362.022L247.578 317.772L264.591 358.052L249.441 366.936Z" fill="#98C87D"/>
<path d="M274.599 362.438L276.711 305.835L279.38 362.55L291.778 302.337L285.996 363.244L297.394 318.827L292.195 362.244L274.599 362.438Z" fill="#98C87D"/>
<path d="M268.483 362.438L270.596 305.835L273.264 362.55L285.663 302.337L279.88 363.244L291.278 318.827L286.08 362.244L268.483 362.438Z" fill="#98C87D"/>
<path d="M263.173 364.215L248.44 258.587L268.01 364.215L262.645 251.508L274.904 365.298L273.209 282.045L280.853 363.16L263.173 364.215Z" fill="#98C87D"/>
<path d="M799.472 355.304L444.339 335.65L0 370.905V478.699L799.472 482.724V355.304Z" fill="#E88469"/>
<path d="M787.713 383.259H0V474.396L780.179 480.697L787.713 383.259Z" fill="#D3754C"/>
<path d="M799.472 396.667L241.629 412.768L0 380.677L0.611578 489.803L800 495.05L799.472 396.667Z" fill="#B55C3E"/>
<path d="M588.589 387.062L734.255 396.861L799.472 386.257V373.182L765.335 376.457L588.589 387.062Z" fill="#C46A3D"/>
<path d="M205.574 370.933L394.301 407.965L513.225 404.717L608.131 398.166L423.212 393.28L205.574 370.933Z" fill="#C46A3D"/>
<path d="M498.659 382.926C498.686 383.342 498.686 383.758 498.686 384.175C524.123 383.398 542.72 380.982 542.72 378.095C542.72 375.208 524.067 372.765 498.547 372.016C498.464 376.069 498.52 379.733 498.659 382.926Z" fill="#3A3A36"/>
<path d="M467.552 371.932C440.309 372.571 420.015 375.097 420.015 378.123C420.015 381.121 440.17 383.62 467.218 384.286C467.218 382.787 467.246 381.232 467.246 379.65C467.301 377.04 467.413 374.486 467.552 371.932Z" fill="#3A3A36"/>
<path d="M553.534 213.199C542.081 223.554 472.722 283.516 467.552 371.933C467.413 374.486 467.301 377.04 467.274 379.622C467.246 381.204 467.246 382.759 467.246 384.258C471.777 384.369 476.531 384.425 481.396 384.425C487.428 384.425 493.238 384.341 498.714 384.175C498.714 383.758 498.687 383.342 498.687 382.926C498.548 379.733 498.492 376.069 498.575 372.016C499.326 336.427 510.418 270.968 557.593 226.413C610.077 176.805 553.534 213.199 553.534 213.199Z" fill="#E2BEDB"/>
<path d="M620.446 257.283C620.446 257.283 634.485 282.267 635.93 324.99C636.959 355.221 615.442 381.871 615.442 381.871H624.227C624.227 381.871 642.852 347.559 648.301 328.099C653.527 309.444 652.776 271.052 641.24 252.147C629.703 233.242 620.446 257.283 620.446 257.283Z" fill="#E2BEDB"/>
<path d="M636.375 254.479C636.375 254.479 653.054 272.606 649.385 306.502C644.631 350.585 620.919 382.398 620.919 382.398L625.228 383.592C625.228 383.592 657.836 332.013 652.971 291.039C648.106 250.065 640.851 247.15 640.851 247.15L636.375 254.479Z" fill="#DC90BA"/>
<path d="M633.206 277.52C633.206 277.964 632.845 278.325 632.4 278.325C631.955 278.325 631.594 277.964 631.594 277.52C631.594 277.076 631.955 276.715 632.4 276.715C632.845 276.715 633.206 277.076 633.206 277.52Z" fill="#BA6E9C"/>
<path d="M644.548 290.539C644.763 290.539 644.937 290.365 644.937 290.151C644.937 289.936 644.763 289.762 644.548 289.762C644.333 289.762 644.159 289.936 644.159 290.151C644.159 290.365 644.333 290.539 644.548 290.539Z" fill="#BA6E9C"/>
<path d="M635.986 286.931C636.201 286.931 636.375 286.757 636.375 286.542C636.375 286.327 636.201 286.153 635.986 286.153C635.771 286.153 635.597 286.327 635.597 286.542C635.597 286.757 635.771 286.931 635.986 286.931Z" fill="#BA6E9C"/>
<path d="M637.459 299.589C637.674 299.589 637.848 299.415 637.848 299.201C637.848 298.986 637.674 298.812 637.459 298.812C637.244 298.812 637.07 298.986 637.07 299.201C637.07 299.415 637.244 299.589 637.459 299.589Z" fill="#BA6E9C"/>
<path d="M640.378 324.962C640.593 324.962 640.767 324.788 640.767 324.573C640.767 324.359 640.593 324.185 640.378 324.185C640.163 324.185 639.989 324.359 639.989 324.573C639.989 324.788 640.163 324.962 640.378 324.962Z" fill="#BA6E9C"/>
<path d="M647.689 307.418C648.134 307.418 648.495 307.057 648.495 306.613C648.495 306.168 648.134 305.808 647.689 305.808C647.244 305.808 646.883 306.168 646.883 306.613C646.883 307.057 647.244 307.418 647.689 307.418Z" fill="#BA6E9C"/>
<path d="M642.38 340.786C642.825 340.786 643.186 340.425 643.186 339.98C643.186 339.536 642.825 339.175 642.38 339.175C641.934 339.175 641.573 339.536 641.573 339.98C641.573 340.425 641.934 340.786 642.38 340.786Z" fill="#BA6E9C"/>
<path d="M635.986 354.471C636.431 354.471 636.792 354.111 636.792 353.666C636.792 353.222 636.431 352.861 635.986 352.861C635.541 352.861 635.18 353.222 635.18 353.666C635.18 354.111 635.541 354.471 635.986 354.471Z" fill="#BA6E9C"/>
<path d="M630.926 368.74C631.372 368.74 631.733 368.38 631.733 367.935C631.733 367.49 631.372 367.13 630.926 367.13C630.481 367.13 630.12 367.49 630.12 367.935C630.12 368.38 630.481 368.74 630.926 368.74Z" fill="#BA6E9C"/>
<path d="M646.911 277.076C647.356 277.076 647.717 276.715 647.717 276.271C647.717 275.826 647.356 275.465 646.911 275.465C646.466 275.465 646.105 275.826 646.105 276.271C646.105 276.715 646.466 277.076 646.911 277.076Z" fill="#BA6E9C"/>
<path d="M639.989 335.122C640.204 335.122 640.378 334.948 640.378 334.734C640.378 334.519 640.204 334.345 639.989 334.345C639.774 334.345 639.6 334.519 639.6 334.734C639.6 334.948 639.774 335.122 639.989 335.122Z" fill="#BA6E9C"/>
<path d="M637.876 345.144C638.091 345.144 638.265 344.97 638.265 344.755C638.265 344.541 638.091 344.367 637.876 344.367C637.661 344.367 637.487 344.541 637.487 344.755C637.487 344.97 637.661 345.144 637.876 345.144Z" fill="#BA6E9C"/>
<path d="M646.105 321.27C646.55 321.27 646.911 320.91 646.911 320.465C646.911 320.02 646.55 319.66 646.105 319.66C645.659 319.66 645.298 320.02 645.298 320.465C645.298 320.91 645.659 321.27 646.105 321.27Z" fill="#BA6E9C"/>
<path d="M639.572 312.831C640.017 312.831 640.378 312.471 640.378 312.026C640.378 311.581 640.017 311.221 639.572 311.221C639.127 311.221 638.766 311.581 638.766 312.026C638.766 312.471 639.127 312.831 639.572 312.831Z" fill="#BA6E9C"/>
<path d="M625.533 268.553C625.533 268.553 639.989 269.192 641.796 266.443C643.603 263.723 641.796 262.335 641.796 262.335C641.796 262.335 645.41 260.669 644.075 257.255C642.074 252.175 622.503 261.113 622.503 261.113L625.533 268.553Z" fill="#BA6E9C"/>
<path d="M615.137 267.72L604.712 265.694C604.712 265.694 604.295 268.942 601.654 269.219C599.013 269.497 593.231 265.972 593.231 265.972L599.152 261.558L615.164 264.861L615.859 267.831L615.137 267.72Z" fill="#DC90BA"/>
<path d="M587.755 258.421C587.755 258.421 601.793 283.405 603.239 326.128C604.267 356.359 582.751 383.009 582.751 383.009H591.535C591.535 383.009 610.161 348.697 615.609 329.237C620.835 310.582 620.085 272.19 608.548 253.285C597.039 234.38 587.755 258.421 587.755 258.421Z" fill="#D3A9CF"/>
<path d="M603.683 255.617C603.683 255.617 620.363 273.744 616.693 307.64C611.94 351.723 588.227 383.536 588.227 383.536L592.536 384.73C592.536 384.73 625.144 333.151 620.279 292.177C615.415 251.203 608.159 248.288 608.159 248.288L603.683 255.617Z" fill="#DC90BA"/>
<path d="M600.514 278.658C600.514 279.102 600.153 279.463 599.708 279.463C599.263 279.463 598.902 279.102 598.902 278.658C598.902 278.214 599.263 277.853 599.708 277.853C600.153 277.853 600.514 278.214 600.514 278.658Z" fill="#BA6E9C"/>
<path d="M611.856 291.677C612.071 291.677 612.245 291.503 612.245 291.289C612.245 291.074 612.071 290.9 611.856 290.9C611.641 290.9 611.467 291.074 611.467 291.289C611.467 291.503 611.641 291.677 611.856 291.677Z" fill="#BA6E9C"/>
<path d="M603.266 288.069C603.481 288.069 603.656 287.895 603.656 287.68C603.656 287.465 603.481 287.291 603.266 287.291C603.051 287.291 602.877 287.465 602.877 287.68C602.877 287.895 603.051 288.069 603.266 288.069Z" fill="#BA6E9C"/>
<path d="M604.768 300.727C604.982 300.727 605.157 300.553 605.157 300.339C605.157 300.124 604.982 299.95 604.768 299.95C604.553 299.95 604.378 300.124 604.378 300.339C604.378 300.553 604.553 300.727 604.768 300.727Z" fill="#BA6E9C"/>
<path d="M607.687 326.1C607.901 326.1 608.076 325.926 608.076 325.712C608.076 325.497 607.901 325.323 607.687 325.323C607.472 325.323 607.297 325.497 607.297 325.712C607.297 325.926 607.472 326.1 607.687 326.1Z" fill="#BA6E9C"/>
<path d="M614.998 308.556C615.443 308.556 615.804 308.195 615.804 307.751C615.804 307.306 615.443 306.946 614.998 306.946C614.552 306.946 614.191 307.306 614.191 307.751C614.191 308.195 614.552 308.556 614.998 308.556Z" fill="#BA6E9C"/>
<path d="M609.688 341.951C610.133 341.951 610.494 341.591 610.494 341.146C610.494 340.702 610.133 340.341 609.688 340.341C609.243 340.341 608.882 340.702 608.882 341.146C608.882 341.591 609.243 341.951 609.688 341.951Z" fill="#BA6E9C"/>
<path d="M603.266 355.609C603.712 355.609 604.073 355.249 604.073 354.804C604.073 354.36 603.712 353.999 603.266 353.999C602.821 353.999 602.46 354.36 602.46 354.804C602.46 355.249 602.821 355.609 603.266 355.609Z" fill="#BA6E9C"/>
<path d="M598.235 369.878C598.68 369.878 599.041 369.518 599.041 369.073C599.041 368.629 598.68 368.268 598.235 368.268C597.79 368.268 597.429 368.629 597.429 369.073C597.429 369.518 597.79 369.878 598.235 369.878Z" fill="#BA6E9C"/>
<path d="M614.191 278.214C614.637 278.214 614.998 277.853 614.998 277.409C614.998 276.964 614.637 276.604 614.191 276.604C613.746 276.604 613.385 276.964 613.385 277.409C613.385 277.853 613.746 278.214 614.191 278.214Z" fill="#BA6E9C"/>
<path d="M607.27 336.288C607.484 336.288 607.659 336.114 607.659 335.9C607.659 335.685 607.484 335.511 607.27 335.511C607.055 335.511 606.88 335.685 606.88 335.9C606.88 336.114 607.055 336.288 607.27 336.288Z" fill="#BA6E9C"/>
<path d="M605.185 346.31C605.4 346.31 605.574 346.136 605.574 345.921C605.574 345.706 605.4 345.532 605.185 345.532C604.97 345.532 604.795 345.706 604.795 345.921C604.795 346.136 604.97 346.31 605.185 346.31Z" fill="#BA6E9C"/>
<path d="M613.413 322.436C613.858 322.436 614.219 322.075 614.219 321.631C614.219 321.186 613.858 320.826 613.413 320.826C612.968 320.826 612.607 321.186 612.607 321.631C612.607 322.075 612.968 322.436 613.413 322.436Z" fill="#BA6E9C"/>
<path d="M606.88 313.997C607.326 313.997 607.687 313.636 607.687 313.192C607.687 312.747 607.326 312.387 606.88 312.387C606.435 312.387 606.074 312.747 606.074 313.192C606.074 313.636 606.435 313.997 606.88 313.997Z" fill="#BA6E9C"/>
<path d="M592.842 269.691C592.842 269.691 607.297 270.33 609.104 267.581C610.911 264.833 609.104 263.473 609.104 263.473C609.104 263.473 612.718 261.807 611.384 258.393C609.382 253.313 589.812 262.251 589.812 262.251L592.842 269.691Z" fill="#BA6E9C"/>
<path d="M597.929 387.09L598.624 383.897H551.81C550.782 385.591 550.448 387.09 550.448 387.09H597.929Z" fill="#FFF5B0"/>
<path d="M560.928 382.62C560.901 383.092 560.901 383.509 560.873 383.897H598.624L602.349 367.158C602.349 367.158 596.372 367.685 593.787 369.739C591.202 371.794 590.173 376.624 590.173 376.624C590.173 376.624 588.783 376.957 590.507 371.821C592.23 366.686 589.645 367.185 589.645 367.185L584.474 377.151C584.474 377.151 566.405 378.123 559.233 379.122C560.261 379.816 560.984 380.927 560.928 382.62Z" fill="#E63A32"/>
<path d="M551.811 383.925H560.901C560.901 383.536 560.928 383.12 560.956 382.648C561.012 380.927 560.289 379.844 559.288 379.122C559.094 379.15 558.899 379.178 558.705 379.206C555.091 379.733 552.978 381.954 551.811 383.925Z" fill="#FFF5B0"/>
<path d="M580.304 380.316C580.304 380.316 580.277 379.317 579.637 378.373C579.081 377.596 578.442 377.457 577.942 377.485C578.72 376.68 579.665 377.096 580.221 377.596C581.277 378.539 581.361 380.177 581.361 380.261L580.304 380.316L580.833 380.288L580.304 380.316Z" fill="white"/>
<path d="M577.302 380.51C577.302 380.51 577.274 379.511 576.635 378.567C576.079 377.79 575.44 377.651 574.939 377.679C575.718 376.874 576.663 377.29 577.219 377.79C578.275 378.734 578.358 380.372 578.358 380.455L577.302 380.51L577.83 380.483L577.302 380.51Z" fill="white"/>
<path d="M586.198 379.955C586.198 379.955 586.17 378.956 585.531 378.012C584.975 377.235 584.335 377.096 583.835 377.124C584.613 376.319 585.558 376.735 586.114 377.235C587.171 378.178 587.254 379.816 587.254 379.9L586.198 379.955L586.726 379.927L586.198 379.955Z" fill="white"/>
<path d="M583.195 380.15C583.195 380.15 583.168 379.15 582.528 378.206C581.972 377.429 581.333 377.29 580.833 377.318C581.611 376.513 582.556 376.929 583.112 377.429C584.168 378.373 584.252 380.011 584.252 380.094L583.195 380.15L583.724 380.122L583.195 380.15Z" fill="white"/>
<path d="M589.256 378.789C589.228 378.678 588.172 376.041 585.142 375.874C585.142 375.874 584.78 375.514 585.42 375.014C589.478 375.042 590.229 378.456 590.229 378.484L589.256 378.789Z" fill="white"/>
<path d="M558.176 194.544C549.809 204.899 549.753 213.366 549.753 213.366C549.753 213.366 555.424 266.582 615.109 261.585C665.23 257.394 639.377 249.065 639.377 249.065C639.377 249.065 647.133 251.12 649.19 246.734C651.247 242.347 643.769 240.543 643.769 240.543C643.769 240.543 657.975 240.793 658.475 230.244C671.124 229.717 679.13 227.163 679.38 224.053C679.63 220.972 673.181 220.195 673.181 220.195C673.181 220.195 679.658 219.417 679.38 217.363C679.102 215.309 676.267 214.781 676.267 214.781C676.267 214.781 677.323 214.532 679.38 210.645C681.437 206.759 673.681 207.758 674.988 207.814C691.695 208.619 695.476 186.05 695.476 186.05C695.476 186.05 663.201 182.802 632.149 179.97C584.168 175.639 565.126 185.938 558.176 194.544Z" fill="#20264A"/>
<path d="M581.833 204.899C581.833 204.899 609.271 214.976 625.061 231.549C630.593 234.963 643.658 242.153 643.964 245.845C644.27 249.537 639.405 249.093 639.405 249.093C639.405 249.093 642.408 252.119 641.407 254.951C640.406 257.782 637.598 258.532 637.598 258.532L574.3 237.489C574.3 237.489 561.485 204.76 562.596 204.899C563.708 205.038 567.878 201.817 581.833 204.899Z" fill="#1F2141"/>
<path d="M598.874 234.991C607.686 241.848 611.523 246.512 609.466 249.343C607.408 252.175 604.045 251.397 604.045 251.397C604.045 251.397 607.13 255.006 605.601 257.06C604.045 259.115 598.902 257.838 598.902 257.838C598.902 257.838 604.573 262.724 602.266 266.332C599.93 269.941 592.202 265.555 587.81 263.251C583.418 260.919 572.576 250.87 563.041 239.794C553.506 228.717 550.921 217.363 550.921 217.363C550.921 217.363 555.007 200.79 598.874 234.991Z" fill="#20264A"/>
<path d="M549.781 217.557C549.781 217.557 561.762 261.585 602.766 264.278C637.237 266.554 639.155 263.001 638.905 260.142C638.654 257.31 626.006 256.005 626.006 256.005C626.006 256.005 638.182 258.06 638.932 254.201C639.683 250.342 636.069 251.12 626.256 246.206C636.319 248.26 637.848 249.815 639.016 246.206C640.183 242.597 632.705 241.82 627.813 238.211C622.92 234.602 598.179 216.28 571.298 206.259C543.61 195.988 549.781 217.557 549.781 217.557Z" fill="#282F54"/>
<path d="M623.365 234.269C623.365 234.269 636.069 245.096 632.733 247.733C637.487 248.843 640.962 250.148 641.379 246.678C641.796 243.208 625.895 234.352 623.365 234.269Z" fill="white"/>
<path d="M630.843 248.371C631.121 248.483 634.735 253.313 632.372 254.951C630.009 256.589 629.37 256.45 629.37 256.45C629.37 256.45 637.765 259.253 638.877 254.229C639.989 249.204 630.843 248.371 630.843 248.371Z" fill="white"/>
<path d="M622.086 265C622.086 265 631.983 264.667 634.179 261.419C636.403 258.171 634.179 257.477 634.179 257.477C634.179 257.477 639.711 258.615 639.377 260.475C639.044 262.307 640.211 265.5 622.086 265Z" fill="white"/>
<path d="M629.759 388.672L630.454 385.479H583.64C582.612 387.173 582.278 388.672 582.278 388.672H629.759Z" fill="#FFF5B0"/>
<path d="M592.758 384.203C592.73 384.675 592.73 385.091 592.703 385.48H630.454L634.179 368.74C634.179 368.74 628.202 369.268 625.617 371.322C623.031 373.376 622.003 378.206 622.003 378.206C622.003 378.206 620.613 378.539 622.336 373.404C624.06 368.268 621.475 368.768 621.475 368.768L616.304 378.734C616.304 378.734 598.235 379.705 591.062 380.705C592.091 381.399 592.842 382.509 592.758 384.203Z" fill="#E63A32"/>
<path d="M583.64 385.507H592.73C592.73 385.119 592.758 384.702 592.786 384.23C592.842 382.509 592.119 381.427 591.118 380.705C590.923 380.733 590.729 380.76 590.534 380.788C586.948 381.316 584.835 383.564 583.64 385.507Z" fill="#FFF5B0"/>
<path d="M612.134 381.926C612.134 381.926 612.106 380.927 611.467 379.983C610.911 379.206 610.272 379.067 609.771 379.095C610.55 378.29 611.495 378.706 612.051 379.206C613.107 380.15 613.19 381.787 613.19 381.871L612.134 381.926L612.662 381.898L612.134 381.926Z" fill="white"/>
<path d="M609.132 382.121C609.132 382.121 609.104 381.121 608.465 380.177C607.909 379.4 607.269 379.261 606.769 379.289C607.547 378.484 608.493 378.9 609.048 379.4C610.105 380.344 610.188 381.982 610.188 382.065L609.132 382.121L609.66 382.093L609.132 382.121Z" fill="white"/>
<path d="M618.027 381.538C618.027 381.538 618 380.538 617.36 379.594C616.804 378.817 616.165 378.678 615.665 378.706C616.443 377.901 617.388 378.317 617.944 378.817C619 379.761 619.084 381.399 619.084 381.482L618.027 381.538L618.556 381.51L618.027 381.538Z" fill="white"/>
<path d="M615.025 381.732C615.025 381.732 614.998 380.733 614.358 379.789C613.802 379.011 613.163 378.873 612.662 378.9C613.441 378.095 614.386 378.512 614.942 379.011C615.998 379.955 616.082 381.593 616.082 381.676L615.025 381.732L615.554 381.704L615.025 381.732Z" fill="white"/>
<path d="M621.085 380.399C621.058 380.288 620.001 377.651 616.971 377.485C616.971 377.485 616.61 377.124 617.249 376.624C621.308 376.652 622.058 380.066 622.058 380.094L621.085 380.399Z" fill="white"/>
<path d="M406.839 392.253L414.011 336.066L411.564 392.781L429.356 333.929L418.097 394.085L433.442 350.862L424.38 393.613L406.839 392.253Z" fill="#98C87D"/>
<path d="M406.839 395.806L409.146 384.702L424.38 375.403L440.614 381.538V389.422L449.288 392.67V396.528C449.288 396.528 449.288 399.193 419.571 400.304C411.453 397.278 406.839 395.806 406.839 395.806Z" fill="#8C8C8C"/>
<path d="M409.146 384.702L424.38 375.43L428.883 377.124L424.296 389.449L409.146 384.702Z" fill="#AFAFAF"/>
<path d="M508.055 289.068C508.623 289.068 509.083 288.608 509.083 288.041C509.083 287.474 508.623 287.014 508.055 287.014C507.487 287.014 507.026 287.474 507.026 288.041C507.026 288.608 507.487 289.068 508.055 289.068Z" fill="#D3A9CF"/>
<path d="M523.039 251.12C523.607 251.12 524.067 250.66 524.067 250.093C524.067 249.525 523.607 249.065 523.039 249.065C522.47 249.065 522.01 249.525 522.01 250.093C522.01 250.66 522.47 251.12 523.039 251.12Z" fill="#D3A9CF"/>
<path d="M544.527 231.965C545.095 231.965 545.556 231.505 545.556 230.938C545.556 230.371 545.095 229.911 544.527 229.911C543.959 229.911 543.499 230.371 543.499 230.938C543.499 231.505 543.959 231.965 544.527 231.965Z" fill="#D3A9CF"/>
<path d="M484.398 330.042C485.242 330.042 485.927 329.359 485.927 328.515C485.927 327.672 485.242 326.989 484.398 326.989C483.553 326.989 482.869 327.672 482.869 328.515C482.869 329.359 483.553 330.042 484.398 330.042Z" fill="#D3A9CF"/>
<path d="M489.068 365.686C489.912 365.686 490.597 365.003 490.597 364.16C490.597 363.316 489.912 362.633 489.068 362.633C488.224 362.633 487.539 363.316 487.539 364.16C487.539 365.003 488.224 365.686 489.068 365.686Z" fill="#D3A9CF"/>
<path d="M470.665 380.621C471.509 380.621 472.194 379.938 472.194 379.095C472.194 378.251 471.509 377.568 470.665 377.568C469.821 377.568 469.136 378.251 469.136 379.095C469.136 379.938 469.821 380.621 470.665 380.621Z" fill="#D3A9CF"/>
<path d="M0 483.979V445.553L444.089 465.984L799.472 412.879C799.472 412.879 797.137 486.499 799.472 490.247C801.779 494.022 0 483.979 0 483.979Z" fill="#964B33"/>
<path d="M799.472 430.257L653.471 451.383L722.719 477.449L799.472 465.79V430.257Z" fill="#964B33"/>
<path d="M-18.9996 100.953C-18.9996 108.448 -12.8838 114.555 -5.37811 114.555H40.4069C47.1342 114.555 52.6662 109.114 52.7774 102.396C52.8608 95.6782 47.5234 90.0984 40.7682 89.8763C43.5481 82.2144 39.5451 73.6643 31.8726 70.8882C24.2 68.1122 15.6379 72.0542 12.858 79.7715C9.74455 78.328 6.21408 78.439 3.15619 79.9381C0.0983014 81.4649 -2.07003 84.3242 -2.7372 87.6555C-3.62677 87.4889 -4.54414 87.3779 -5.43371 87.3779C-12.9394 87.4056 -19.0552 93.5129 -18.9996 100.953Z" fill="white"/>
<path d="M429.161 210.867C428.661 210.867 428.16 210.923 427.66 211.006C427.299 209.174 426.103 207.564 424.408 206.731C422.712 205.898 420.738 205.843 419.015 206.62C417.458 202.345 412.732 200.152 408.479 201.706C404.225 203.261 402.002 207.98 403.558 212.228C399.833 212.339 396.859 215.448 396.914 219.168C396.97 222.888 400.028 225.913 403.781 225.913H429.161C433.331 225.913 436.723 222.527 436.723 218.363C436.695 214.254 433.303 210.867 429.161 210.867Z" fill="white"/>
<path d="M754.465 65.5142C753.631 65.5142 752.825 65.5975 751.991 65.764C751.38 62.7104 749.378 60.0732 746.57 58.6852C743.763 57.2972 740.51 57.2139 737.647 58.5186C735.089 51.4397 727.25 47.8031 720.189 50.3571C713.128 52.911 709.459 60.7394 712.016 67.7905C705.817 67.9849 700.924 73.1205 700.98 79.2833C701.063 85.4739 706.151 90.4429 712.322 90.4429H754.382C761.276 90.4429 766.891 84.8354 766.891 77.9508C766.975 71.1218 761.359 65.5142 754.465 65.5142Z" fill="white"/>
<path d="M771.367 232.548C770.783 232.548 770.227 232.604 769.644 232.715C769.227 230.605 767.837 228.773 765.891 227.801C763.945 226.829 761.693 226.774 759.719 227.69C757.94 222.776 752.519 220.278 747.627 222.027C742.734 223.804 740.204 229.217 741.956 234.103C737.675 234.241 734.255 237.795 734.339 242.07C734.394 246.345 737.897 249.815 742.206 249.815H771.312C776.093 249.815 779.957 245.928 779.957 241.181C780.04 236.434 776.149 232.548 771.367 232.548Z" fill="white"/>
<path d="M531.434 134.471C531.1 134.471 530.767 134.499 530.433 134.582C530.183 133.333 529.377 132.278 528.237 131.695C527.097 131.14 525.763 131.084 524.623 131.639C523.594 128.752 520.398 127.281 517.534 128.336C514.671 129.363 513.17 132.555 514.226 135.415C511.724 135.498 509.723 137.58 509.751 140.078C509.778 142.577 511.835 144.603 514.365 144.603H531.434C534.241 144.603 536.493 142.327 536.493 139.551C536.493 136.747 534.214 134.471 531.434 134.471Z" fill="white"/>
<path d="M458.322 53.9659C457.989 53.9659 457.655 53.9937 457.322 54.0769C457.071 52.8277 456.265 51.7728 455.125 51.1899C453.986 50.6347 452.651 50.5791 451.512 51.1344C450.483 48.2473 447.286 46.776 444.423 47.8309C441.56 48.858 440.058 52.0504 441.115 54.9098C438.613 54.993 436.611 57.0751 436.639 59.5735C436.667 62.0719 438.724 64.0984 441.254 64.0984H458.322C461.13 64.0984 463.382 61.8221 463.382 59.046C463.382 56.2422 461.102 53.9659 458.322 53.9659Z" fill="white"/>
<path d="M71.3044 450.244L78.4766 403.885L76.0303 450.244L93.8216 401.747L82.563 450.244L97.9081 418.681L88.8456 450.244H71.3044Z" fill="#98C87D"/>
<path d="M34.8043 450.244L27.66 403.885L30.0785 450.244L12.2871 401.747L23.5457 450.244L8.20068 418.681L17.291 450.244H34.8043Z" fill="#98C87D"/>
<path d="M49.7324 450.244L59.3231 381.01L56.0706 450.244L79.9222 378.151L64.8273 450.244L85.3986 400.859L73.2226 450.244H49.7324Z" fill="#98C87D"/>
<path d="M52.5958 450.244L49.7325 337.898L46.2576 450.244L22.406 378.151L37.5009 450.244L16.9296 400.859L29.1056 450.244H52.5958Z" fill="#98C87D"/>
<path d="M775.537 434.81L774.675 397.999L779.206 434.171L786.239 394.252L784.238 433.283L791.744 406.772L789.075 432.422L775.537 434.81Z" fill="#98C87D"/>
<path d="M747.321 439.834L735.395 404.995L743.679 440.5L723.247 405.467L738.648 441.389L722.413 419.125L733.783 442.249L747.321 439.834Z" fill="#98C87D"/>
<path d="M758.858 437.808L756.717 382.981L763.75 436.919L772.229 377.929L770.533 435.726L779.623 394.724L777.01 434.56L758.858 437.808Z" fill="#98C87D"/>
<path d="M761.081 437.391L743.346 350.974L756.189 438.28L727.806 385.84L749.406 439.473L726.694 404.134L742.929 440.639L761.081 437.391Z" fill="#98C87D"/>
<path d="M125.286 110.04V87.24C125.286 85.84 125.326 84.34 125.406 82.74C125.526 81.1 125.686 79.4 125.886 77.64L102.786 110.04H125.286ZM150.486 110.04V120.48C150.486 121.4 150.166 122.2 149.526 122.88C148.926 123.56 148.046 123.9 146.886 123.9H141.486V144H125.286V123.9H90.1259C88.9659 123.9 87.9059 123.54 86.9459 122.82C86.0259 122.1 85.4459 121.2 85.2059 120.12L83.2859 110.94L123.726 56.58H141.486V110.04H150.486ZM220.395 100.26C220.395 107.9 219.575 114.52 217.935 120.12C216.295 125.72 214.015 130.36 211.095 134.04C208.215 137.72 204.775 140.46 200.775 142.26C196.815 144.06 192.515 144.96 187.875 144.96C183.235 144.96 178.935 144.06 174.975 142.26C171.055 140.46 167.655 137.72 164.775 134.04C161.895 130.36 159.635 125.72 157.995 120.12C156.395 114.52 155.595 107.9 155.595 100.26C155.595 92.62 156.395 86 157.995 80.4C159.635 74.8 161.895 70.16 164.775 66.48C167.655 62.8 171.055 60.08 174.975 58.32C178.935 56.52 183.235 55.62 187.875 55.62C192.515 55.62 196.815 56.52 200.775 58.32C204.775 60.08 208.215 62.8 211.095 66.48C214.015 70.16 216.295 74.8 217.935 80.4C219.575 86 220.395 92.62 220.395 100.26ZM201.195 100.26C201.195 94.22 200.815 89.28 200.055 85.44C199.295 81.56 198.275 78.52 196.995 76.32C195.755 74.12 194.335 72.62 192.735 71.82C191.135 70.98 189.515 70.56 187.875 70.56C186.235 70.56 184.615 70.98 183.015 71.82C181.455 72.62 180.055 74.12 178.815 76.32C177.615 78.52 176.635 81.56 175.875 85.44C175.155 89.28 174.795 94.22 174.795 100.26C174.795 106.34 175.155 111.3 175.875 115.14C176.635 118.98 177.615 122.02 178.815 124.26C180.055 126.46 181.455 127.98 183.015 128.82C184.615 129.62 186.235 130.02 187.875 130.02C189.515 130.02 191.135 129.62 192.735 128.82C194.335 127.98 195.755 126.46 196.995 124.26C198.275 122.02 199.295 118.98 200.055 115.14C200.815 111.3 201.195 106.34 201.195 100.26ZM264.505 110.04V87.24C264.505 85.84 264.545 84.34 264.625 82.74C264.745 81.1 264.905 79.4 265.105 77.64L242.005 110.04H264.505ZM289.705 110.04V120.48C289.705 121.4 289.385 122.2 288.745 122.88C288.145 123.56 287.265 123.9 286.105 123.9H280.705V144H264.505V123.9H229.345C228.185 123.9 227.125 123.54 226.165 122.82C225.245 122.1 224.665 121.2 224.425 120.12L222.505 110.94L262.945 56.58H280.705V110.04H289.705Z" fill="#263069"/>
<path d="M306.95 127.716C306.343 127.716 305.756 127.777 305.148 127.899C304.703 125.659 303.246 123.725 301.201 122.707C299.156 121.689 296.788 121.628 294.702 122.585C292.84 117.393 287.131 114.725 281.989 116.599C276.847 118.472 274.175 124.214 276.037 129.385C271.523 129.528 267.96 133.295 268 137.815C268.061 142.355 271.766 146 276.26 146H306.889C311.91 146 315.999 141.887 315.999 136.838C316.06 131.829 311.971 127.716 306.95 127.716Z" fill="white"/>
<path d="M95.698 162.87C97.018 162.87 97.968 162.555 98.548 161.925C99.128 161.295 99.418 160.415 99.418 159.285C99.418 158.785 99.343 158.33 99.193 157.92C99.043 157.51 98.813 157.16 98.503 156.87C98.203 156.57 97.818 156.34 97.348 156.18C96.888 156.02 96.338 155.94 95.698 155.94H93.058V162.87H95.698ZM95.698 152.145C97.238 152.145 98.558 152.33 99.658 152.7C100.768 153.06 101.678 153.56 102.388 154.2C103.108 154.84 103.638 155.595 103.978 156.465C104.318 157.335 104.488 158.275 104.488 159.285C104.488 160.375 104.313 161.375 103.963 162.285C103.613 163.195 103.078 163.975 102.358 164.625C101.638 165.275 100.723 165.785 99.613 166.155C98.513 166.515 97.208 166.695 95.698 166.695H93.058V174H87.988V152.145H95.698ZM114.106 167.67C113.176 167.71 112.411 167.79 111.811 167.91C111.211 168.03 110.736 168.18 110.386 168.36C110.036 168.54 109.791 168.745 109.651 168.975C109.521 169.205 109.456 169.455 109.456 169.725C109.456 170.255 109.601 170.63 109.891 170.85C110.181 171.06 110.606 171.165 111.166 171.165C111.766 171.165 112.291 171.06 112.741 170.85C113.191 170.64 113.646 170.3 114.106 169.83V167.67ZM105.736 160.605C106.676 159.775 107.716 159.16 108.856 158.76C110.006 158.35 111.236 158.145 112.546 158.145C113.486 158.145 114.331 158.3 115.081 158.61C115.841 158.91 116.481 159.335 117.001 159.885C117.531 160.425 117.936 161.07 118.216 161.82C118.496 162.57 118.636 163.39 118.636 164.28V174H116.506C116.066 174 115.731 173.94 115.501 173.82C115.281 173.7 115.096 173.45 114.946 173.07L114.616 172.215C114.226 172.545 113.851 172.835 113.491 173.085C113.131 173.335 112.756 173.55 112.366 173.73C111.986 173.9 111.576 174.025 111.136 174.105C110.706 174.195 110.226 174.24 109.696 174.24C108.986 174.24 108.341 174.15 107.761 173.97C107.181 173.78 106.686 173.505 106.276 173.145C105.876 172.785 105.566 172.34 105.346 171.81C105.126 171.27 105.016 170.65 105.016 169.95C105.016 169.39 105.156 168.825 105.436 168.255C105.716 167.675 106.201 167.15 106.891 166.68C107.581 166.2 108.511 165.8 109.681 165.48C110.851 165.16 112.326 164.98 114.106 164.94V164.28C114.106 163.37 113.916 162.715 113.536 162.315C113.166 161.905 112.636 161.7 111.946 161.7C111.396 161.7 110.946 161.76 110.596 161.88C110.246 162 109.931 162.135 109.651 162.285C109.381 162.435 109.116 162.57 108.856 162.69C108.596 162.81 108.286 162.87 107.926 162.87C107.606 162.87 107.336 162.79 107.116 162.63C106.896 162.47 106.716 162.28 106.576 162.06L105.736 160.605ZM127.533 165.405C128.303 165.405 128.858 165.215 129.198 164.835C129.548 164.445 129.723 163.945 129.723 163.335C129.723 162.705 129.548 162.21 129.198 161.85C128.858 161.49 128.303 161.31 127.533 161.31C126.763 161.31 126.203 161.49 125.853 161.85C125.513 162.21 125.343 162.705 125.343 163.335C125.343 163.635 125.383 163.91 125.463 164.16C125.553 164.41 125.688 164.63 125.868 164.82C126.048 165 126.273 165.145 126.543 165.255C126.823 165.355 127.153 165.405 127.533 165.405ZM131.133 174.57C131.133 174.2 130.968 173.935 130.638 173.775C130.308 173.605 129.878 173.485 129.348 173.415C128.818 173.345 128.223 173.305 127.563 173.295C126.913 173.275 126.263 173.235 125.613 173.175C125.323 173.375 125.083 173.6 124.893 173.85C124.713 174.09 124.623 174.365 124.623 174.675C124.623 174.895 124.668 175.095 124.758 175.275C124.858 175.455 125.028 175.61 125.268 175.74C125.508 175.87 125.828 175.97 126.228 176.04C126.638 176.12 127.153 176.16 127.773 176.16C128.443 176.16 128.993 176.12 129.423 176.04C129.853 175.96 130.193 175.85 130.443 175.71C130.703 175.57 130.883 175.4 130.983 175.2C131.083 175.01 131.133 174.8 131.133 174.57ZM135.723 158.925V160.62C135.723 160.88 135.648 161.085 135.498 161.235C135.358 161.385 135.113 161.5 134.763 161.58L133.638 161.835C133.698 162.055 133.743 162.28 133.773 162.51C133.813 162.74 133.833 162.98 133.833 163.23C133.833 164.01 133.668 164.71 133.338 165.33C133.018 165.95 132.573 166.48 132.003 166.92C131.443 167.35 130.778 167.685 130.008 167.925C129.238 168.155 128.413 168.27 127.533 168.27C127.293 168.27 127.058 168.265 126.828 168.255C126.598 168.235 126.373 168.205 126.153 168.165C125.813 168.375 125.643 168.61 125.643 168.87C125.643 169.13 125.783 169.32 126.063 169.44C126.343 169.55 126.713 169.63 127.173 169.68C127.633 169.72 128.153 169.75 128.733 169.77C129.323 169.78 129.923 169.815 130.533 169.875C131.143 169.925 131.738 170.015 132.318 170.145C132.908 170.275 133.433 170.485 133.893 170.775C134.353 171.065 134.723 171.455 135.003 171.945C135.283 172.425 135.423 173.04 135.423 173.79C135.423 174.49 135.253 175.175 134.913 175.845C134.573 176.515 134.073 177.11 133.413 177.63C132.753 178.15 131.943 178.565 130.983 178.875C130.023 179.195 128.923 179.355 127.683 179.355C126.463 179.355 125.408 179.24 124.518 179.01C123.638 178.78 122.903 178.475 122.313 178.095C121.733 177.725 121.303 177.295 121.023 176.805C120.743 176.315 120.603 175.805 120.603 175.275C120.603 174.585 120.803 174.01 121.203 173.55C121.603 173.09 122.163 172.72 122.883 172.44C122.503 172.21 122.203 171.915 121.983 171.555C121.763 171.195 121.653 170.73 121.653 170.16C121.653 169.93 121.693 169.69 121.773 169.44C121.853 169.18 121.978 168.93 122.148 168.69C122.328 168.44 122.548 168.205 122.808 167.985C123.068 167.765 123.378 167.57 123.738 167.4C122.928 166.97 122.288 166.405 121.818 165.705C121.348 164.995 121.113 164.17 121.113 163.23C121.113 162.45 121.278 161.75 121.608 161.13C121.938 160.5 122.388 159.97 122.958 159.54C123.538 159.1 124.218 158.765 124.998 158.535C125.778 158.295 126.623 158.175 127.533 158.175C128.853 158.175 130.023 158.425 131.043 158.925H135.723ZM147.045 164.355C147.045 163.985 146.995 163.625 146.895 163.275C146.805 162.925 146.65 162.615 146.43 162.345C146.22 162.065 145.94 161.84 145.59 161.67C145.24 161.5 144.815 161.415 144.315 161.415C143.435 161.415 142.745 161.67 142.245 162.18C141.745 162.68 141.415 163.405 141.255 164.355H147.045ZM141.195 167.055C141.345 168.355 141.74 169.3 142.38 169.89C143.02 170.47 143.845 170.76 144.855 170.76C145.395 170.76 145.86 170.695 146.25 170.565C146.64 170.435 146.985 170.29 147.285 170.13C147.595 169.97 147.875 169.825 148.125 169.695C148.385 169.565 148.655 169.5 148.935 169.5C149.305 169.5 149.585 169.635 149.775 169.905L151.125 171.57C150.645 172.12 150.125 172.57 149.565 172.92C149.015 173.26 148.445 173.53 147.855 173.73C147.275 173.92 146.69 174.05 146.1 174.12C145.52 174.2 144.965 174.24 144.435 174.24C143.345 174.24 142.32 174.065 141.36 173.715C140.41 173.355 139.575 172.825 138.855 172.125C138.145 171.425 137.58 170.555 137.16 169.515C136.75 168.475 136.545 167.265 136.545 165.885C136.545 164.845 136.72 163.86 137.07 162.93C137.43 162 137.94 161.185 138.6 160.485C139.27 159.785 140.075 159.23 141.015 158.82C141.965 158.41 143.035 158.205 144.225 158.205C145.255 158.205 146.195 158.365 147.045 158.685C147.905 159.005 148.64 159.47 149.25 160.08C149.87 160.69 150.35 161.44 150.69 162.33C151.04 163.21 151.215 164.21 151.215 165.33C151.215 165.68 151.2 165.965 151.17 166.185C151.14 166.405 151.085 166.58 151.005 166.71C150.925 166.84 150.815 166.93 150.675 166.98C150.545 167.03 150.375 167.055 150.165 167.055H141.195ZM164.775 160.125C165.075 159.845 165.385 159.585 165.705 159.345C166.025 159.105 166.365 158.905 166.725 158.745C167.095 158.575 167.49 158.445 167.91 158.355C168.34 158.255 168.805 158.205 169.305 158.205C170.155 158.205 170.905 158.355 171.555 158.655C172.215 158.945 172.77 159.355 173.22 159.885C173.67 160.405 174.01 161.03 174.24 161.76C174.47 162.48 174.585 163.265 174.585 164.115V174H169.935V164.115C169.935 163.355 169.76 162.765 169.41 162.345C169.06 161.915 168.545 161.7 167.865 161.7C167.355 161.7 166.875 161.81 166.425 162.03C165.985 162.24 165.555 162.53 165.135 162.9V174H160.485V158.445H163.365C163.945 158.445 164.325 158.705 164.505 159.225L164.775 160.125ZM184.765 158.205C185.945 158.205 187.02 158.39 187.99 158.76C188.96 159.13 189.79 159.66 190.48 160.35C191.18 161.04 191.72 161.88 192.1 162.87C192.49 163.85 192.685 164.955 192.685 166.185C192.685 167.425 192.49 168.545 192.1 169.545C191.72 170.535 191.18 171.38 190.48 172.08C189.79 172.77 188.96 173.305 187.99 173.685C187.02 174.055 185.945 174.24 184.765 174.24C183.575 174.24 182.49 174.055 181.51 173.685C180.54 173.305 179.7 172.77 178.99 172.08C178.29 171.38 177.745 170.535 177.355 169.545C176.975 168.545 176.785 167.425 176.785 166.185C176.785 164.955 176.975 163.85 177.355 162.87C177.745 161.88 178.29 161.04 178.99 160.35C179.7 159.66 180.54 159.13 181.51 158.76C182.49 158.39 183.575 158.205 184.765 158.205ZM184.765 170.79C185.835 170.79 186.62 170.415 187.12 169.665C187.63 168.905 187.885 167.755 187.885 166.215C187.885 164.675 187.63 163.53 187.12 162.78C186.62 162.03 185.835 161.655 184.765 161.655C183.665 161.655 182.86 162.03 182.35 162.78C181.84 163.53 181.585 164.675 181.585 166.215C181.585 167.755 181.84 168.905 182.35 169.665C182.86 170.415 183.665 170.79 184.765 170.79ZM200.269 174.24C199.529 174.24 198.874 174.135 198.304 173.925C197.744 173.705 197.269 173.4 196.879 173.01C196.499 172.61 196.209 172.13 196.009 171.57C195.809 171.01 195.709 170.385 195.709 169.695V161.655H194.389C194.149 161.655 193.944 161.58 193.774 161.43C193.604 161.27 193.519 161.04 193.519 160.74V158.925L195.994 158.445L196.909 154.65C197.029 154.17 197.369 153.93 197.929 153.93H200.359V158.475H204.214V161.655H200.359V169.38C200.359 169.74 200.444 170.04 200.614 170.28C200.794 170.51 201.049 170.625 201.379 170.625C201.549 170.625 201.689 170.61 201.799 170.58C201.919 170.54 202.019 170.5 202.099 170.46C202.189 170.41 202.269 170.37 202.339 170.34C202.419 170.3 202.509 170.28 202.609 170.28C202.749 170.28 202.859 170.315 202.939 170.385C203.029 170.445 203.119 170.545 203.209 170.685L204.619 172.89C204.019 173.34 203.344 173.68 202.594 173.91C201.844 174.13 201.069 174.24 200.269 174.24ZM214.316 174V161.64L213.296 161.43C212.946 161.35 212.661 161.225 212.441 161.055C212.231 160.885 212.126 160.635 212.126 160.305V158.475H214.316V157.59C214.316 156.7 214.456 155.895 214.736 155.175C215.026 154.455 215.436 153.84 215.966 153.33C216.506 152.82 217.161 152.425 217.931 152.145C218.701 151.865 219.576 151.725 220.556 151.725C220.936 151.725 221.286 151.75 221.606 151.8C221.926 151.84 222.261 151.91 222.611 152.01L222.521 154.275C222.511 154.435 222.471 154.57 222.401 154.68C222.331 154.78 222.236 154.865 222.116 154.935C222.006 154.995 221.886 155.04 221.756 155.07C221.626 155.1 221.496 155.115 221.366 155.115C220.956 155.115 220.591 155.155 220.271 155.235C219.951 155.315 219.681 155.46 219.461 155.67C219.251 155.87 219.091 156.14 218.981 156.48C218.871 156.81 218.816 157.23 218.816 157.74V158.475H222.461V161.655H218.966V174H214.316ZM230.995 158.205C232.175 158.205 233.25 158.39 234.22 158.76C235.19 159.13 236.02 159.66 236.71 160.35C237.41 161.04 237.95 161.88 238.33 162.87C238.72 163.85 238.915 164.955 238.915 166.185C238.915 167.425 238.72 168.545 238.33 169.545C237.95 170.535 237.41 171.38 236.71 172.08C236.02 172.77 235.19 173.305 234.22 173.685C233.25 174.055 232.175 174.24 230.995 174.24C229.805 174.24 228.72 174.055 227.74 173.685C226.77 173.305 225.93 172.77 225.22 172.08C224.52 171.38 223.975 170.535 223.585 169.545C223.205 168.545 223.015 167.425 223.015 166.185C223.015 164.955 223.205 163.85 223.585 162.87C223.975 161.88 224.52 161.04 225.22 160.35C225.93 159.66 226.77 159.13 227.74 158.76C228.72 158.39 229.805 158.205 230.995 158.205ZM230.995 170.79C232.065 170.79 232.85 170.415 233.35 169.665C233.86 168.905 234.115 167.755 234.115 166.215C234.115 164.675 233.86 163.53 233.35 162.78C232.85 162.03 232.065 161.655 230.995 161.655C229.895 161.655 229.09 162.03 228.58 162.78C228.07 163.53 227.815 164.675 227.815 166.215C227.815 167.755 228.07 168.905 228.58 169.665C229.09 170.415 229.895 170.79 230.995 170.79ZM255.207 158.445V174H252.327C251.747 174 251.367 173.74 251.187 173.22L250.917 172.32C250.617 172.61 250.307 172.875 249.987 173.115C249.667 173.345 249.322 173.545 248.952 173.715C248.592 173.875 248.197 174 247.767 174.09C247.347 174.19 246.887 174.24 246.387 174.24C245.537 174.24 244.782 174.095 244.122 173.805C243.472 173.505 242.922 173.09 242.472 172.56C242.022 172.03 241.682 171.405 241.452 170.685C241.222 169.965 241.107 169.175 241.107 168.315V158.445H245.757V168.315C245.757 169.085 245.932 169.68 246.282 170.1C246.632 170.52 247.147 170.73 247.827 170.73C248.337 170.73 248.812 170.625 249.252 170.415C249.702 170.195 250.137 169.9 250.557 169.53V158.445H255.207ZM262.656 160.125C262.956 159.845 263.266 159.585 263.586 159.345C263.906 159.105 264.246 158.905 264.606 158.745C264.976 158.575 265.371 158.445 265.791 158.355C266.221 158.255 266.686 158.205 267.186 158.205C268.036 158.205 268.786 158.355 269.436 158.655C270.096 158.945 270.651 159.355 271.101 159.885C271.551 160.405 271.891 161.03 272.121 161.76C272.351 162.48 272.466 163.265 272.466 164.115V174H267.816V164.115C267.816 163.355 267.641 162.765 267.291 162.345C266.941 161.915 266.426 161.7 265.746 161.7C265.236 161.7 264.756 161.81 264.306 162.03C263.866 162.24 263.436 162.53 263.016 162.9V174H258.366V158.445H261.246C261.826 158.445 262.206 158.705 262.386 159.225L262.656 160.125ZM284.91 162.615C284.56 162.225 284.18 161.955 283.77 161.805C283.36 161.645 282.93 161.565 282.48 161.565C282.05 161.565 281.655 161.65 281.295 161.82C280.935 161.99 280.62 162.265 280.35 162.645C280.09 163.015 279.885 163.5 279.735 164.1C279.585 164.7 279.51 165.425 279.51 166.275C279.51 167.095 279.57 167.785 279.69 168.345C279.81 168.905 279.975 169.36 280.185 169.71C280.405 170.05 280.665 170.295 280.965 170.445C281.265 170.595 281.6 170.67 281.97 170.67C282.31 170.67 282.615 170.64 282.885 170.58C283.165 170.51 283.42 170.415 283.65 170.295C283.88 170.175 284.095 170.025 284.295 169.845C284.505 169.655 284.71 169.44 284.91 169.2V162.615ZM289.56 151.545V174H286.68C286.1 174 285.72 173.74 285.54 173.22L285.18 172.035C284.87 172.365 284.545 172.665 284.205 172.935C283.865 173.205 283.495 173.44 283.095 173.64C282.705 173.83 282.28 173.975 281.82 174.075C281.37 174.185 280.88 174.24 280.35 174.24C279.54 174.24 278.79 174.06 278.1 173.7C277.41 173.34 276.815 172.82 276.315 172.14C275.815 171.46 275.42 170.63 275.13 169.65C274.85 168.66 274.71 167.535 274.71 166.275C274.71 165.115 274.87 164.04 275.19 163.05C275.51 162.05 275.96 161.19 276.54 160.47C277.13 159.74 277.835 159.17 278.655 158.76C279.475 158.35 280.38 158.145 281.37 158.145C282.18 158.145 282.86 158.26 283.41 158.49C283.96 158.72 284.46 159.03 284.91 159.42V151.545H289.56Z" fill="#263069"/>
</svg>
