<svg width="1119" height="696" viewBox="0 0 1119 696" fill="none" xmlns="http://www.w3.org/2000/svg">
<path d="M1118.97 0.0337067H0.371216V614.435H1118.97V0.0337067Z" fill="#D7F5FF"/>
<path d="M1119 397.377L520.155 390.94L0.370911 371.492V570.552L1119 593.538V397.377Z" fill="#FFC088"/>
<path d="M1119 418.611L582.527 429.363L0.370911 411.499V594.28L1119 614.772V418.611Z" fill="#FFA69F"/>
<path d="M1119 485.784L929.792 466.876L332.126 399.467H1119V485.784Z" fill="#ADDEF0"/>
<path d="M1119 404.826H458.355L921.363 468.898L1119 486.155V404.826Z" fill="#72CBEB"/>
<path d="M0.370911 446.013V399.029L555.758 459.124L606.027 607.29L0.370911 608.806V446.013Z" fill="#FFB288"/>
<path d="M1119 468.494L564.692 444.26L0.370911 491.919V622.827L1119 611.267V468.494Z" fill="#FFC088"/>
<path d="M347.601 473.819L350.13 405.062L353.367 473.92L368.437 400.815L361.391 474.797L375.214 420.836L368.909 473.55L347.601 473.819Z" fill="#98C87D"/>
<path d="M302.895 478.605L271.035 417.634L307.986 475.842L284.824 404.893L315.37 472.606L300.637 418.915L321.27 467.82L302.895 478.605Z" fill="#98C87D"/>
<path d="M333.441 473.145L335.97 404.388L339.206 473.246L354.277 400.141L347.231 474.123L361.054 420.162L354.749 472.876L333.441 473.145Z" fill="#98C87D"/>
<path d="M326.024 473.145L328.553 404.388L331.789 473.246L346.86 400.141L339.813 474.123L353.636 420.162L347.332 472.876L326.024 473.145Z" fill="#98C87D"/>
<path d="M319.584 475.269L301.715 347.023L325.451 475.269L318.944 338.428L333.812 476.583L331.722 375.503L341.027 474.022L319.584 475.269Z" fill="#98C87D"/>
<path d="M1119 464.449L539.305 440.62L0.370911 483.391V614.3L1119 619.154V464.449Z" fill="#E88469"/>
<path d="M955.752 498.39H0.370911V609.042L946.615 616.693L955.752 498.39Z" fill="#D3754C"/>
<path d="M1119 514.703L293.455 534.218L0.404663 495.289L1.14639 695.191L1119 701.528V514.703Z" fill="#B55C3E"/>
<path d="M714.252 503.008L890.884 514.939L1119 502.03V486.155L928.612 490.132L714.252 503.008Z" fill="#C46A3D"/>
<path d="M249.693 483.425L478.618 528.421L622.817 524.444L737.953 516.489L513.681 510.557L249.693 483.425Z" fill="#C46A3D"/>
<path d="M605.184 498.019C605.217 498.525 605.217 499.03 605.217 499.536C636.067 498.592 658.622 495.66 658.622 492.155C658.622 488.649 635.999 485.683 605.049 484.773C604.948 489.66 605.015 494.109 605.184 498.019Z" fill="#3A3A36"/>
<path d="M567.457 484.638C534.416 485.414 509.804 488.481 509.804 492.155C509.804 495.795 534.247 498.828 567.052 499.637C567.052 497.817 567.086 495.93 567.086 494.008C567.153 490.84 567.254 487.739 567.457 484.638Z" fill="#3A3A36"/>
<path d="M671.703 291.949C657.813 304.521 573.694 377.323 567.423 484.672C567.254 487.773 567.119 490.874 567.086 494.008C567.052 495.929 567.052 497.817 567.052 499.637C572.548 499.772 578.313 499.839 584.213 499.839C591.529 499.839 598.575 499.738 605.217 499.536C605.217 499.03 605.184 498.525 605.184 498.019C605.015 494.143 604.948 489.694 605.049 484.773C605.959 441.564 619.411 362.089 676.626 307.993C740.313 247.729 671.703 291.949 671.703 291.949Z" fill="#E2BEDB"/>
<path d="M752.889 345.438C752.889 345.438 769.915 375.773 771.668 427.644C772.916 464.348 746.82 496.705 746.82 496.705H757.474C757.474 496.705 780.063 455.046 786.671 431.419C793.01 408.769 792.099 362.156 778.108 339.203C764.15 316.217 752.889 345.438 752.889 345.438Z" fill="#E2BEDB"/>
<path d="M772.174 342.034C772.174 342.034 792.403 364.043 787.953 405.197C782.187 458.72 753.428 497.345 753.428 497.345L758.654 498.794C758.654 498.794 798.202 436.171 792.302 386.423C786.402 336.675 777.602 333.136 777.602 333.136L772.174 342.034Z" fill="#DC90BA"/>
<path d="M768.364 370.009C768.364 370.548 767.926 370.987 767.386 370.987C766.847 370.987 766.409 370.548 766.409 370.009C766.409 369.47 766.847 369.032 767.386 369.032C767.926 369.032 768.364 369.47 768.364 370.009Z" fill="#BA6E9C"/>
<path d="M782.086 385.816C782.347 385.816 782.558 385.605 782.558 385.345C782.558 385.084 782.347 384.873 782.086 384.873C781.826 384.873 781.614 385.084 781.614 385.345C781.614 385.605 781.826 385.816 782.086 385.816Z" fill="#BA6E9C"/>
<path d="M771.702 381.435C771.963 381.435 772.174 381.224 772.174 380.963C772.174 380.703 771.963 380.491 771.702 380.491C771.441 380.491 771.23 380.703 771.23 380.963C771.23 381.224 771.441 381.435 771.702 381.435Z" fill="#BA6E9C"/>
<path d="M773.523 396.804C773.783 396.804 773.995 396.593 773.995 396.332C773.995 396.072 773.783 395.86 773.523 395.86C773.262 395.86 773.051 396.072 773.051 396.332C773.051 396.593 773.262 396.804 773.523 396.804Z" fill="#BA6E9C"/>
<path d="M777.063 427.61C777.323 427.61 777.535 427.399 777.535 427.138C777.535 426.878 777.323 426.666 777.063 426.666C776.802 426.666 776.591 426.878 776.591 427.138C776.591 427.399 776.802 427.61 777.063 427.61Z" fill="#BA6E9C"/>
<path d="M785.93 406.309C786.47 406.309 786.908 405.871 786.908 405.332C786.908 404.792 786.47 404.354 785.93 404.354C785.39 404.354 784.952 404.792 784.952 405.332C784.952 405.871 785.39 406.309 785.93 406.309Z" fill="#BA6E9C"/>
<path d="M779.456 446.856C779.996 446.856 780.434 446.418 780.434 445.878C780.434 445.338 779.996 444.901 779.456 444.901C778.916 444.901 778.479 445.338 778.479 445.878C778.479 446.418 778.916 446.856 779.456 446.856Z" fill="#BA6E9C"/>
<path d="M771.702 463.438C772.242 463.438 772.68 463.001 772.68 462.461C772.68 461.921 772.242 461.483 771.702 461.483C771.162 461.483 770.724 461.921 770.724 462.461C770.724 463.001 771.162 463.438 771.702 463.438Z" fill="#BA6E9C"/>
<path d="M765.6 480.762C766.14 480.762 766.577 480.325 766.577 479.785C766.577 479.245 766.14 478.807 765.6 478.807C765.06 478.807 764.622 479.245 764.622 479.785C764.622 480.325 765.06 480.762 765.6 480.762Z" fill="#BA6E9C"/>
<path d="M784.952 369.47C785.492 369.47 785.93 369.032 785.93 368.492C785.93 367.953 785.492 367.515 784.952 367.515C784.412 367.515 783.974 367.953 783.974 368.492C783.974 369.032 784.412 369.47 784.952 369.47Z" fill="#BA6E9C"/>
<path d="M776.557 439.946C776.818 439.946 777.029 439.735 777.029 439.474C777.029 439.214 776.818 439.002 776.557 439.002C776.296 439.002 776.085 439.214 776.085 439.474C776.085 439.735 776.296 439.946 776.557 439.946Z" fill="#BA6E9C"/>
<path d="M773.995 452.147C774.255 452.147 774.467 451.936 774.467 451.675C774.467 451.415 774.255 451.204 773.995 451.204C773.734 451.204 773.523 451.415 773.523 451.675C773.523 451.936 773.734 452.147 773.995 452.147Z" fill="#BA6E9C"/>
<path d="M783.974 423.161C784.514 423.161 784.952 422.724 784.952 422.184C784.952 421.644 784.514 421.206 783.974 421.206C783.434 421.206 782.996 421.644 782.996 422.184C782.996 422.724 783.434 423.161 783.974 423.161Z" fill="#BA6E9C"/>
<path d="M776.085 412.915C776.625 412.915 777.063 412.477 777.063 411.938C777.063 411.398 776.625 410.96 776.085 410.96C775.545 410.96 775.107 411.398 775.107 411.938C775.107 412.477 775.545 412.915 776.085 412.915Z" fill="#BA6E9C"/>
<path d="M759.059 359.122C759.059 359.122 776.591 359.898 778.782 356.561C780.974 353.258 778.782 351.573 778.782 351.573C778.782 351.573 783.165 349.55 781.547 345.405C779.119 339.237 755.384 350.09 755.384 350.09L759.059 359.122Z" fill="#BA6E9C"/>
<path d="M746.416 358.111L733.773 355.651C733.773 355.651 733.267 359.594 730.064 359.932C726.861 360.269 719.848 355.988 719.848 355.988L727.03 350.629L746.449 354.64L747.292 358.246L746.416 358.111Z" fill="#DC90BA"/>
<path d="M713.206 346.82C713.206 346.82 730.233 377.154 731.986 429.026C733.233 465.73 707.138 498.087 707.138 498.087H717.792C717.792 498.087 740.381 456.428 746.989 432.801C753.327 410.151 752.417 363.538 738.425 340.585C724.467 317.632 713.206 346.82 713.206 346.82Z" fill="#D3A9CF"/>
<path d="M732.525 343.45C732.525 343.45 752.754 365.459 748.304 406.612C742.538 460.135 713.78 498.761 713.78 498.761L719.005 500.21C719.005 500.21 758.553 437.587 752.653 387.839C746.753 338.091 737.953 334.552 737.953 334.552L732.525 343.45Z" fill="#DC90BA"/>
<path d="M728.682 371.391C728.682 371.93 728.243 372.368 727.704 372.368C727.164 372.368 726.726 371.93 726.726 371.391C726.726 370.852 727.164 370.414 727.704 370.414C728.277 370.447 728.682 370.885 728.682 371.391Z" fill="#BA6E9C"/>
<path d="M742.437 387.232C742.698 387.232 742.909 387.021 742.909 386.76C742.909 386.5 742.698 386.288 742.437 386.288C742.177 386.288 741.965 386.5 741.965 386.76C741.965 387.021 742.177 387.232 742.437 387.232Z" fill="#BA6E9C"/>
<path d="M732.053 382.851C732.314 382.851 732.525 382.639 732.525 382.379C732.525 382.118 732.314 381.907 732.053 381.907C731.792 381.907 731.581 382.118 731.581 382.379C731.581 382.639 731.792 382.851 732.053 382.851Z" fill="#BA6E9C"/>
<path d="M733.874 398.22C734.134 398.22 734.346 398.009 734.346 397.748C734.346 397.487 734.134 397.276 733.874 397.276C733.613 397.276 733.402 397.487 733.402 397.748C733.402 398.009 733.613 398.22 733.874 398.22Z" fill="#BA6E9C"/>
<path d="M737.38 429.026C737.641 429.026 737.852 428.815 737.852 428.554C737.852 428.293 737.641 428.082 737.38 428.082C737.119 428.082 736.908 428.293 736.908 428.554C736.908 428.815 737.119 429.026 737.38 429.026Z" fill="#BA6E9C"/>
<path d="M746.281 407.691C746.821 407.691 747.259 407.253 747.259 406.713C747.259 406.174 746.821 405.736 746.281 405.736C745.741 405.736 745.303 406.174 745.303 406.713C745.303 407.253 745.741 407.691 746.281 407.691Z" fill="#BA6E9C"/>
<path d="M739.808 448.237C740.347 448.237 740.785 447.8 740.785 447.26C740.785 446.72 740.347 446.283 739.808 446.283C739.268 446.283 738.83 446.72 738.83 447.26C738.83 447.8 739.268 448.237 739.808 448.237Z" fill="#BA6E9C"/>
<path d="M732.053 464.82C732.593 464.82 733.031 464.383 733.031 463.843C733.031 463.303 732.593 462.865 732.053 462.865C731.513 462.865 731.075 463.303 731.075 463.843C731.075 464.383 731.513 464.82 732.053 464.82Z" fill="#BA6E9C"/>
<path d="M725.917 482.144C726.457 482.144 726.895 481.707 726.895 481.167C726.895 480.627 726.457 480.189 725.917 480.189C725.377 480.189 724.939 480.627 724.939 481.167C724.939 481.707 725.377 482.144 725.917 482.144Z" fill="#BA6E9C"/>
<path d="M745.303 370.852C745.843 370.852 746.281 370.414 746.281 369.874C746.281 369.335 745.843 368.897 745.303 368.897C744.763 368.897 744.325 369.335 744.325 369.874C744.325 370.414 744.763 370.852 745.303 370.852Z" fill="#BA6E9C"/>
<path d="M736.908 441.362C737.169 441.362 737.38 441.151 737.38 440.89C737.38 440.629 737.169 440.418 736.908 440.418C736.647 440.418 736.436 440.629 736.436 440.89C736.436 441.151 736.647 441.362 736.908 441.362Z" fill="#BA6E9C"/>
<path d="M734.346 453.529C734.606 453.529 734.818 453.318 734.818 453.057C734.818 452.797 734.606 452.585 734.346 452.585C734.085 452.585 733.874 452.797 733.874 453.057C733.874 453.318 734.085 453.529 734.346 453.529Z" fill="#BA6E9C"/>
<path d="M744.325 424.543C744.865 424.543 745.303 424.105 745.303 423.566C745.303 423.026 744.865 422.588 744.325 422.588C743.785 422.588 743.348 423.026 743.348 423.566C743.348 424.105 743.785 424.543 744.325 424.543Z" fill="#BA6E9C"/>
<path d="M736.436 414.297C736.976 414.297 737.414 413.859 737.414 413.32C737.414 412.78 736.976 412.342 736.436 412.342C735.896 412.342 735.458 412.78 735.458 413.32C735.458 413.859 735.896 414.297 736.436 414.297Z" fill="#BA6E9C"/>
<path d="M719.41 360.538C719.41 360.538 736.942 361.313 739.133 357.977C741.325 354.674 739.133 352.988 739.133 352.988C739.133 352.988 743.516 350.966 741.898 346.82C739.47 340.652 715.735 351.505 715.735 351.505L719.41 360.538Z" fill="#BA6E9C"/>
<path d="M725.546 503.041L726.389 499.165H669.613C668.366 501.221 667.961 503.041 667.961 503.041H725.546Z" fill="#FFF5B0"/>
<path d="M680.705 497.615C680.672 498.188 680.672 498.693 680.638 499.165H726.423L730.94 478.841C730.94 478.841 723.692 479.482 720.556 481.976C717.421 484.47 716.173 490.335 716.173 490.335C716.173 490.335 714.488 490.739 716.578 484.504C718.668 478.235 715.533 478.875 715.533 478.875L709.262 490.975C709.262 490.975 687.347 492.155 678.649 493.368C679.862 494.211 680.773 495.559 680.705 497.615Z" fill="#E63A32"/>
<path d="M669.613 499.199H680.638C680.638 498.727 680.672 498.221 680.705 497.648C680.773 495.559 679.896 494.244 678.682 493.368C678.446 493.402 678.21 493.435 677.974 493.469C673.625 494.143 671.063 496.84 669.613 499.199Z" fill="#FFF5B0"/>
<path d="M704.171 494.851C704.171 494.851 704.137 493.638 703.362 492.492C702.688 491.548 701.912 491.379 701.305 491.413C702.249 490.436 703.396 490.941 704.07 491.548C705.351 492.694 705.452 494.682 705.452 494.784L704.171 494.851L704.812 494.817L704.171 494.851Z" fill="white"/>
<path d="M700.53 495.087C700.53 495.087 700.496 493.874 699.721 492.728C699.046 491.784 698.271 491.615 697.664 491.649C698.608 490.672 699.754 491.177 700.429 491.784C701.71 492.93 701.811 494.918 701.811 495.02L700.53 495.087L701.17 495.053L700.53 495.087Z" fill="white"/>
<path d="M711.319 494.379C711.319 494.379 711.285 493.166 710.509 492.02C709.835 491.076 709.06 490.908 708.453 490.941C709.397 489.964 710.543 490.469 711.217 491.076C712.499 492.222 712.6 494.211 712.6 494.312L711.319 494.379L711.959 494.345L711.319 494.379Z" fill="white"/>
<path d="M707.711 494.615C707.711 494.615 707.677 493.402 706.902 492.256C706.228 491.312 705.452 491.144 704.845 491.177C705.789 490.2 706.936 490.705 707.61 491.312C708.891 492.458 708.992 494.447 708.992 494.548L707.711 494.615L708.352 494.581L707.711 494.615Z" fill="white"/>
<path d="M715.061 492.997C715.027 492.862 713.746 489.66 710.071 489.458C710.071 489.458 709.633 489.02 710.408 488.413C715.331 488.447 716.241 492.593 716.241 492.626L715.061 492.997Z" fill="white"/>
<path d="M677.367 269.266C667.219 281.838 667.152 292.118 667.152 292.118C667.152 292.118 674.03 356.73 746.416 350.663C807.204 345.573 775.849 335.462 775.849 335.462C775.849 335.462 785.255 337.956 787.75 332.631C790.245 327.305 781.176 325.115 781.176 325.115C781.176 325.115 798.404 325.418 799.011 312.61C814.351 311.97 824.061 308.869 824.365 305.094C824.668 301.319 816.846 300.409 816.846 300.409C816.846 300.409 824.702 299.465 824.365 296.971C824.028 294.477 820.589 293.837 820.589 293.837C820.589 293.837 821.87 293.533 824.365 288.815C826.86 284.13 817.453 285.309 819.038 285.377C839.301 286.354 843.886 258.952 843.886 258.952C843.886 258.952 804.743 255.009 767.083 251.571C708.857 246.313 685.796 258.818 677.367 269.266Z" fill="#20264A"/>
<path d="M706.025 281.838C706.025 281.838 739.302 294.073 758.452 314.194C765.161 318.34 781.008 327.069 781.378 331.552C781.749 336.035 775.849 335.496 775.849 335.496C775.849 335.496 779.49 339.169 778.277 342.607C777.063 346.045 773.658 346.955 773.658 346.955L696.889 321.407C696.889 321.407 681.346 281.669 682.695 281.838C684.009 282.006 689.1 278.097 706.025 281.838Z" fill="#1F2141"/>
<path d="M726.726 318.374C737.414 326.699 742.067 332.361 739.572 335.799C737.077 339.237 732.997 338.293 732.997 338.293C732.997 338.293 736.74 342.675 734.885 345.169C732.997 347.663 726.76 346.113 726.76 346.113C726.76 346.113 733.638 352.045 730.84 356.426C728.008 360.808 718.635 355.482 713.308 352.685C707.981 349.887 694.832 337.653 683.268 324.205C671.67 310.756 668.568 296.971 668.568 296.971C668.568 296.971 673.491 276.883 726.726 318.374Z" fill="#20264A"/>
<path d="M667.152 297.241C667.152 297.241 681.683 350.696 731.413 353.966C773.219 356.73 775.546 352.415 775.242 348.944C774.939 345.506 759.598 343.922 759.598 343.922C759.598 343.922 774.366 346.416 775.276 341.731C776.186 337.046 771.803 337.99 759.902 332.024C772.107 334.518 773.961 336.406 775.377 332.024C776.793 327.642 767.724 326.699 761.79 322.317C755.856 317.936 725.85 295.691 693.247 283.523C659.667 271.019 667.152 297.241 667.152 297.241Z" fill="#282F54"/>
<path d="M756.429 317.497C756.429 317.497 771.837 330.642 767.791 333.844C773.556 335.192 777.77 336.776 778.276 332.563C778.782 328.35 759.463 317.599 756.429 317.497Z" fill="white"/>
<path d="M765.499 334.619C765.836 334.754 770.219 340.619 767.353 342.607C764.487 344.596 763.712 344.427 763.712 344.427C763.712 344.427 773.894 347.831 775.242 341.731C776.625 335.664 765.499 334.619 765.499 334.619Z" fill="white"/>
<path d="M754.844 354.842C754.844 354.842 766.847 354.438 769.51 350.494C772.174 346.551 769.51 345.708 769.51 345.708C769.51 345.708 776.22 347.09 775.815 349.348C775.411 351.539 776.827 355.415 754.844 354.842Z" fill="white"/>
<path d="M764.15 504.996L764.993 501.12H708.217C706.969 503.176 706.565 504.996 706.565 504.996H764.15Z" fill="#FFF5B0"/>
<path d="M719.309 499.57C719.275 500.143 719.275 500.648 719.242 501.12H765.027L769.544 480.796C769.544 480.796 762.296 481.437 759.16 483.931C756.025 486.425 754.777 492.289 754.777 492.289C754.777 492.289 753.091 492.694 755.182 486.459C757.272 480.223 754.137 480.83 754.137 480.83L747.866 492.93C747.866 492.93 725.951 494.11 717.252 495.323C718.466 496.165 719.376 497.48 719.309 499.57Z" fill="#E63A32"/>
<path d="M708.217 501.12H719.242C719.242 500.648 719.275 500.143 719.309 499.57C719.376 497.48 718.5 496.166 717.286 495.289C717.05 495.323 716.814 495.357 716.578 495.39C712.229 496.064 709.667 498.761 708.217 501.12Z" fill="#FFF5B0"/>
<path d="M742.775 496.772C742.775 496.772 742.741 495.559 741.965 494.413C741.291 493.469 740.516 493.301 739.909 493.334C740.853 492.357 741.999 492.862 742.674 493.469C743.955 494.615 744.056 496.604 744.056 496.705L742.775 496.772L743.415 496.738L742.775 496.772Z" fill="white"/>
<path d="M739.133 497.008C739.133 497.008 739.1 495.795 738.324 494.649C737.65 493.705 736.875 493.537 736.268 493.57C737.212 492.593 738.358 493.098 739.032 493.705C740.313 494.851 740.415 496.84 740.415 496.941L739.133 497.008L739.774 496.974L739.133 497.008Z" fill="white"/>
<path d="M749.956 496.3C749.956 496.3 749.922 495.087 749.147 493.941C748.472 492.997 747.697 492.829 747.09 492.862C748.034 491.885 749.181 492.391 749.855 492.997C751.136 494.143 751.237 496.132 751.237 496.233L749.956 496.3L750.597 496.267L749.956 496.3Z" fill="white"/>
<path d="M746.315 496.536C746.315 496.536 746.281 495.323 745.506 494.177C744.831 493.233 744.056 493.065 743.449 493.098C744.393 492.121 745.539 492.627 746.214 493.233C747.495 494.379 747.596 496.368 747.596 496.469L746.315 496.536L746.955 496.503L746.315 496.536Z" fill="white"/>
<path d="M753.665 494.918C753.631 494.784 752.35 491.582 748.675 491.379C748.675 491.379 748.236 490.941 749.012 490.335C753.934 490.368 754.845 494.514 754.845 494.548L753.665 494.918Z" fill="white"/>
<path d="M493.823 509.344L502.488 441.092L499.555 509.951L521.099 438.531L507.478 511.535L526.089 459.057L515.064 510.995L493.823 509.344Z" fill="#98C87D"/>
<path d="M493.823 513.624L496.622 500.143L515.097 488.852L534.787 496.3V505.872L545.306 509.816V514.501C545.306 514.501 545.306 517.736 509.265 519.085C499.386 515.411 493.823 513.624 493.823 513.624Z" fill="#8C8C8C"/>
<path d="M496.622 500.176L515.064 488.885L520.525 490.941L514.996 505.906L496.622 500.176Z" fill="#AFAFAF"/>
<path d="M616.579 384.03C617.268 384.03 617.827 383.472 617.827 382.783C617.827 382.094 617.268 381.536 616.579 381.536C615.89 381.536 615.332 382.094 615.332 382.783C615.332 383.472 615.89 384.03 616.579 384.03Z" fill="#D3A9CF"/>
<path d="M634.718 337.99C635.407 337.99 635.966 337.431 635.966 336.743C635.966 336.054 635.407 335.496 634.718 335.496C634.029 335.496 633.471 336.054 633.471 336.743C633.471 337.431 634.029 337.99 634.718 337.99Z" fill="#D3A9CF"/>
<path d="M660.78 314.734C661.469 314.734 662.027 314.175 662.027 313.487C662.027 312.798 661.469 312.239 660.78 312.239C660.091 312.239 659.532 312.798 659.532 313.487C659.532 314.175 660.091 314.734 660.78 314.734Z" fill="#D3A9CF"/>
<path d="M587.888 433.812C588.912 433.812 589.742 432.982 589.742 431.958C589.742 430.934 588.912 430.104 587.888 430.104C586.864 430.104 586.034 430.934 586.034 431.958C586.034 432.982 586.864 433.812 587.888 433.812Z" fill="#D3A9CF"/>
<path d="M593.552 477.055C594.576 477.055 595.406 476.225 595.406 475.201C595.406 474.177 594.576 473.347 593.552 473.347C592.528 473.347 591.698 474.177 591.698 475.201C591.698 476.225 592.528 477.055 593.552 477.055Z" fill="#D3A9CF"/>
<path d="M571.199 495.222C572.223 495.222 573.053 494.392 573.053 493.368C573.053 492.344 572.223 491.514 571.199 491.514C570.175 491.514 569.345 492.344 569.345 493.368C569.345 494.392 570.175 495.222 571.199 495.222Z" fill="#D3A9CF"/>
<path d="M0.370911 609.784V574.057L538.968 598.863L1119 534.386C1119 534.386 1116.17 691.18 1119 695.73C1121.8 700.281 0.370911 609.784 0.370911 609.784Z" fill="#964B33"/>
<path d="M306.098 609.447L512.501 619.389L651.441 606.481L744.696 585.651L633.572 590.606L557.14 576.719L498.611 590.606L306.098 609.447Z" fill="#C46A3D"/>
<path d="M1119 555.486L792.909 581.101L876.893 612.75L1119 598.594V555.486Z" fill="#964B33"/>
<path d="M304.042 171.893C304.042 180.994 311.459 188.409 320.562 188.409H376.091C384.25 188.409 390.959 181.803 391.094 173.646C391.195 165.49 384.722 158.715 376.529 158.445C379.9 149.143 375.045 138.762 365.74 135.391C356.435 132.021 346.051 136.807 342.679 146.177C338.903 144.424 334.621 144.559 330.913 146.379C327.204 148.199 324.574 151.704 323.765 155.749C322.686 155.547 321.574 155.412 320.495 155.412C311.425 155.446 304.008 162.861 304.042 171.893Z" fill="white"/>
<path d="M520.863 289.118C520.256 289.118 519.649 289.185 519.042 289.287C518.604 287.062 517.154 285.107 515.097 284.096C513.041 283.085 510.647 283.018 508.557 283.961C506.669 278.771 500.937 276.108 495.779 277.996C490.62 279.883 487.923 285.613 489.811 290.77C485.293 290.904 481.686 294.679 481.753 299.196C481.821 303.712 485.529 307.386 490.081 307.386H520.863C525.92 307.386 530.033 303.274 530.033 298.218C530.033 293.23 525.92 289.118 520.863 289.118Z" fill="white"/>
<path d="M915.429 85.34C914.418 85.34 913.44 85.4412 912.428 85.6434C911.687 81.9359 909.259 78.7339 905.854 77.0487C902.449 75.3635 898.504 75.2624 895.031 76.8465C891.93 68.2518 882.422 63.8365 873.858 66.9373C865.295 70.0382 860.844 79.5429 863.946 88.1038C856.428 88.3398 850.494 94.5751 850.561 102.058C850.663 109.574 856.832 115.607 864.317 115.607H915.362C923.723 115.607 930.533 108.798 930.533 100.44C930.567 92.1484 923.79 85.34 915.429 85.34Z" fill="white"/>
<path d="M935.928 315.408C935.22 315.408 934.546 315.475 933.838 315.61C933.332 313.048 931.646 310.824 929.286 309.644C926.926 308.465 924.195 308.397 921.801 309.509C919.644 303.544 913.069 300.51 907.135 302.634C901.201 304.757 898.133 311.363 900.257 317.295C895.065 317.464 890.918 321.778 891.019 326.968C891.087 332.159 895.335 336.372 900.561 336.372H935.86C941.659 336.372 946.346 331.653 946.346 325.89C946.413 320.126 941.693 315.408 935.928 315.408Z" fill="white"/>
<path d="M644.9 196.363C644.496 196.363 644.091 196.397 643.686 196.498C643.383 194.981 642.405 193.7 641.023 192.993C639.641 192.318 638.022 192.251 636.64 192.925C635.392 189.42 631.515 187.633 628.043 188.914C624.57 190.161 622.749 194.037 624.031 197.509C620.996 197.61 618.569 200.138 618.602 203.171C618.636 206.205 621.131 208.665 624.199 208.665H644.9C648.305 208.665 651.036 205.901 651.036 202.531C651.07 199.127 648.305 196.363 644.9 196.363Z" fill="white"/>
<path d="M36.6819 290.062C36.2774 290.062 35.8728 290.095 35.4682 290.197C35.1648 288.68 34.187 287.399 32.8047 286.691C31.4224 285.984 29.8041 285.95 28.4218 286.624C27.1743 283.119 23.2971 281.332 19.8245 282.613C16.3518 283.86 14.5312 287.736 15.8124 291.208C12.778 291.309 10.3505 293.837 10.3843 296.87C10.418 299.904 12.9129 302.364 15.9809 302.364H36.6819C40.0872 302.364 42.8181 299.6 42.8181 296.23C42.8518 292.826 40.0872 290.062 36.6819 290.062Z" fill="white"/>
<path d="M555.218 63.5669C554.814 63.5669 554.409 63.6006 554.004 63.7017C553.701 62.185 552.723 60.9042 551.341 60.1964C549.959 59.5223 548.34 59.4549 546.958 60.129C545.711 56.6237 541.833 54.8374 538.361 56.1182C534.888 57.3652 533.067 61.2413 534.349 64.7128C531.314 64.814 528.887 67.3418 528.921 70.3752C528.954 73.4086 531.449 75.8691 534.517 75.8691H555.218C558.623 75.8691 561.354 73.1053 561.354 69.7348C561.388 66.3307 558.623 63.5669 555.218 63.5669Z" fill="white"/>
<path d="M86.8835 579.719L95.5483 523.432L92.6151 579.719L114.159 520.837L100.538 579.719L119.149 541.397L108.124 579.719H86.8835Z" fill="#98C87D"/>
<path d="M42.6158 579.719L33.9174 523.432L36.8506 579.719L15.3067 520.837L28.9613 579.719L10.3506 541.397L21.3417 579.719H42.6158Z" fill="#98C87D"/>
<path d="M60.687 579.719L72.3524 495.66L68.374 579.719L97.3015 492.222L78.9942 579.719L103.977 519.759L89.2099 579.719H60.687Z" fill="#98C87D"/>
<path d="M64.1933 579.719L60.687 443.317L56.4726 579.719L27.5452 492.222L45.8861 579.719L20.9033 519.759L35.6705 579.719H64.1933Z" fill="#98C87D"/>
<path d="M940.985 561.013L939.94 516.321L945.402 560.204L953.965 511.737L951.538 559.126L960.641 526.938L957.404 558.081L940.985 561.013Z" fill="#98C87D"/>
<path d="M906.764 567.114L892.3 524.814L902.314 567.889L877.533 525.387L896.211 569.001L876.555 541.936L890.345 570.046L906.764 567.114Z" fill="#98C87D"/>
<path d="M920.722 564.619L918.16 498.053L926.69 563.541L936.973 491.952L934.882 562.092L945.907 512.31L942.772 560.676L920.722 564.619Z" fill="#98C87D"/>
<path d="M923.453 564.148L901.909 459.192L917.486 565.192L883.063 501.558L909.293 566.642L881.714 523.77L901.404 568.057L923.453 564.148Z" fill="#98C87D"/>
<path d="M1119 178.5C1114.58 174.185 1107.94 172.534 1101.77 174.758C1093.21 177.859 1088.76 187.364 1091.86 195.925C1084.34 196.161 1078.41 202.396 1078.47 209.879C1078.58 217.395 1084.75 223.428 1092.23 223.428H1118.97V178.5H1119Z" fill="white"/>
</svg>
