<svg width="35" height="29" viewBox="0 0 35 29" fill="none" xmlns="http://www.w3.org/2000/svg">
<path d="M34.3164 3.3736C33.5502 3.71709 32.7548 3.98807 31.9386 4.18425C32.8379 3.3203 33.5141 2.23969 33.8956 1.03353C34.0045 0.689187 33.6345 0.391429 33.327 0.575796C32.1915 1.25665 30.9685 1.76742 29.6917 2.09408C29.6176 2.11304 29.5412 2.12264 29.4645 2.12264C29.2319 2.12264 29.0058 2.03535 28.828 1.8769C27.4696 0.666577 25.7224 0 23.9085 0C23.1236 0 22.3312 0.123676 21.5531 0.367629C19.1423 1.12354 17.2822 3.1339 16.6985 5.61422C16.4796 6.54456 16.4203 7.47574 16.5222 8.38185C16.5339 8.48598 16.4852 8.55865 16.4552 8.59274C16.4025 8.65249 16.3277 8.68675 16.2501 8.68675C16.2415 8.68675 16.2326 8.68632 16.2237 8.68547C10.9466 8.18983 6.18792 5.61966 2.82424 1.4485C2.65271 1.23574 2.32378 1.26184 2.18707 1.49891C1.52837 2.64132 1.18027 3.94795 1.18027 5.27753C1.18027 7.31518 1.99006 9.23543 3.39667 10.6353C2.80515 10.4935 2.23264 10.2702 1.70082 9.97162C1.44353 9.82712 1.12697 10.0128 1.12335 10.3103C1.08652 13.3374 2.83963 16.0309 5.46583 17.2438C5.41294 17.2451 5.36006 17.2457 5.30709 17.2457C4.8908 17.2457 4.4693 17.205 4.05444 17.1249C3.76469 17.0689 3.52128 17.3468 3.61124 17.6308C4.46366 20.3212 6.75505 22.3042 9.49712 22.7545C7.22137 24.2989 4.5712 25.1135 1.81291 25.1135L0.953002 25.113C0.688061 25.113 0.463984 25.2876 0.396466 25.547C0.329958 25.8025 0.452464 26.0721 0.678392 26.2049C3.78655 28.0335 7.33185 29 10.9326 29C14.0844 29 17.0326 28.3677 19.6955 27.1207C22.1366 25.9775 24.2938 24.3434 26.1071 22.2637C27.7963 20.3263 29.1172 18.0899 30.0331 15.6165C30.9061 13.2589 31.3675 10.7432 31.3675 8.34139V8.22698C31.3674 7.84133 31.54 7.47846 31.841 7.23145C32.9832 6.29389 33.9779 5.19024 34.7973 3.95118C35.0136 3.62401 34.6724 3.21397 34.3164 3.3736Z" fill="#92D2E8"/>
</svg>
