<svg width="30" height="29" viewBox="0 0 30 29" fill="none" xmlns="http://www.w3.org/2000/svg">
<path d="M14.242 0.016506C6.64717 0.375414 0.653784 6.65296 0.676824 14.1993C0.683839 16.4977 1.24292 18.6672 2.22916 20.584L0.714926 27.8791C0.633014 28.2737 0.99161 28.6192 1.38659 28.5264L8.58899 26.8328C10.4394 27.7476 12.5178 28.276 14.7175 28.3093C22.4801 28.427 28.9528 22.3095 29.1947 14.608C29.4541 6.35255 22.589 -0.378033 14.242 0.016506ZM22.836 21.993C20.7267 24.0864 17.9223 25.2393 14.9393 25.2393C13.1927 25.2393 11.5205 24.8504 9.96897 24.0833L8.96595 23.5874L4.55013 24.6258L5.47964 20.1475L4.98548 19.1871C4.18005 17.6216 3.77166 15.9287 3.77166 14.1555C3.77166 11.1949 4.93328 8.41152 7.04257 6.31801C9.133 4.24326 11.9832 3.07159 14.9395 3.07159C17.9225 3.07166 20.7268 4.22456 22.8361 6.31794C24.9454 8.41139 26.107 11.1947 26.1071 14.1553C26.107 17.0895 24.9264 19.9183 22.836 21.993Z" fill="#92D2E8"/>
<path d="M21.861 17.2262L19.0983 16.4388C18.7351 16.3354 18.344 16.4376 18.0794 16.7053L17.4038 17.3884C17.1189 17.6765 16.6867 17.769 16.3096 17.6176C15.0028 17.0927 12.2537 14.6668 11.5516 13.4533C11.349 13.1033 11.3825 12.6657 11.6312 12.3463L12.2211 11.5889C12.4521 11.2922 12.5009 10.8937 12.3481 10.5507L11.1858 7.9416C10.9074 7.31669 10.1028 7.13477 9.57711 7.576C8.80606 8.22324 7.89121 9.2068 7.78 10.2964C7.58392 12.2175 8.41404 14.6392 11.5532 17.5471C15.1797 20.9065 18.0838 21.3503 19.9747 20.8957C21.0472 20.6379 21.9043 19.6043 22.4452 18.758C22.8139 18.181 22.5228 17.4148 21.861 17.2262Z" fill="#92D2E8"/>
</svg>
